<?xml version="1.0" encoding="utf-8"?>
<!-- Generator: Adobe Illustrator 24.3.0, SVG Export Plug-In . SVG Version: 6.00 Build 0)  -->
<svg version="1.1" id="layer" xmlns="http://www.w3.org/2000/svg" xmlns:xlink="http://www.w3.org/1999/xlink" x="0px" y="0px"
	 viewBox="0 0 549.2 249.6" style="enable-background:new 0 0 549.2 249.6;" xml:space="preserve">
<style type="text/css">
	.st0{fill:#FFFFFF;}
</style>
<g>
	<g>
		<g>
			<path class="st0" d="M119.4,131.2l16.2-23.8l-26.8-38L75.5,117C97.9,116.6,113.5,126.7,119.4,131.2z"/>
		</g>
		<g>
			<polygon class="st0" points="91.1,180.2 186.9,180.2 138.1,111 			"/>
		</g>
		<g>
			<path class="st0" d="M117.1,134.6c-5.4-4.3-21.2-15-44.5-13.4l-41.2,59h54.8L117.1,134.6z"/>
		</g>
	</g>
	<g>
		<g>
			<path class="st0" d="M191.9,147.5l-1.2-9.9h-6.6l-1.2,9.9H177l6-44.6h8.7l6.1,44.6H191.9z M187.4,109.8l-2.6,22.2h5.2
				L187.4,109.8z"/>
			<path class="st0" d="M198.2,147.9h-6.7l-1.2-9.9h-5.9l-1.2,9.9h-6.7l6.1-45.3h9.4L198.2,147.9z M192.2,147.1h5.2l-6-43.8h-8.1
				l-5.9,43.8h5.2l1.2-9.9h7.2L192.2,147.1z M190.4,132.3h-6.1l3-25.8L190.4,132.3z M185.2,131.6h4.4l-2.2-18.6L185.2,131.6z"/>
		</g>
		<g>
			<path class="st0" d="M225.8,147.5l0.1-33.4l-6.1,33.4h-5.3l-6.1-33.3l0.1,33.3h-5.9v-44.6h9.6l4.9,31.1l4.9-31.1h9.6v44.6H225.8z
				"/>
			<path class="st0" d="M232.1,147.9h-6.7l0.1-29.5l-5.3,29.5h-6l-5.3-29.4l0.1,29.4h-6.7v-45.3h10.3l4.6,29.1l4.6-29.1h10.3
				L232.1,147.9L232.1,147.9z M226.2,147.1h5.2v-43.8h-8.9l-5.3,33.1l-5.3-33.1H203v43.8h5.2l-0.1-32.9l0.7-0.1l6,33h4.7l6-33
				l0.7,0.1L226.2,147.1z"/>
		</g>
		<g>
			<path class="st0" d="M237.5,147.5v-44.6h15.9v5.7h-10v13.6h9.6v5.7h-9.6v14h10v5.7L237.5,147.5L237.5,147.5z"/>
			<path class="st0" d="M253.8,147.9h-16.7v-45.3h16.7v6.4h-10v12.9h9.6v6.4h-9.6v13.3h10V147.9z M237.9,147.1h15.2v-4.9h-10v-14.8
				h9.6v-4.9h-9.6v-14.4h10v-4.9h-15.2V147.1z"/>
		</g>
		<g>
			<path class="st0" d="M269.5,147.5l-5.1-18.3h-2.3v18.3h-5.9v-44.6h9.9c2.4,0,4.4,0.8,5.9,2.3s2.3,3.9,2.3,7v7.2
				c0,2.3-0.3,4.1-1,5.5c-0.6,1.3-1.8,2.3-3.4,3l5.5,19.6H269.5z M268.3,113c0-1.6-0.3-2.8-0.8-3.4c-0.5-0.7-1.3-1-2.5-1h-3v14.9h3
				c1.2,0,2-0.3,2.5-1s0.8-1.8,0.8-3.4V113z"/>
			<path class="st0" d="M275.9,147.9h-6.7l-5.1-18.3h-1.6v18.3h-6.7v-45.3h10.3c2.5,0,4.6,0.8,6.2,2.4s2.4,4,2.4,7.3v7.2
				c0,2.4-0.3,4.3-1,5.6c-0.6,1.3-1.7,2.4-3.2,3.1L275.9,147.9z M269.8,147.1h5.2l-5.4-19.4l0.3-0.1c1.5-0.6,2.6-1.6,3.2-2.8
				c0.6-1.3,0.9-3.1,0.9-5.3v-7.2c0-3-0.7-5.3-2.2-6.8c-1.4-1.4-3.3-2.2-5.7-2.2h-9.5v43.8h5.2v-18.3h2.9L269.8,147.1z M265.1,123.9
				h-3.3v-15.7h3.3c1.3,0,2.2,0.4,2.8,1.2c0.6,0.7,0.8,1.9,0.8,3.7v6.1c0,1.7-0.3,2.9-0.8,3.6C267.3,123.5,266.3,123.9,265.1,123.9z
				 M262.5,123.2h2.6c1,0,1.8-0.3,2.2-0.8c0.5-0.6,0.7-1.7,0.7-3.2V113c0-1.5-0.2-2.6-0.7-3.2c-0.4-0.6-1.2-0.9-2.2-0.9h-2.6V123.2z
				"/>
		</g>
		<g>
			<path class="st0" d="M278.1,147.5v-44.6h5.9v44.6H278.1z"/>
			<path class="st0" d="M284.4,147.9h-6.7v-45.3h6.7V147.9z M278.4,147.1h5.2v-43.8h-5.2V147.1z"/>
		</g>
		<g>
			<path class="st0" d="M307.9,139c0,1.6-0.2,3.1-0.7,4.3s-1.2,2.2-2,2.9c-0.9,0.7-1.8,1.3-2.9,1.6c-1.1,0.4-2.2,0.5-3.5,0.5
				s-2.4-0.2-3.5-0.5c-1.1-0.4-2.1-0.9-2.9-1.6c-0.9-0.7-1.5-1.7-2-2.9s-0.7-2.6-0.7-4.2v-27.5c0-3.1,0.9-5.5,2.6-7s4-2.3,6.8-2.3
				c1,0,1.9,0.1,2.7,0.3c0.9,0.2,1.7,0.5,2.4,0.9c0.8,0.4,1.4,1,2,1.6c0.5,0.7,1,1.5,1.3,2.5s0.5,2.2,0.5,3.5v7.4h-5.9v-6.2
				c0-1.5-0.3-2.6-1-3.4c-0.6-0.7-1.4-1.1-2.3-1.1s-1.7,0.4-2.3,1.1c-0.6,0.7-0.9,1.8-0.9,3.4v25.9c0,1.5,0.3,2.6,0.9,3.4
				c0.6,0.7,1.4,1.1,2.3,1.1s1.7-0.4,2.3-1.1c0.6-0.7,1-1.8,1-3.4v-5.6h5.9L307.9,139L307.9,139z"/>
			<path class="st0" d="M298.7,148.7c-1.3,0-2.5-0.2-3.7-0.6c-1.1-0.4-2.2-0.9-3.1-1.7s-1.6-1.8-2.1-3.1s-0.8-2.7-0.8-4.4v-27.5
				c0-3.2,0.9-5.7,2.7-7.3c1.8-1.6,4.2-2.4,7.1-2.4c1,0,1.9,0.1,2.8,0.3c0.9,0.2,1.7,0.5,2.5,1s1.5,1,2.1,1.7s1,1.6,1.4,2.7
				c0.3,1.1,0.5,2.3,0.5,3.6v7.8h-6.7v-6.6c0-1.4-0.3-2.5-0.9-3.1s-1.2-1-2-1s-1.5,0.3-2,1c-0.6,0.6-0.8,1.7-0.8,3.1v25.9
				c0,1.4,0.3,2.5,0.8,3.1c0.6,0.6,1.2,0.9,2,0.9s1.5-0.3,2-1c0.6-0.6,0.9-1.7,0.9-3.1v-5.9h6.7v6.7c0,1.7-0.3,3.2-0.8,4.4
				c-0.5,1.3-1.2,2.3-2.1,3.1c-0.9,0.7-1.9,1.3-3,1.7C301.3,148.5,300,148.7,298.7,148.7z M298.9,102.6c-2.7,0-4.9,0.7-6.6,2.2
				c-1.6,1.5-2.5,3.7-2.5,6.7V139c0,1.5,0.2,2.9,0.7,4.1c0.5,1.2,1.1,2.1,1.9,2.8s1.8,1.2,2.8,1.6c2.1,0.7,4.8,0.7,6.8,0
				c1-0.3,2-0.9,2.8-1.5c0.8-0.7,1.5-1.6,1.9-2.8c0.5-1.2,0.7-2.6,0.7-4.1v-6h-5.2v5.2c0,1.6-0.4,2.8-1,3.6
				c-0.7,0.8-1.6,1.2-2.6,1.2s-1.9-0.4-2.6-1.2s-1-2-1-3.6v-25.9c0-1.6,0.3-2.8,1-3.6c0.7-0.8,1.6-1.2,2.6-1.2s1.9,0.4,2.6,1.2
				c0.7,0.8,1,2,1,3.6v5.8h5.2v-7c0-1.3-0.2-2.4-0.5-3.4s-0.7-1.8-1.3-2.4c-0.5-0.6-1.1-1.1-1.9-1.6c-0.7-0.4-1.5-0.7-2.3-0.9
				C300.7,102.7,299.8,102.6,298.9,102.6z"/>
		</g>
		<g>
			<path class="st0" d="M325.6,147.5l-1.2-9.9h-6.6l-1.2,9.9h-5.9l6-44.6h8.7l6.1,44.6H325.6z M321.1,109.8l-2.6,22.2h5.2
				L321.1,109.8z"/>
			<path class="st0" d="M331.9,147.9h-6.7L324,138h-5.9l-1.2,9.9h-6.7l6.1-45.3h9.4L331.9,147.9z M325.9,147.1h5.2l-6-43.8H317
				l-5.9,43.8h5.2l1.2-9.9h7.2L325.9,147.1z M324.1,132.3H318l3-25.8L324.1,132.3z M318.9,131.6h4.4l-2.2-18.6L318.9,131.6z"/>
		</g>
		<g>
			<path class="st0" d="M339.4,111.5c0-3.1,0.9-5.5,2.6-7s4.1-2.3,6.9-2.3c5.9,0,8.8,3.1,8.8,9.3V139c0,1.6-0.2,3.1-0.7,4.3
				s-1.2,2.2-2,2.9c-0.9,0.7-1.8,1.3-2.9,1.6c-1.1,0.4-2.2,0.5-3.5,0.5s-2.4-0.2-3.5-0.5c-1.1-0.4-2.1-0.9-2.9-1.6
				c-0.9-0.7-1.5-1.7-2-2.9s-0.7-2.6-0.7-4.2L339.4,111.5L339.4,111.5z M351.8,112.3c0-1.5-0.3-2.6-1-3.4c-0.6-0.7-1.4-1.1-2.3-1.1
				s-1.7,0.4-2.3,1.1c-0.6,0.7-0.9,1.8-0.9,3.4v25.9c0,1.5,0.3,2.6,0.9,3.4c0.6,0.7,1.4,1.1,2.3,1.1s1.7-0.4,2.3-1.1
				c0.6-0.7,1-1.8,1-3.4V112.3z"/>
			<path class="st0" d="M348.6,148.7c-1.3,0-2.5-0.2-3.7-0.6c-1.1-0.4-2.2-0.9-3.1-1.7s-1.6-1.8-2.1-3.1s-0.8-2.7-0.8-4.4v-27.5
				c0-3.2,0.9-5.7,2.7-7.3c1.8-1.6,4.2-2.4,7.2-2.4c6.1,0,9.2,3.3,9.2,9.7V139c0,1.7-0.3,3.2-0.8,4.4c-0.5,1.3-1.2,2.3-2.1,3.1
				c-0.9,0.7-1.9,1.3-3,1.7C351.2,148.5,349.9,148.7,348.6,148.7z M348.9,102.6c-2.8,0-5,0.7-6.7,2.2s-2.5,3.7-2.5,6.7V139
				c0,1.5,0.2,2.9,0.7,4.1c0.5,1.2,1.1,2.1,1.9,2.8s1.8,1.2,2.8,1.6c2.1,0.7,4.8,0.7,6.8,0c1-0.3,2-0.9,2.8-1.5
				c0.8-0.7,1.5-1.6,1.9-2.8c0.5-1.2,0.7-2.6,0.7-4.1v-27.5C357.4,105.5,354.6,102.6,348.9,102.6z M348.6,143c-1,0-1.9-0.4-2.6-1.2
				s-1-2-1-3.6v-25.9c0-1.6,0.3-2.8,1-3.6c0.7-0.8,1.6-1.2,2.6-1.2s1.9,0.4,2.6,1.2c0.7,0.8,1,2,1,3.6v25.9c0,1.6-0.4,2.8-1,3.6
				C350.5,142.6,349.6,143,348.6,143z M348.6,108.2c-0.8,0-1.5,0.3-2,1c-0.6,0.6-0.8,1.7-0.8,3.1v25.9c0,1.4,0.3,2.5,0.8,3.1
				c0.6,0.6,1.2,0.9,2,0.9s1.5-0.3,2-1c0.6-0.6,0.9-1.7,0.9-3.1v-25.9c0-1.4-0.3-2.5-0.9-3.1C350,108.5,349.4,108.2,348.6,108.2z"/>
		</g>
		<g>
			<path class="st0" d="M375.6,102.9h5.9v36c0,1.6-0.2,3.1-0.7,4.3s-1.2,2.2-2,2.9c-0.9,0.7-1.8,1.3-2.9,1.6
				c-1.1,0.4-2.2,0.5-3.5,0.5s-2.4-0.2-3.5-0.5c-1.1-0.4-2.1-0.9-2.9-1.6c-0.9-0.7-1.5-1.7-2-2.9s-0.7-2.6-0.7-4.2v-36h5.9v35.3
				c0,1.5,0.3,2.6,0.9,3.4c0.6,0.7,1.4,1.1,2.3,1.1s1.7-0.4,2.3-1.1c0.6-0.7,1-1.8,1-3.4L375.6,102.9L375.6,102.9z"/>
			<path class="st0" d="M372.4,148.7c-1.3,0-2.5-0.2-3.7-0.6c-1.1-0.4-2.2-0.9-3.1-1.7s-1.6-1.8-2.1-3.1s-0.8-2.7-0.8-4.4v-36.4h6.7
				v35.6c0,1.4,0.3,2.5,0.8,3.1c0.6,0.6,1.2,0.9,2,0.9s1.5-0.3,2-1c0.6-0.6,0.9-1.7,0.9-3.1v-35.6h6.7V139c0,1.7-0.3,3.2-0.8,4.4
				c-0.5,1.3-1.2,2.3-2.1,3.1c-0.9,0.7-1.9,1.3-3,1.7C374.9,148.5,373.7,148.7,372.4,148.7z M363.5,103.3V139c0,1.5,0.2,2.9,0.7,4.1
				c0.5,1.2,1.1,2.1,1.9,2.8s1.8,1.2,2.8,1.6c2.1,0.7,4.8,0.7,6.8,0c1-0.3,2-0.9,2.8-1.5c0.8-0.7,1.5-1.6,1.9-2.8
				c0.5-1.2,0.7-2.6,0.7-4.1v-35.7H376v34.9c0,1.6-0.4,2.8-1,3.6c-0.7,0.8-1.6,1.2-2.6,1.2s-1.9-0.4-2.6-1.2s-1-2-1-3.6v-34.9h-5.3
				V103.3z"/>
		</g>
		<g>
			<path class="st0" d="M390.9,147.5v-38.9h-5.5v-5.7h17v5.7h-5.5v38.9H390.9z"/>
			<path class="st0" d="M397.2,147.9h-6.7V109H385v-6.4h17.7v6.4h-5.5V147.9z M391.3,147.1h5.2v-38.9h5.5v-4.9h-16.2v4.9h5.5V147.1z
				"/>
		</g>
		<g>
			<path class="st0" d="M406.3,147.5v-44.6h10c2.4,0,4.4,0.8,5.9,2.3s2.2,3.9,2.2,7v25.9c0,3.2-0.7,5.5-2.2,7s-3.4,2.3-5.9,2.3
				L406.3,147.5L406.3,147.5z M418.5,113c0-1.6-0.3-2.8-0.8-3.4c-0.5-0.7-1.3-1-2.5-1h-3v33.3h3c1.2,0,2-0.3,2.5-1s0.8-1.8,0.8-3.4
				V113z"/>
			<path class="st0" d="M416.3,147.9h-10.4v-45.3h10.4c2.5,0,4.6,0.8,6.1,2.4c1.6,1.6,2.3,4,2.3,7.3v25.9c0,3.3-0.8,5.7-2.3,7.3
				S418.8,147.9,416.3,147.9z M406.7,147.1h9.6c2.3,0,4.2-0.7,5.6-2.2c1.4-1.4,2.1-3.7,2.1-6.8v-25.9c0-3.1-0.7-5.3-2.1-6.8
				c-1.4-1.4-3.3-2.2-5.6-2.2h-9.6V147.1z M415.2,142.2h-3.3v-34h3.3c1.3,0,2.2,0.4,2.8,1.2c0.6,0.7,0.8,1.9,0.8,3.7v24.4
				c0,1.7-0.3,2.9-0.8,3.6C417.4,141.8,416.5,142.2,415.2,142.2z M412.6,141.5h2.6c1,0,1.8-0.3,2.2-0.8c0.5-0.6,0.7-1.7,0.7-3.2V113
				c0-1.5-0.2-2.6-0.7-3.2c-0.4-0.6-1.2-0.9-2.2-0.9h-2.6V141.5z"/>
		</g>
		<g>
			<path class="st0" d="M429.6,111.5c0-3.1,0.9-5.5,2.6-7s4.1-2.3,6.9-2.3c5.9,0,8.8,3.1,8.8,9.3V139c0,1.6-0.2,3.1-0.7,4.3
				s-1.2,2.2-2,2.9c-0.9,0.7-1.8,1.3-2.9,1.6c-1.1,0.4-2.2,0.5-3.5,0.5s-2.4-0.2-3.5-0.5c-1.1-0.4-2.1-0.9-2.9-1.6
				c-0.9-0.7-1.5-1.7-2-2.9s-0.7-2.6-0.7-4.2L429.6,111.5L429.6,111.5z M442.1,112.3c0-1.5-0.3-2.6-1-3.4c-0.6-0.7-1.4-1.1-2.3-1.1
				s-1.7,0.4-2.3,1.1c-0.6,0.7-0.9,1.8-0.9,3.4v25.9c0,1.5,0.3,2.6,0.9,3.4c0.6,0.7,1.4,1.1,2.3,1.1s1.7-0.4,2.3-1.1
				c0.6-0.7,1-1.8,1-3.4V112.3z"/>
			<path class="st0" d="M438.9,148.7c-1.3,0-2.5-0.2-3.7-0.6c-1.1-0.4-2.2-0.9-3.1-1.7s-1.6-1.8-2.1-3.1s-0.8-2.7-0.8-4.4v-27.5
				c0-3.2,0.9-5.7,2.7-7.3c1.8-1.6,4.2-2.4,7.2-2.4c6.1,0,9.2,3.3,9.2,9.7V139c0,1.7-0.3,3.2-0.8,4.4c-0.5,1.3-1.2,2.3-2.1,3.1
				c-0.9,0.7-1.9,1.3-3,1.7C441.4,148.5,440.2,148.7,438.9,148.7z M439.2,102.6c-2.8,0-5,0.7-6.7,2.2s-2.5,3.7-2.5,6.7V139
				c0,1.5,0.2,2.9,0.7,4.1c0.5,1.2,1.1,2.1,1.9,2.8s1.8,1.2,2.8,1.6c2.1,0.7,4.8,0.7,6.8,0c1-0.3,2-0.9,2.8-1.5
				c0.8-0.7,1.5-1.6,1.9-2.8c0.5-1.2,0.7-2.6,0.7-4.1v-27.5C447.6,105.5,444.9,102.6,439.2,102.6z M438.8,143c-1,0-1.9-0.4-2.6-1.2
				s-1-2-1-3.6v-25.9c0-1.6,0.3-2.8,1-3.6c0.7-0.8,1.6-1.2,2.6-1.2s1.9,0.4,2.6,1.2c0.7,0.8,1,2,1,3.6v25.9c0,1.6-0.4,2.8-1,3.6
				C440.7,142.6,439.8,143,438.8,143z M438.8,108.2c-0.8,0-1.5,0.3-2,1c-0.6,0.6-0.8,1.7-0.8,3.1v25.9c0,1.4,0.3,2.5,0.8,3.1
				c0.6,0.6,1.2,0.9,2,0.9s1.5-0.3,2-1c0.6-0.6,0.9-1.7,0.9-3.1v-25.9c0-1.4-0.3-2.5-0.9-3.1C440.3,108.5,439.6,108.2,438.8,108.2z"
				/>
		</g>
		<g>
			<path class="st0" d="M453.2,111.5c0-3.1,0.9-5.5,2.6-7s4.1-2.3,6.9-2.3c5.9,0,8.8,3.1,8.8,9.3V139c0,1.6-0.2,3.1-0.7,4.3
				s-1.2,2.2-2,2.9c-0.9,0.7-1.8,1.3-2.9,1.6c-1.1,0.4-2.2,0.5-3.5,0.5s-2.4-0.2-3.5-0.5c-1.1-0.4-2.1-0.9-2.9-1.6
				c-0.9-0.7-1.5-1.7-2-2.9s-0.7-2.6-0.7-4.2L453.2,111.5L453.2,111.5z M465.7,112.3c0-1.5-0.3-2.6-1-3.4c-0.6-0.7-1.4-1.1-2.3-1.1
				s-1.7,0.4-2.3,1.1c-0.6,0.7-0.9,1.8-0.9,3.4v25.9c0,1.5,0.3,2.6,0.9,3.4c0.6,0.7,1.4,1.1,2.3,1.1s1.7-0.4,2.3-1.1
				c0.6-0.7,1-1.8,1-3.4V112.3z"/>
			<path class="st0" d="M462.5,148.7c-1.3,0-2.5-0.2-3.7-0.6c-1.1-0.4-2.2-0.9-3.1-1.7s-1.6-1.8-2.1-3.1s-0.8-2.7-0.8-4.4v-27.5
				c0-3.2,0.9-5.7,2.7-7.3c1.8-1.6,4.2-2.4,7.2-2.4c6.1,0,9.2,3.3,9.2,9.7V139c0,1.7-0.3,3.2-0.8,4.4c-0.5,1.3-1.2,2.3-2.1,3.1
				c-0.9,0.7-1.9,1.3-3,1.7C465,148.5,463.8,148.7,462.5,148.7z M462.8,102.6c-2.8,0-5,0.7-6.7,2.2s-2.5,3.7-2.5,6.7V139
				c0,1.5,0.2,2.9,0.7,4.1c0.5,1.2,1.1,2.1,1.9,2.8s1.8,1.2,2.8,1.6c2.1,0.7,4.8,0.7,6.8,0c1-0.3,2-0.9,2.8-1.5
				c0.8-0.7,1.5-1.6,1.9-2.8c0.5-1.2,0.7-2.6,0.7-4.1v-27.5C471.2,105.5,468.5,102.6,462.8,102.6z M462.4,143c-1,0-1.9-0.4-2.6-1.2
				s-1-2-1-3.6v-25.9c0-1.6,0.3-2.8,1-3.6c0.7-0.8,1.6-1.2,2.6-1.2s1.9,0.4,2.6,1.2c0.7,0.8,1,2,1,3.6v25.9c0,1.6-0.4,2.8-1,3.6
				C464.3,142.6,463.4,143,462.4,143z M462.4,108.2c-0.8,0-1.5,0.3-2,1c-0.6,0.6-0.8,1.7-0.8,3.1v25.9c0,1.4,0.3,2.5,0.8,3.1
				c0.6,0.6,1.2,0.9,2,0.9s1.5-0.3,2-1c0.6-0.6,0.9-1.7,0.9-3.1v-25.9c0-1.4-0.3-2.5-0.9-3.1C463.9,108.5,463.2,108.2,462.4,108.2z"
				/>
		</g>
		<g>
			<path class="st0" d="M490.5,147.5l-5.1-18.3h-2.3v18.3h-5.9v-44.6h9.9c2.4,0,4.4,0.8,5.9,2.3s2.3,3.9,2.3,7v7.2
				c0,2.3-0.3,4.1-1,5.5c-0.6,1.3-1.8,2.3-3.4,3l5.5,19.6H490.5z M489.3,113c0-1.6-0.3-2.8-0.8-3.4c-0.5-0.7-1.3-1-2.5-1h-3v14.9h3
				c1.2,0,2-0.3,2.5-1s0.8-1.8,0.8-3.4V113z"/>
			<path class="st0" d="M496.9,147.9h-6.7l-5.1-18.3h-1.6v18.3h-6.7v-45.3H487c2.5,0,4.6,0.8,6.2,2.4s2.4,4,2.4,7.3v7.2
				c0,2.4-0.3,4.3-1,5.6c-0.6,1.3-1.7,2.4-3.2,3.1L496.9,147.9z M490.7,147.1h5.2l-5.4-19.4l0.3-0.1c1.5-0.6,2.6-1.6,3.2-2.8
				c0.6-1.3,0.9-3.1,0.9-5.3v-7.2c0-3-0.7-5.3-2.2-6.8c-1.4-1.4-3.3-2.2-5.7-2.2h-9.5v43.8h5.2v-18.3h2.9L490.7,147.1z M486,123.9
				h-3.3v-15.7h3.3c1.3,0,2.2,0.4,2.8,1.2c0.6,0.7,0.8,1.9,0.8,3.7v6.1c0,1.7-0.3,2.9-0.8,3.6C488.2,123.5,487.3,123.9,486,123.9z
				 M483.4,123.2h2.6c1,0,1.8-0.3,2.2-0.8c0.5-0.6,0.7-1.7,0.7-3.2V113c0-1.5-0.2-2.6-0.7-3.2c-0.4-0.6-1.2-0.9-2.2-0.9h-2.6V123.2z
				"/>
		</g>
		<g>
			<path class="st0" d="M517.8,139c0,3.1-0.8,5.4-2.5,7c-1.6,1.6-3.9,2.3-6.7,2.3c-2.8,0-5-0.8-6.7-2.4c-1.7-1.6-2.5-3.9-2.5-7v-6.3
				h5.9v5.6c0,1.5,0.3,2.6,1,3.4c0.6,0.7,1.4,1.1,2.3,1.1s1.7-0.4,2.3-1.1c0.6-0.7,1-1.8,1-3.4v-3.7c0-0.7-0.2-1.4-0.7-2.1
				c-0.5-0.7-1.1-1.4-1.8-2.1c-0.7-0.7-1.5-1.4-2.4-2.1c-0.9-0.7-1.8-1.5-2.7-2.3c-0.9-0.8-1.7-1.7-2.4-2.5c-0.7-0.9-1.3-1.9-1.8-3
				s-0.7-2.2-0.7-3.4v-5.6c0-2.1,0.4-3.9,1.3-5.3s2-2.5,3.3-3.1s2.9-0.9,4.6-0.9c3,0,5.3,0.7,6.8,2.2c1.6,1.5,2.3,3.8,2.3,7.1v7
				h-5.9v-6.2c0-1.5-0.3-2.6-1-3.4c-0.6-0.7-1.4-1.1-2.3-1.1s-1.7,0.4-2.3,1.1c-0.6,0.7-1,1.8-1,3.4v3.7c0,0.9,0.2,1.8,0.7,2.6
				c0.5,0.9,1.1,1.6,1.8,2.3c0.7,0.7,1.5,1.4,2.4,2.1s1.8,1.4,2.6,2.1c0.9,0.7,1.7,1.5,2.4,2.3s1.3,1.7,1.8,2.7s0.7,2.1,0.7,3.2v5.8
				H517.8z"/>
			<path class="st0" d="M508.6,148.7c-2.9,0-5.2-0.8-7-2.5c-1.7-1.6-2.6-4.1-2.6-7.2v-6.7h6.7v5.9c0,1.4,0.3,2.5,0.9,3.1s1.2,1,2,1
				s1.5-0.3,2-1c0.6-0.6,0.9-1.7,0.9-3.1v-3.7c0-0.6-0.2-1.2-0.6-1.9s-1-1.4-1.7-2c-0.7-0.7-1.5-1.4-2.4-2.1
				c-0.9-0.7-1.8-1.5-2.7-2.3c-0.9-0.8-1.7-1.7-2.5-2.6s-1.4-1.9-1.9-3.1c-0.5-1.1-0.7-2.3-0.7-3.5v-5.6c0-2.2,0.5-4,1.3-5.5
				c0.9-1.5,2.1-2.6,3.5-3.2s3-1,4.8-1c3.1,0,5.5,0.8,7.1,2.3s2.5,4,2.5,7.3v7.4h-6.7v-6.6c0-1.4-0.3-2.5-0.9-3.1s-1.2-1-2-1
				s-1.5,0.3-2,1c-0.6,0.6-0.9,1.7-0.9,3.1v3.7c0,0.8,0.2,1.7,0.6,2.5s1,1.6,1.7,2.2c0.7,0.7,1.5,1.4,2.4,2.1s1.8,1.4,2.7,2.1
				s1.7,1.5,2.5,2.3s1.4,1.7,1.9,2.8c0.5,1.1,0.7,2.2,0.7,3.4v5.7c0,3.2-0.9,5.6-2.6,7.3C513.9,147.8,511.5,148.7,508.6,148.7z
				 M499.8,133v6c0,2.9,0.8,5.2,2.4,6.7s3.8,2.3,6.4,2.3c2.7,0,4.9-0.7,6.4-2.2c1.6-1.5,2.4-3.7,2.4-6.7v-5.7c0-1.1-0.2-2.1-0.6-3.1
				c-0.4-1-1-1.9-1.7-2.6c-0.7-0.8-1.5-1.5-2.4-2.2c-0.9-0.7-1.8-1.4-2.6-2.1c-0.9-0.7-1.7-1.4-2.5-2.1s-1.4-1.5-1.9-2.4
				s-0.7-1.8-0.7-2.8v-3.7c0-1.6,0.4-2.8,1-3.6c0.7-0.8,1.6-1.2,2.6-1.2s1.9,0.4,2.6,1.2c0.7,0.8,1,2,1,3.6v5.8h5.2v-6.6
				c0-3.1-0.7-5.4-2.2-6.8s-3.7-2.1-6.6-2.1c-1.7,0-3.2,0.3-4.4,0.9c-1.3,0.6-2.3,1.6-3.1,2.9c-0.8,1.4-1.2,3.1-1.2,5.1v5.6
				c0,1.1,0.2,2.2,0.7,3.2c0.4,1.1,1,2,1.7,2.9s1.5,1.7,2.4,2.5s1.8,1.6,2.6,2.3c0.9,0.7,1.7,1.4,2.4,2.1c0.8,0.7,1.4,1.4,1.9,2.2
				c0.5,0.8,0.7,1.5,0.7,2.3v3.7c0,1.6-0.4,2.8-1,3.6c-0.7,0.8-1.6,1.2-2.6,1.2s-1.9-0.4-2.6-1.2s-1-2-1-3.6V133H499.8z"/>
		</g>
	</g>
</g>
</svg>
