<?xml version="1.0" encoding="utf-8"?>
<!-- Generator: Adobe Illustrator 24.3.0, SVG Export Plug-In . SVG Version: 6.00 Build 0)  -->
<svg version="1.1" id="Layer_1" xmlns="http://www.w3.org/2000/svg" xmlns:xlink="http://www.w3.org/1999/xlink" x="0px" y="0px"
	 viewBox="0 0 60.1 12" style="enable-background:new 0 0 60.1 12;" xml:space="preserve">
<style type="text/css">
	.st0{fill:#FFFFFF;}
</style>
<g>
	<path class="st0" d="M3.2,9.2l-1.2,2.6H0L5.1,0.3h2.1l5.1,11.6h-2.1L9,9.2H3.2z M8.2,7.4L6.1,2.7L4,7.4H8.2z"/>
	<path class="st0" d="M19,11.9h-5.1V0.3h4.5c0.8,0,1.5,0.1,2,0.3c0.6,0.2,1,0.4,1.3,0.8c0.5,0.6,0.8,1.3,0.8,2c0,0.9-0.3,1.6-0.9,2
		c-0.2,0.2-0.4,0.3-0.4,0.3c-0.1,0-0.2,0.1-0.4,0.2c0.7,0.2,1.3,0.5,1.7,1c0.4,0.5,0.6,1.1,0.6,1.8c0,0.8-0.3,1.5-0.8,2.1
		C21.7,11.5,20.5,11.9,19,11.9z M15.9,5.1h2.5c1.4,0,2.1-0.5,2.1-1.4c0-0.6-0.2-0.9-0.5-1.2c-0.3-0.2-0.9-0.4-1.6-0.4h-2.5V5.1z
		 M15.9,10.1h3.1c0.7,0,1.3-0.1,1.6-0.3c0.4-0.2,0.6-0.7,0.6-1.3c0-1-0.8-1.5-2.5-1.5h-2.8V10.1z"/>
	<path class="st0" d="M35.3,10.3c-1.2,1.1-2.6,1.7-4.3,1.7c-1.7,0-3.2-0.6-4.3-1.7S24.8,7.7,24.8,6c0-1.7,0.6-3.1,1.8-4.3
		S29.2,0,30.9,0c1.7,0,3.2,0.6,4.3,1.7S37,4.3,37,6C37,7.7,36.5,9.1,35.3,10.3z M33.9,3c-0.8-0.8-1.8-1.2-2.9-1.2
		c-1.1,0-2.1,0.4-2.9,1.2c-0.8,0.8-1.2,1.8-1.2,3s0.4,2.2,1.2,3c0.8,0.8,1.8,1.2,2.9,1.2c1.1,0,2.1-0.4,2.9-1.2
		C34.6,8.1,35,7.2,35,6S34.6,3.8,33.9,3z"/>
	<path class="st0" d="M42.1,9.2c0.5,0.6,1.2,0.9,2.2,0.9s1.6-0.3,2.2-0.9s0.8-1.5,0.8-2.5V0.3h2v6.5c0,1.7-0.5,3-1.4,3.9
		c-0.9,0.9-2.1,1.4-3.5,1.4s-2.6-0.4-3.5-1.4c-0.9-0.9-1.4-2.2-1.4-3.9V0.3h2v6.4C41.3,7.8,41.6,8.6,42.1,9.2z"/>
	<path class="st0" d="M56.6,2.1v9.8h-2V2.1h-3.5V0.3h9v1.8H56.6z"/>
</g>
</svg>
