<?xml version="1.0" encoding="utf-8"?>
<!-- Generator: Adobe Illustrator 24.3.0, SVG Export Plug-In . SVG Version: 6.00 Build 0)  -->
<svg version="1.1" id="layer" xmlns="http://www.w3.org/2000/svg" xmlns:xlink="http://www.w3.org/1999/xlink" x="0px" y="0px"
	 viewBox="0 0 454.4 249.6" style="enable-background:new 0 0 454.4 249.6;" xml:space="preserve">
<style type="text/css">
	.st0{fill:#FFFFFF;}
	.st1{fill:none;stroke:#000000;stroke-miterlimit:10;}
</style>
<g>
	<g>
		<g>
			<path class="st0" d="M54.3,82c13.8-9.8,30.3-6.4,38.4,2.6c0,0,0.3-0.3,0.7-0.6c-0.3,0.3-0.6,0.6-0.6,0.6
				c6.2,6.5,7.2,14.2,8.2,23.1c0.5,4.3,1,8.6,2.1,13.4c3,11.8,11,21.6,17.3,25.2c6.2,3.8,23.9,9.6,36,1.9c4.9-3.3,7.2-8.6,5.9-14
				c-0.9-4.7-4-8.8-8-10.4c-2.6-1.3-5.5-1.6-8.4-1.9c-4.1-0.5-8.1-0.9-10.9-4c-2.3-2.4-3-6-1.8-9.1c1.9-5.5,6.3-6.4,15.8-6.3
				c15,0.6,20.9,4.3,27.8,12l2.1,3.4c0.9,2.6,1.2,3.4,2.1,3.2c0.7-0.1,0.8-0.5,0.8-1.8c0-0.4,0-0.9-0.1-1.5l-0.1-3.5v-11.7
				c1.5,0,21.1,0,22.7,0v69.1h-22.6c0-1.2,0-4.3,0-4.3v-14.1h-0.9c-0.6,0-0.9,0.5-1.3,1.3l-0.3,0.4c-14.7,19-32.3,18.6-53.7,16.2
				c-14-3.1-25.3-12.2-31.1-19.6c-10-14.4-10.8-24.7-11.2-29.2l-0.8-7.2c-0.5-5.1-0.8-8.8-3.1-12.9c-2.7-3.1-5.8-4-9.8-3.1
				c-4.8,1.3-7.8,4.8-8.6,18.1H39.5C40.6,95.8,46.2,87.5,54.3,82"/>
		</g>
	</g>
	<g>
		<g>
			<path class="st0" d="M120.5,139.4c-11.9-10.3-16.6-26.7-11.5-40c3.3-8.5,13.6-22.6,45.4-21.5c0,0,43.4,0.1,49.8,0.1
				c0,1.5,0,16.4,0,16.4s0,2.2,0,3.3c-1.7,0-62.6,0-62.6,0c-8.2,0.7-10.9,3.6-12.7,6.7c-1.4,2.3-2,4.9-2,7.3c0,3,0.9,5.8,2.1,8
				c2.8,3.6,4.4,4.7,8.2,5.9l5.6,0.9c5.1,0.7,10.1,1.3,12.6,6.1c0.5,1,1,2.5,1,4.3c0,0.5-0.1,1-0.1,1.6c-0.5,2.2-2,4.9-4.7,6.1
				c-2.1,0.9-6,1.7-11,1.7C133.3,145.7,128.5,144.6,120.5,139.4"/>
		</g>
	</g>
	<g>
		<g>
			<path class="st0" d="M78.9,122.6c0.8,9.6,3.2,16.4,5.6,21.8c-2.6,0-33.6,0-33.6,0c-1.3,0.1-2,0.8-2.2,1.9
				c-0.1,0.2-0.1,0.4-0.1,0.5c0,0.6,0.3,1.2,0.6,1.6c1.3,1.3,1.9,1.3,3.1,1.4h0.5c0.1,0,32,0,34.4,0c7,10.7,13.6,16.7,23.5,21.6
				c-6.1,0-52.1,0.1-52.1,0.1c-11.1-0.2-16.1-1.5-22.5-5.6c-6.3-4.3-9.4-10.4-9.8-19.4c0-8.4,2.7-14.2,9-19.4
				c3.5-2.7,7.2-4.1,12-4.4C47.4,122.8,75.1,122.6,78.9,122.6"/>
		</g>
	</g>
	<g>
		<g>
			<path class="st0" d="M105.9,80.4c0.9,0,1.7-0.1,1.7-1.1c0-0.9-0.7-1-1.5-1h-1.4v2.1 M104.7,84.1h-1v-6.8h2.5
				c1.6,0,2.4,0.6,2.4,1.9c0,1.2-0.7,1.7-1.7,1.9l1.9,3h-1.1l-1.8-2.9h-1.2C104.7,81.3,104.7,84.1,104.7,84.1z M105.9,85.7
				c2.7,0,4.7-2.1,4.7-4.9c0-2.7-2.1-4.9-4.7-4.9c-2.7,0-4.8,2.1-4.8,4.9S103.3,85.7,105.9,85.7 M100,80.8c0-3.3,2.7-5.9,5.9-5.9
				c3.2,0,5.9,2.5,5.9,5.9s-2.7,5.9-5.9,5.9C102.7,86.6,100,84.1,100,80.8"/>
		</g>
	</g>
	<g>
		<g>
			<path class="st0" d="M267.3,99.3h-2.5l9.3-21.3h2.1l9.3,21.3H283l-2.3-5.6h-10.9L267.3,99.3z M270.6,91.8h9.2l-4.6-11.2
				L270.6,91.8z"/>
		</g>
		<g>
			<path class="st0" d="M285.5,99.8H283c-0.2,0-0.4-0.1-0.5-0.3l-2.2-5.3h-10.2l-2.3,5.3c-0.1,0.2-0.3,0.3-0.5,0.3h-2.5
				c-0.2,0-0.3-0.1-0.4-0.2s-0.1-0.3,0-0.5l9.3-21.3c0.1-0.2,0.3-0.3,0.5-0.3h2.1c0.2,0,0.4,0.1,0.5,0.3l9.3,21.3
				c0.1,0.2,0.1,0.3,0,0.5C285.9,99.7,285.7,99.8,285.5,99.8z M283.3,98.8h1.4l-8.9-20.3h-1.5l-8.9,20.3h1.4l2.3-5.3
				c0.1-0.2,0.3-0.3,0.5-0.3h10.9c0.2,0,0.4,0.1,0.5,0.3L283.3,98.8z M279.8,92.3h-9.2c-0.2,0-0.3-0.1-0.4-0.2s-0.1-0.3,0-0.5
				l4.6-11.2c0.2-0.4,0.8-0.4,0.9,0l4.6,11.2c0.1,0.2,0,0.3,0,0.5C280.1,92.2,279.9,92.3,279.8,92.3z M271.3,91.3h7.7l-3.9-9.4
				L271.3,91.3z"/>
		</g>
	</g>
	<g>
		<g>
			<path class="st0" d="M303,99.3h-2V97h-0.1c-1.3,1.9-3.6,2.7-5.5,2.7c-4.4,0-7.5-3.1-7.5-7.4s3.1-7.4,7.5-7.4
				c1.9,0,4.2,0.8,5.5,2.7h0.1v-11h2V99.3z M295.4,97.9c3.3,0,5.6-2.5,5.6-5.6s-2.4-5.6-5.6-5.6c-3.3,0-5.3,2.4-5.3,5.6
				C290.1,95.4,292.1,97.9,295.4,97.9"/>
		</g>
		<g>
			<path class="st0" d="M295.4,100.1c-4.6,0-8-3.3-8-7.9s3.4-7.9,8-7.9c1.6,0,3.6,0.5,5,1.9v-9.7c0-0.3,0.2-0.5,0.5-0.5h2
				c0.3,0,0.5,0.2,0.5,0.5v22.8c0,0.3-0.2,0.5-0.5,0.5h-2c-0.3,0-0.5-0.2-0.5-0.5v-1.1C299,99.6,296.9,100.1,295.4,100.1z
				 M295.4,85.3c-4.1,0-7,2.8-7,6.9s2.9,6.9,7,6.9c1.6,0,3.8-0.6,5.1-2.5c0.2-0.4,1-0.2,1,0.3v1.8h1V77h-1v10.5
				c0,0.3-0.2,0.5-0.5,0.5c-0.2,0-0.4-0.1-0.5-0.2C299.3,86,297,85.3,295.4,85.3z M295.4,98.4c-3.4,0-5.8-2.6-5.8-6.1
				c0-3.6,2.4-6.1,5.8-6.1s6.1,2.7,6.1,6.1C301.5,95.8,298.9,98.4,295.4,98.4z M295.4,87.2c-2.9,0-4.8,2.1-4.8,5.1s2,5.1,4.8,5.1
				c2.9,0,5.1-2.2,5.1-5.1S298.3,87.2,295.4,87.2z"/>
		</g>
	</g>
	<g>
		<g>
			<polygon class="st0" points="314.7,99.3 312.5,99.3 306.8,85.2 309.1,85.2 313.6,97.1 313.7,97.1 318.2,85.2 320.4,85.2 			"/>
		</g>
		<g>
			<path class="st0" d="M314.7,99.8h-2.3c-0.2,0-0.4-0.1-0.5-0.3l-5.7-14.1c-0.1-0.2,0-0.3,0-0.5c0.1-0.1,0.2-0.2,0.4-0.2h2.3
				c0.2,0,0.4,0.1,0.5,0.3l4,10.8l4.1-10.8c0.1-0.2,0.3-0.3,0.5-0.3h2.2c0.2,0,0.3,0.1,0.4,0.2s0.1,0.3,0,0.5l-5.7,14.1
				C315.1,99.7,314.9,99.8,314.7,99.8z M312.8,98.8h1.6l5.3-13.1h-1.1l-4.4,11.6c-0.1,0.2-0.3,0.3-0.5,0.3s-0.5-0.1-0.5-0.3
				l-4.4-11.6h-1.3L312.8,98.8z"/>
		</g>
	</g>
	<g>
		<g>
			<path class="st0" d="M325.6,92.8c0.3,2.8,2.4,5.1,5.1,5.1c2.1,0,3.7-1.2,4.5-2.5l1.5,1.3c-1.7,2.1-3.7,3-6.1,3
				c-4.2,0-7.3-3.1-7.3-7.4s3.1-7.4,7.1-7.4c4.3,0,6.8,3.2,6.8,7.1v0.9L325.6,92.8L325.6,92.8z M335.2,91.2c0-2.7-1.7-4.5-4.6-4.5
				c-2.6,0-4.9,2.2-4.9,4.5H335.2z"/>
		</g>
		<g>
			<path class="st0" d="M330.8,100.2c-4.5,0-7.8-3.3-7.8-7.9c0-4.5,3.3-7.9,7.6-7.9c4.3,0,7.3,3.1,7.3,7.6v0.9
				c0,0.3-0.2,0.5-0.5,0.5h-11.1c0.5,2.4,2.3,4.1,4.6,4.1c2,0,3.4-1.2,4.1-2.2c0.1-0.1,0.2-0.2,0.3-0.2c0.1,0,0.3,0,0.4,0.1l1.5,1.3
				c0.2,0.2,0.2,0.5,0.1,0.7C335.6,99.1,333.4,100.2,330.8,100.2z M330.6,85.4c-3.8,0-6.6,3-6.6,6.9c0,4,2.9,6.9,6.8,6.9
				c2.2,0,4-0.8,5.4-2.4l-0.7-0.6c-0.9,1.2-2.5,2.2-4.6,2.2c-2.9,0-5.3-2.4-5.6-5.5c0-0.1,0-0.3,0.1-0.4s0.2-0.2,0.4-0.2H337V92
				C336.8,88.7,334.9,85.4,330.6,85.4z M335.2,91.7h-9.6c-0.3,0-0.5-0.2-0.5-0.5c0-2.6,2.6-5,5.4-5c3.1,0,5.1,2,5.1,5
				C335.7,91.5,335.5,91.7,335.2,91.7z M326.2,90.7h8.5c-0.2-2.2-1.7-3.5-4.1-3.5C328.5,87.2,326.5,88.8,326.2,90.7z"/>
		</g>
	</g>
	<g>
		<g>
			<path class="st0" d="M342.4,89.6c0-1.3-0.1-2.3-0.1-4.4h1.9v2.6h0.1c0.6-1.5,2.1-3,4.5-3c0.5,0,1.1,0.1,1.5,0.2l-0.4,1.9
				c-0.3-0.1-0.6-0.1-1.1-0.1c-3,0-4.3,2.6-4.3,4.5v8h-2L342.4,89.6L342.4,89.6z"/>
		</g>
		<g>
			<path class="st0" d="M344.4,99.8h-2c-0.3,0-0.5-0.2-0.5-0.5v-9.7c0-0.8,0-1.6-0.1-2.6c0-0.5,0-1.1-0.1-1.8c0-0.1,0-0.3,0.1-0.4
				s0.2-0.2,0.4-0.2h1.9c0.3,0,0.5,0.2,0.5,0.5V86c0.8-0.9,2.1-1.8,4.1-1.8c0.6,0,1.2,0.1,1.6,0.2c0.2,0.1,0.4,0.3,0.3,0.6l-0.4,1.9
				c0,0.1-0.1,0.2-0.2,0.3s-0.3,0.1-0.4,0.1c-0.2-0.1-0.5-0.1-1-0.1c-2.8,0-3.8,2.5-3.8,4v8C344.9,99.6,344.7,99.8,344.4,99.8z
				 M342.9,98.8h1v-7.5c0-2.4,1.7-5,4.8-5c0.3,0,0.5,0,0.7,0l0.2-1c-0.3,0-0.6-0.1-0.9-0.1c-2.8,0-3.8,2.1-4.1,2.7
				c-0.1,0.2-0.3,0.3-0.5,0.3c-0.3,0-0.6-0.2-0.6-0.5v-2.1h-0.9c0,0.5,0,0.9,0,1.3c0,1,0.1,1.8,0.1,2.6v9.3H342.9z"/>
		</g>
	</g>
	<g>
		<g>
			<path class="st0" d="M360.7,87h-4.1v8.3c0,2.1,0.8,2.5,2.1,2.5c0.7,0,1.5-0.2,2.1-0.5l0.1,1.9c-0.7,0.3-1.7,0.5-2.7,0.5
				c-1.5,0-3.5-0.7-3.5-3.7v-8.9h-3v-1.8h3v-3.9h2v3.9h4.1L360.7,87L360.7,87z"/>
		</g>
		<g>
			<path class="st0" d="M358.2,100.2c-1.2,0-4-0.4-4-4.2v-8.4h-2.5c-0.3,0-0.5-0.2-0.5-0.5v-1.8c0-0.3,0.2-0.5,0.5-0.5h2.5v-3.4
				c0-0.3,0.2-0.5,0.5-0.5h2c0.3,0,0.5,0.2,0.5,0.5v3.4h3.6c0.3,0,0.5,0.2,0.5,0.5V87c0,0.3-0.2,0.5-0.5,0.5h-3.6v7.8
				c0,1.9,0.6,2,1.6,2c0.6,0,1.3-0.2,1.8-0.5c0.2-0.1,0.3-0.1,0.5,0s0.2,0.2,0.3,0.4l0.1,1.9c0,0.2-0.1,0.4-0.3,0.5
				C360.2,100,359.2,100.2,358.2,100.2z M352.2,86.6h2.5c0.3,0,0.5,0.2,0.5,0.5V96c0,2.2,1,3.2,3,3.2c0.8,0,1.5-0.1,2.2-0.4V98
				c-0.5,0.2-1.1,0.3-1.6,0.3c-1.8,0-2.6-0.9-2.6-3V87c0-0.3,0.2-0.5,0.5-0.5h3.6v-0.7h-3.6c-0.3,0-0.5-0.2-0.5-0.5v-3.4h-1v3.4
				c0,0.3-0.2,0.5-0.5,0.5h-2.5V86.6z"/>
		</g>
	</g>
	<g>
		<g>
			<path class="st0" d="M366.1,81.3c-0.7,0-1.5-0.6-1.5-1.5s0.7-1.5,1.5-1.5s1.5,0.6,1.5,1.5C367.5,80.7,366.8,81.3,366.1,81.3
				 M367.1,99.3h-2V85.2h2V99.3z"/>
		</g>
		<g>
			<path class="st0" d="M367.1,99.8h-2c-0.3,0-0.5-0.2-0.5-0.5V85.2c0-0.3,0.2-0.5,0.5-0.5h2c0.3,0,0.5,0.2,0.5,0.5v14.1
				C367.6,99.6,367.3,99.8,367.1,99.8z M365.6,98.8h1V85.7h-1V98.8z M366.1,81.8c-0.9,0-2-0.8-2-2s1-2,2-2s2,0.8,2,2
				S367,81.8,366.1,81.8z M366.1,78.8c-0.5,0-1,0.4-1,1s0.5,1,1,1s1-0.4,1-1S366.5,78.8,366.1,78.8z"/>
		</g>
	</g>
	<g>
		<g>
			<path class="st0" d="M380.5,88.5c-0.6-1.1-1.6-1.9-3.1-1.9c-1.4,0-2.9,0.6-2.9,2.1c0,1.3,0.9,1.8,2.8,2.2l2,0.5
				c1.9,0.5,3.4,1.9,3.4,3.9c0,3.1-2.7,4.3-5.5,4.3c-2.1,0-4.1-0.7-5.4-2.7l1.7-1.2c0.8,1.3,2.1,2.1,3.7,2.1s3.3-0.7,3.3-2.3
				c0-1.4-1.2-1.9-2.7-2.3l-1.9-0.5c-0.9-0.3-3.6-1-3.6-3.7c0-2.9,2.5-4.3,5.2-4.3c1.9,0,3.8,0.7,4.7,2.5L380.5,88.5z"/>
		</g>
		<g>
			<path class="st0" d="M377.2,100.2c-2.6,0-4.5-1-5.8-3c-0.2-0.2-0.1-0.5,0.1-0.7l1.7-1.2c0.1-0.1,0.3-0.1,0.4-0.1s0.3,0.1,0.3,0.2
				c0.8,1.2,1.9,1.9,3.3,1.9s2.8-0.6,2.8-1.8c0-1-0.8-1.4-2.3-1.8l-1.9-0.5c-1-0.3-4-1.1-4-4.2c0-3.3,2.9-4.8,5.7-4.8
				c2.5,0,4.3,1,5.1,2.8c0.1,0.2,0,0.5-0.2,0.6l-1.7,1.1c-0.1,0.1-0.3,0.1-0.4,0.1s-0.3-0.1-0.3-0.3c-0.6-1.1-1.4-1.6-2.6-1.6
				c-0.2,0-2.4,0-2.4,1.6c0,0.8,0.3,1.3,2.4,1.7l2,0.5c2.3,0.6,3.8,2.3,3.8,4.4C383.2,98.9,380,100.2,377.2,100.2z M372.5,97.1
				c1.1,1.4,2.7,2.1,4.7,2.1c2.4,0,5-1,5-3.8c0-2-1.6-3-3-3.4l-2-0.5c-1.6-0.3-3.2-0.8-3.2-2.7c0-1.8,1.7-2.6,3.4-2.6
				c1.4,0,2.5,0.6,3.2,1.7l0.9-0.6c-0.9-1.5-2.7-1.9-4-1.9c-2.2,0-4.7,1-4.7,3.8c0,2,1.7,2.8,3.2,3.2l1.9,0.5
				c1.2,0.3,3.1,0.8,3.1,2.8s-2,2.8-3.8,2.8c-1.5,0-2.8-0.7-3.8-1.9L372.5,97.1z"/>
		</g>
	</g>
	<g>
		<g>
			<path class="st0" d="M388.5,81.3c-0.7,0-1.5-0.6-1.5-1.5s0.7-1.5,1.5-1.5s1.5,0.6,1.5,1.5C390,80.7,389.3,81.3,388.5,81.3
				 M389.5,99.3h-2V85.2h2V99.3z"/>
		</g>
		<g>
			<path class="st0" d="M389.5,99.8h-2c-0.3,0-0.5-0.2-0.5-0.5V85.2c0-0.3,0.2-0.5,0.5-0.5h2c0.3,0,0.5,0.2,0.5,0.5v14.1
				C390,99.6,389.8,99.8,389.5,99.8z M388,98.8h1V85.7h-1V98.8z M388.5,81.8c-0.9,0-2-0.8-2-2s1-2,2-2s2,0.8,2,2
				S389.5,81.8,388.5,81.8z M388.5,78.8c-0.5,0-1,0.4-1,1s0.5,1,1,1s1-0.4,1-1S389,78.8,388.5,78.8z"/>
		</g>
	</g>
	<g>
		<g>
			<path class="st0" d="M397.4,85.2c0.1,0.7,0.1,1.5,0.1,2.3h0.1c0.9-1.5,2.9-2.6,4.7-2.6c3.6,0,5.3,2,5.3,5.5v9h-2v-7.8
				c0-3.1-0.9-4.9-3.8-4.9c-0.4,0-4.3,0.3-4.3,5.4v7.2h-2v-11c0-0.7-0.1-2.1-0.1-3.1H397.4L397.4,85.2z"/>
		</g>
		<g>
			<path class="st0" d="M407.6,99.8h-2c-0.3,0-0.5-0.2-0.5-0.5v-7.8c0-3.2-0.9-4.4-3.3-4.4c-0.2,0-3.8,0.1-3.8,4.9v7.2
				c0,0.3-0.2,0.5-0.5,0.5h-2c-0.3,0-0.5-0.2-0.5-0.5v-11c0-0.7-0.1-2.1-0.1-3c0-0.1,0-0.3,0.1-0.4s0.2-0.2,0.4-0.2h2.1
				c0.3,0,0.5,0.2,0.5,0.5l-0.5,0.1h0.5c0,0.3,0,0.6,0.1,1c1.1-1.1,2.7-1.8,4.3-1.8c3.8,0,5.8,2.1,5.8,6v9
				C408.1,99.6,407.8,99.8,407.6,99.8z M406.1,98.8h1v-8.5c0-3.4-1.6-5-4.8-5c-1.7,0-3.5,1-4.3,2.4c-0.2,0.4-1,0.2-1-0.2
				c0-0.6,0-1.2,0-1.8h-1.1c0.1,0.9,0.1,2,0.1,2.6v10.5h1V92c0-5.8,4.7-5.9,4.8-5.9c3.8,0,4.3,2.9,4.3,5.4V98.8z"/>
		</g>
	</g>
	<g>
		<g>
			<path class="st0" d="M414.6,102.2c1.2,1.5,3.1,2.6,5.4,2.6c4,0,5.5-2.5,5.5-5.5v-2.5h-0.1c-1.3,1.9-3.2,2.7-5.3,2.7
				c-4.1,0-7.4-3.1-7.4-7.2s3-7.3,7.2-7.3c1.7,0,3.8,0.5,5.5,2.7h0.1v-2.3h2v13.8c0,3.1-1.2,7.4-7.6,7.4c-2.8,0-4.9-0.9-6.8-2.8
				L414.6,102.2z M420.1,97.5c2.9,0,5.5-2.1,5.3-5.4c0-2.9-2-5.4-5.3-5.4c-2.9,0-5.2,2.5-5.2,5.4S417.2,97.5,420.1,97.5"/>
		</g>
		<g>
			<path class="st0" d="M419.9,107c-3,0-5.2-0.9-7.1-3c-0.2-0.2-0.2-0.5,0-0.7l1.4-1.5c0.1-0.1,0.2-0.2,0.4-0.2
				c0.1,0,0.3,0.1,0.4,0.2c1.2,1.5,3,2.4,5,2.4c4.1,0,5-2.7,5-5V98c-1.2,1.2-2.9,1.9-4.8,1.9c-4.4,0-7.9-3.4-7.9-7.7
				c0-4.4,3.3-7.8,7.7-7.8c1.4,0,3.4,0.4,5,2v-1.1c0-0.3,0.2-0.5,0.5-0.5h2c0.3,0,0.5,0.2,0.5,0.5v13.8
				C428,102.1,426.9,107,419.9,107z M413.9,103.7c1.6,1.6,3.5,2.3,6.1,2.3c5.8,0,7.1-3.7,7.1-6.9V85.8h-1v1.8c0,0.3-0.2,0.5-0.5,0.5
				c-0.2,0-0.4-0.1-0.5-0.2c-1.3-1.7-3-2.5-5.1-2.5c-3.8,0-6.7,2.9-6.7,6.8c0,3.7,3,6.7,6.9,6.7c1.5,0,3.5-0.4,4.9-2.5
				c0.2-0.4,1-0.2,1,0.3v2.5c0,3.8-2.2,6-6,6c-2.1,0-4-0.8-5.4-2.4L413.9,103.7z M420.1,98c-3.1,0-5.7-2.7-5.7-5.9s2.6-5.9,5.7-5.9
				c3.4,0,5.8,2.5,5.8,5.9c0.1,1.6-0.5,3-1.5,4.1C423.4,97.3,421.8,98,420.1,98z M420.1,87.2c-2.6,0-4.7,2.2-4.7,4.9
				s2.1,4.9,4.7,4.9c1.4,0,2.7-0.5,3.6-1.5c0.9-0.9,1.3-2.1,1.2-3.4C425,89.2,423,87.2,420.1,87.2z"/>
		</g>
	</g>
	<g>
		<g>
			<path class="st0" d="M277.8,117.6c-0.9-1.4-2.3-2.1-4.1-2.1c-2.2,0-4.5,1.2-4.5,3.9c0,5.7,11,2.7,11,10.4c0,3.9-3.7,6.1-7,6.1
				c-2.6,0-5.1-0.9-6.8-3.1l1.9-1.4c0.9,1.5,2.6,2.6,4.8,2.6c2.1,0,4.6-1.4,4.6-3.9c0-6-11-2.7-11-10.5c0-4.1,3.4-6.1,6.9-6.1
				c2.4,0,4.3,0.7,6,2.6L277.8,117.6z"/>
		</g>
		<g>
			<path class="st0" d="M273.1,136.5c-3,0-5.5-1.2-7.1-3.3c-0.1-0.1-0.1-0.2-0.1-0.4c0-0.1,0.1-0.3,0.2-0.3l1.9-1.4
				c0.1-0.1,0.3-0.1,0.4-0.1s0.3,0.1,0.3,0.2c0.8,1.5,2.5,2.4,4.4,2.4c2,0,4.1-1.3,4.1-3.4c0-2.4-2.1-3.1-4.6-3.9
				c-3-1-6.4-2-6.4-6.6c0-4.5,3.7-6.6,7.4-6.6c2.8,0,4.7,0.9,6.4,2.8c0.1,0.1,0.1,0.2,0.1,0.4c0,0.1-0.1,0.3-0.2,0.3l-1.8,1.4
				c-0.1,0.1-0.3,0.1-0.4,0.1s-0.3-0.1-0.3-0.2c-0.8-1.2-2-1.8-3.7-1.8c-2,0-4,1-4,3.4c0,2.3,2.1,3,4.5,3.8c3,1,6.4,2.1,6.4,6.6
				C280.6,134,276.7,136.5,273.1,136.5z M267.1,133c1.8,2.1,4.3,2.5,6,2.5c3.1,0,6.5-2.2,6.5-5.6c0-3.8-2.8-4.7-5.7-5.7
				c-2.6-0.9-5.2-1.7-5.2-4.8c0-3,2.6-4.4,5-4.4c1.8,0,3.2,0.6,4.2,1.9l1-0.8c-1.4-1.4-3-2-5.3-2c-3.2,0-6.4,1.7-6.4,5.6
				c0,3.8,2.8,4.7,5.7,5.6c2.6,0.8,5.3,1.7,5.3,4.9c0,2.7-2.7,4.4-5.1,4.4c-2.1,0-3.9-0.9-4.9-2.4L267.1,133z"/>
		</g>
	</g>
	<g>
		<g>
			<path class="st0" d="M285,121.3h2v2.3h0.1c1.3-1.9,3.6-2.7,5.5-2.7c4.4,0,7.5,3.1,7.5,7.4c0,4.3-3.1,7.4-7.5,7.4
				c-1.9,0-4.2-0.8-5.5-2.7H287v11h-2V121.3L285,121.3z M292.5,122.8c-3.3,0-5.6,2.5-5.6,5.6s2.4,5.6,5.6,5.6c3.3,0,5.3-2.5,5.3-5.6
				C297.8,125.2,295.8,122.8,292.5,122.8"/>
		</g>
		<g>
			<path class="st0" d="M287,144.5h-2c-0.3,0-0.5-0.2-0.5-0.5v-22.7c0-0.3,0.2-0.5,0.5-0.5h2c0.3,0,0.5,0.2,0.5,0.5v1.1
				c1.5-1.4,3.6-2,5-2c4.6,0,8,3.3,8,7.9c0,4.6-3.4,7.9-8,7.9c-1.6,0-3.6-0.5-5-1.9v9.7C287.5,144.3,287.3,144.5,287,144.5z
				 M285.5,143.5h1V133c0-0.3,0.2-0.5,0.5-0.5c0.2,0,0.4,0.1,0.5,0.2c1.2,1.9,3.5,2.5,5.1,2.5c4.1,0,7-2.8,7-6.9
				c0-4.1-2.9-6.9-7-6.9c-1.7,0-3.9,0.8-5.1,2.5c-0.2,0.4-1,0.2-1-0.3v-1.8h-1V143.5z M292.5,134.5c-3.4,0-6.1-2.7-6.1-6.1
				c0-3.5,2.6-6.1,6.1-6.1s5.8,2.5,5.8,6.1C298.3,131.9,295.9,134.5,292.5,134.5z M292.5,123.3c-2.9,0-5.1,2.2-5.1,5.1
				c0,2.9,2.2,5.1,5.1,5.1s4.8-2.1,4.8-5.1C297.3,125.3,295.4,123.3,292.5,123.3z"/>
		</g>
	</g>
	<g>
		<g>
			<path class="st0" d="M306,128.9c0.3,2.8,2.4,5.1,5.1,5.1c2.1,0,3.7-1.2,4.5-2.5l1.5,1.3c-1.7,2.1-3.7,3-6.1,3
				c-4.2,0-7.3-3.1-7.3-7.4c0-4.3,3.1-7.4,7.1-7.4c4.3,0,6.8,3.2,6.8,7.1v0.9L306,128.9L306,128.9z M315.5,127.3
				c0-2.7-1.7-4.5-4.6-4.5c-2.6,0-4.9,2.2-4.9,4.5H315.5z"/>
		</g>
		<g>
			<path class="st0" d="M311.1,136.3c-4.5,0-7.8-3.3-7.8-7.9c0-4.5,3.3-7.9,7.6-7.9c4.3,0,7.3,3.1,7.3,7.6v0.9
				c0,0.3-0.2,0.5-0.5,0.5h-11.1c0.5,2.4,2.3,4.1,4.6,4.1c2,0,3.4-1.2,4.1-2.2c0.1-0.1,0.2-0.2,0.3-0.2c0.1,0,0.3,0,0.4,0.1l1.5,1.3
				c0.2,0.2,0.2,0.5,0.1,0.7C315.9,135.2,313.8,136.3,311.1,136.3z M310.9,121.5c-3.8,0-6.6,3-6.6,6.9c0,4,2.9,6.9,6.8,6.9
				c2.2,0,4-0.8,5.4-2.4l-0.7-0.6c-0.9,1.2-2.5,2.2-4.6,2.2c-2.9,0-5.3-2.4-5.6-5.5c0-0.1,0-0.3,0.1-0.4c0.1-0.1,0.2-0.2,0.4-0.2
				h11.2V128C317.2,124.8,315.2,121.5,310.9,121.5z M315.5,127.8H306c-0.3,0-0.5-0.2-0.5-0.5c0-2.6,2.6-5,5.4-5c3.1,0,5.1,2,5.1,5
				C316,127.6,315.8,127.8,315.5,127.8z M306.5,126.8h8.5c-0.2-2.2-1.7-3.5-4.1-3.5C308.8,123.3,306.8,124.9,306.5,126.8z"/>
		</g>
	</g>
	<g>
		<g>
			<path class="st0" d="M332.8,124.6c-0.7-1-1.9-1.9-3.5-1.9c-3.3-0.1-5.3,2.4-5.3,5.6c0,3.2,2,5.7,5.3,5.6c1.5,0,2.9-0.9,3.5-1.9
				l1.6,1.2c-1.4,1.6-3.3,2.4-5.1,2.5c-4.6,0.1-7.5-3.1-7.5-7.4s2.9-7.5,7.5-7.4c1.9,0,3.7,0.8,5.1,2.5L332.8,124.6z"/>
		</g>
		<g>
			<path class="st0" d="M329.2,136.3c-2.3,0-4.2-0.7-5.6-2.1c-1.5-1.4-2.3-3.5-2.3-5.8s0.8-4.4,2.3-5.8c1.4-1.4,3.4-2.2,5.7-2.1
				c2.1,0,4.1,0.9,5.5,2.7c0.1,0.1,0.1,0.2,0.1,0.4c0,0.1-0.1,0.3-0.2,0.3l-1.6,1.2c-0.1,0.1-0.2,0.1-0.4,0.1
				c-0.1,0-0.3-0.1-0.3-0.2c-0.5-0.8-1.6-1.6-3.1-1.6c-1.3,0-2.5,0.4-3.3,1.2c-0.9,0.9-1.5,2.3-1.5,3.9c0,1.6,0.5,3,1.5,3.9
				c0.8,0.8,2,1.2,3.3,1.2c1.4,0,2.6-0.8,3.1-1.6c0.1-0.1,0.2-0.2,0.3-0.2c0.1,0,0.3,0,0.4,0.1l1.6,1.2c0.1,0.1,0.2,0.2,0.2,0.3
				s0,0.3-0.1,0.4c-1.4,1.6-3.4,2.6-5.5,2.6C329.3,136.3,329.2,136.3,329.2,136.3z M329.2,121.5c-2,0-3.7,0.6-4.9,1.8
				c-1.3,1.2-2,3-2,5.1c0,2,0.7,3.8,2,5.1c1.3,1.2,3,1.9,5,1.8c1.7-0.1,3.2-0.7,4.4-1.9l-0.8-0.6c-0.9,1.1-2.4,1.7-3.8,1.7
				c-1.5,0-2.9-0.5-3.9-1.5c-1.1-1.1-1.8-2.8-1.8-4.6c0-1.9,0.6-3.5,1.8-4.6c1-1,2.4-1.5,4-1.5s2.9,0.8,3.6,1.7l0.8-0.6
				C332.5,122.1,330.9,121.4,329.2,121.5z"/>
		</g>
	</g>
	<g>
		<g>
			<path class="st0" d="M339.7,117.3c-0.7,0-1.5-0.6-1.5-1.5s0.7-1.5,1.5-1.5s1.5,0.6,1.5,1.5C341.1,116.7,340.5,117.3,339.7,117.3
				 M340.7,135.4h-2v-14.1h2V135.4z"/>
		</g>
		<g>
			<path class="st0" d="M340.7,135.9h-2c-0.3,0-0.5-0.2-0.5-0.5v-14.1c0-0.3,0.2-0.5,0.5-0.5h2c0.3,0,0.5,0.2,0.5,0.5v14.1
				C341.2,135.7,341,135.9,340.7,135.9z M339.2,134.9h1v-13.1h-1V134.9z M339.7,117.8c-0.9,0-2-0.8-2-2s1-2,2-2s2,0.8,2,2
				C341.6,117,340.8,117.8,339.7,117.8z M339.7,114.9c-0.5,0-1,0.4-1,1s0.5,1,1,1s0.9-0.4,1-1C340.7,115.3,340.2,114.9,339.7,114.9z
				"/>
		</g>
	</g>
	<g>
		<g>
			<path class="st0" d="M355.8,126.8v-0.3c0-2.5-1.2-3.7-3.6-3.7c-1.7,0-3.1,0.5-4.3,1.7l-1.2-1.4c1.3-1.3,3.3-2.1,5.9-2.1
				c2.8,0,5.1,1.5,5.1,5v6.3c0,1.1,0.1,2.4,0.3,3.1h-2c-0.1-0.7-0.2-1.5-0.2-2.3h-0.1c-1.1,1.9-2.7,2.7-4.9,2.7
				c-2.5,0-4.9-1.4-4.9-4.1c0-4.6,5.4-4.9,8.8-4.9C354.7,126.8,355.8,126.8,355.8,126.8z M354.7,128.4c-2,0-6.5,0.1-6.5,3
				c0,1.9,1.7,2.6,3.3,2.6c2.9,0,4.3-2.1,4.3-4.5v-1L354.7,128.4L354.7,128.4z"/>
		</g>
		<g>
			<path class="st0" d="M350.8,136.3c-2.7,0-5.4-1.6-5.4-4.6c0-5.4,6.7-5.4,9.3-5.4h0.6c0-2.1-1-3-3.1-3c-1.6,0-2.9,0.5-4,1.5
				c-0.1,0.1-0.2,0.1-0.4,0.1c-0.1,0-0.3-0.1-0.4-0.2l-1.2-1.4c-0.2-0.2-0.2-0.5,0-0.7c1.4-1.5,3.6-2.2,6.3-2.2
				c3.5,0,5.6,2.1,5.6,5.5v6.3c0,1.1,0.1,2.4,0.3,3.1c0,0.1,0,0.3-0.1,0.4c-0.1,0.1-0.2,0.2-0.4,0.2H356c-0.2,0-0.4-0.2-0.5-0.4
				c-0.1-0.3-0.1-0.7-0.1-1C354.3,135.7,352.8,136.3,350.8,136.3z M354.7,127.3c-4.1,0-8.3,0.5-8.3,4.4c0,2.5,2.3,3.6,4.4,3.6
				s3.5-0.8,4.5-2.4c0.2-0.4,1-0.2,1,0.3c0,0.6,0,1.2,0.1,1.8h0.9c-0.1-0.8-0.2-1.8-0.2-2.6V126c0-2.8-1.7-4.5-4.6-4.5
				c-2.2,0-4.1,0.6-5.3,1.6l0.6,0.7c1.2-1,2.6-1.5,4.3-1.5c2.7,0,4.1,1.4,4.1,4.2v0.3c0,0.3-0.2,0.5-0.5,0.5
				C355.7,127.3,354.7,127.3,354.7,127.3z M351.5,134.5c-1.9,0-3.8-1-3.8-3.1c0-2.3,2.4-3.5,7-3.5c0.1,0,0.2,0,0.2,0.1h0.8
				c0.3,0,0.5,0.2,0.5,0.5v1C356.3,132.5,354.4,134.5,351.5,134.5z M354.5,128.9c-3.9,0-5.8,0.9-5.8,2.5s1.5,2.1,2.8,2.1
				c2.8,0,3.8-2.1,3.8-4V129h-0.6C354.6,128.9,354.5,128.9,354.5,128.9z"/>
		</g>
	</g>
	<g>
		<g>
			<rect x="364" y="112.6" class="st0" width="2" height="22.8"/>
		</g>
		<g>
			<path class="st0" d="M366,135.9h-2c-0.3,0-0.5-0.2-0.5-0.5v-22.8c0-0.3,0.2-0.5,0.5-0.5h2c0.3,0,0.5,0.2,0.5,0.5v22.8
				C366.5,135.7,366.3,135.9,366,135.9z M364.5,134.9h1v-21.8h-1V134.9z"/>
		</g>
	</g>
	<g>
		<g>
			<path class="st0" d="M379.3,123.1h-4.1v8.3c0,2.1,0.8,2.5,2.1,2.5c0.7,0,1.5-0.2,2.1-0.5l0.1,1.8c-0.7,0.3-1.7,0.5-2.7,0.5
				c-1.5,0-3.5-0.7-3.5-3.7v-8.9h-3v-1.8h3v-3.9h2v3.9h4.1L379.3,123.1L379.3,123.1z"/>
		</g>
		<g>
			<path class="st0" d="M376.8,136.2c-1.2,0-4-0.4-4-4.2v-8.4h-2.5c-0.3,0-0.5-0.2-0.5-0.5v-1.8c0-0.3,0.2-0.5,0.5-0.5h2.5v-3.4
				c0-0.3,0.2-0.5,0.5-0.5h2c0.3,0,0.5,0.2,0.5,0.5v3.4h3.6c0.3,0,0.5,0.2,0.5,0.5v1.8c0,0.3-0.2,0.5-0.5,0.5h-3.6v7.8
				c0,1.9,0.6,2,1.6,2c0.6,0,1.3-0.2,1.8-0.5c0.2-0.1,0.3-0.1,0.5,0s0.2,0.2,0.3,0.4l0.1,1.8c0,0.2-0.1,0.4-0.3,0.5
				C378.8,136,377.8,136.2,376.8,136.2z M370.8,122.6h2.5c0.3,0,0.5,0.2,0.5,0.5v8.9c0,2.2,1,3.2,3,3.2c0.8,0,1.5-0.1,2.2-0.4v-0.7
				c-0.5,0.2-1.1,0.3-1.6,0.3c-1.8,0-2.6-0.9-2.6-3v-8.3c0-0.3,0.2-0.5,0.5-0.5h3.6v-0.8h-3.6c-0.3,0-0.5-0.2-0.5-0.5v-3.4h-1v3.4
				c0,0.3-0.2,0.5-0.5,0.5h-2.5V122.6z"/>
		</g>
	</g>
	<g>
		<g>
			<path class="st0" d="M388.5,133l4.3-11.6h2.4l-7,17.7c-0.9,2.1-2,3.5-4.4,3.5c-0.6,0-1.2,0-1.9-0.2l0.2-1.9
				c0.5,0.3,0.9,0.3,1.5,0.3c1.4,0,2.1-0.9,2.7-2.5l1-2.7l-5.8-14.3h2.5L388.5,133z"/>
		</g>
		<g>
			<path class="st0" d="M383.7,143.1c-0.6,0-1.3,0-2-0.2c-0.2-0.1-0.4-0.3-0.4-0.5l0.2-1.9c0-0.2,0.1-0.3,0.3-0.4
				c0.2-0.1,0.3-0.1,0.5,0c0.3,0.2,0.7,0.3,1.3,0.3c1.1,0,1.7-0.6,2.2-2.2l0.9-2.6l-5.7-14.1c-0.1-0.2,0-0.3,0-0.5
				c0.1-0.1,0.2-0.2,0.4-0.2h2.5c0.2,0,0.4,0.1,0.5,0.3l4.1,10.5l3.8-10.4c0.1-0.2,0.3-0.3,0.5-0.3h2.4c0.2,0,0.3,0.1,0.4,0.2
				s0.1,0.3,0.1,0.5l-7,17.7C387.8,141.2,386.6,143.1,383.7,143.1z M382.4,142c0.4,0.1,0.9,0.1,1.3,0.1c1.9,0,3-0.9,3.9-3.2l6.7-17
				H393l-4.2,11.3c-0.1,0.2-0.3,0.3-0.5,0.3s-0.4-0.1-0.5-0.3l-4.4-11.4H382l5.5,13.6c0,0.1,0,0.2,0,0.4l-1,2.7
				c-0.4,1.3-1.2,2.9-3.1,2.9c-0.4,0-0.7,0-1.1-0.1L382.4,142z"/>
		</g>
	</g>
	<g>
		<g>
			<rect x="267.8" y="150.2" class="st0" width="2.1" height="21.3"/>
		</g>
		<g>
			<path class="st0" d="M269.9,172h-2.1c-0.3,0-0.5-0.2-0.5-0.5v-21.3c0-0.3,0.2-0.5,0.5-0.5h2.1c0.3,0,0.5,0.2,0.5,0.5v21.3
				C270.4,171.8,270.2,172,269.9,172z M268.3,171h1.1v-20.3h-1.1V171z"/>
		</g>
	</g>
	<g>
		<g>
			<path class="st0" d="M278.1,157.4c0.1,0.7,0.1,1.5,0.1,2.3h0.1c0.9-1.5,2.9-2.6,4.7-2.6c3.6,0,5.3,2,5.3,5.5v9h-2v-7.8
				c0-3.1-0.9-4.9-3.8-4.9c-0.4,0-4.3,0.3-4.3,5.4v7.2h-2v-11c0-0.7-0.1-2.1-0.1-3.1L278.1,157.4L278.1,157.4z"/>
		</g>
		<g>
			<path class="st0" d="M288.3,172h-2c-0.3,0-0.5-0.2-0.5-0.5v-7.8c0-3.2-0.9-4.4-3.3-4.4c-0.2,0-3.8,0.1-3.8,4.9v7.2
				c0,0.3-0.2,0.5-0.5,0.5h-2c-0.3,0-0.5-0.2-0.5-0.5v-11c0-0.7-0.1-2.1-0.1-3c0-0.1,0-0.3,0.1-0.4c0.1-0.1,0.2-0.2,0.4-0.2h2.1
				c0.3,0,0.5,0.2,0.5,0.5l-0.5,0.1h0.5c0,0.3,0,0.6,0.1,1c1.1-1.1,2.7-1.8,4.3-1.8c3.8,0,5.8,2.1,5.8,6v9
				C288.8,171.8,288.5,172,288.3,172z M286.8,171h1v-8.5c0-3.4-1.6-5-4.8-5c-1.7,0-3.5,1-4.3,2.4c-0.2,0.4-1,0.2-1-0.2
				c0-0.6,0-1.2,0-1.8h-1.1c0.1,0.9,0.1,2,0.1,2.6V171h1v-6.7c0-5.8,4.7-5.9,4.8-5.9c3.8,0,4.3,2.9,4.3,5.4V171z"/>
		</g>
	</g>
	<g>
		<g>
			<path class="st0" d="M301.6,160.7c-0.6-1.1-1.6-1.9-3.1-1.9c-1.4,0-2.9,0.6-2.9,2.1c0,1.3,0.9,1.8,2.7,2.2l2,0.5
				c1.9,0.5,3.4,1.9,3.4,3.9c0,3.1-2.7,4.3-5.5,4.3c-2.1,0-4.1-0.7-5.4-2.7l1.7-1.2c0.8,1.3,2.1,2.1,3.7,2.1s3.3-0.7,3.3-2.3
				c0-1.4-1.2-1.9-2.7-2.3L297,165c-0.9-0.3-3.6-1-3.6-3.7c0-2.9,2.5-4.3,5.2-4.3c1.9,0,3.8,0.7,4.7,2.5L301.6,160.7z"/>
		</g>
		<g>
			<path class="st0" d="M298.3,172.4c-2.6,0-4.5-1-5.8-3c-0.2-0.2-0.1-0.5,0.1-0.7l1.7-1.2c0.1-0.1,0.3-0.1,0.4-0.1s0.3,0.1,0.3,0.2
				c0.8,1.2,1.9,1.9,3.3,1.9s2.8-0.6,2.8-1.8c0-1-0.8-1.4-2.3-1.8l-1.9-0.5c-1-0.3-4-1.1-4-4.2c0-3.3,2.9-4.8,5.7-4.8
				c2.5,0,4.3,1,5.1,2.8c0.1,0.2,0,0.5-0.2,0.6l-1.7,1.1c-0.1,0.1-0.3,0.1-0.4,0.1s-0.3-0.1-0.3-0.3c-0.6-1.1-1.4-1.6-2.6-1.6
				c-0.2,0-2.4,0-2.4,1.6c0,0.8,0.3,1.3,2.3,1.7l2,0.5c2.3,0.6,3.8,2.3,3.8,4.4C304.3,171.1,301.1,172.4,298.3,172.4z M293.6,169.3
				c1.1,1.4,2.7,2.1,4.7,2.1c2.4,0,5-1,5-3.8c0-2-1.6-3-3-3.4l-2-0.5c-1.6-0.4-3.1-0.8-3.1-2.7c0-1.8,1.7-2.6,3.4-2.6
				c1.4,0,2.5,0.6,3.2,1.7l0.9-0.6c-0.9-1.5-2.7-1.9-4-1.9c-2.2,0-4.7,1-4.7,3.8c0,2,1.7,2.8,3.2,3.2l1.9,0.5
				c1.2,0.3,3.1,0.8,3.1,2.8s-2,2.8-3.8,2.8c-1.5,0-2.8-0.7-3.8-1.9L293.6,169.3z"/>
		</g>
	</g>
	<g>
		<g>
			<path class="st0" d="M315.5,159.2h-4.1v8.3c0,2.1,0.8,2.5,2.1,2.5c0.7,0,1.5-0.2,2.1-0.5l0.1,1.9c-0.7,0.3-1.7,0.5-2.7,0.5
				c-1.5,0-3.5-0.7-3.5-3.7v-8.9h-3v-1.8h3v-3.9h2v3.9h4.1L315.5,159.2L315.5,159.2z"/>
		</g>
		<g>
			<path class="st0" d="M312.9,172.4c-1.2,0-4-0.4-4-4.2v-8.4h-2.5c-0.3,0-0.5-0.2-0.5-0.5v-1.8c0-0.3,0.2-0.5,0.5-0.5h2.5v-3.4
				c0-0.3,0.2-0.5,0.5-0.5h2c0.3,0,0.5,0.2,0.5,0.5v3.4h3.6c0.3,0,0.5,0.2,0.5,0.5v1.7c0,0.3-0.2,0.5-0.5,0.5h-3.6v7.8
				c0,1.9,0.6,2,1.6,2c0.6,0,1.3-0.2,1.8-0.5c0.2-0.1,0.3-0.1,0.5,0s0.2,0.2,0.3,0.4l0.1,1.9c0,0.2-0.1,0.4-0.3,0.5
				C315,172.2,314,172.4,312.9,172.4z M306.9,158.8h2.5c0.3,0,0.5,0.2,0.5,0.5v8.9c0,2.2,1,3.2,3,3.2c0.8,0,1.5-0.1,2.2-0.4v-0.8
				c-0.5,0.2-1.1,0.3-1.6,0.3c-1.8,0-2.6-0.9-2.6-3v-8.3c0-0.3,0.2-0.5,0.5-0.5h3.6V158h-3.6c-0.3,0-0.5-0.2-0.5-0.5V154h-1v3.4
				c0,0.3-0.2,0.5-0.5,0.5h-2.5V158.8z"/>
		</g>
	</g>
	<g>
		<g>
			<path class="st0" d="M320.8,153.4c-0.7,0-1.5-0.6-1.5-1.5s0.7-1.5,1.5-1.5c0.7,0,1.5,0.6,1.5,1.5
				C322.3,152.8,321.6,153.4,320.8,153.4 M321.8,171.5h-2v-14.1h2V171.5z"/>
		</g>
		<g>
			<path class="st0" d="M321.8,172h-2c-0.3,0-0.5-0.2-0.5-0.5v-14.1c0-0.3,0.2-0.5,0.5-0.5h2c0.3,0,0.5,0.2,0.5,0.5v14.1
				C322.3,171.8,322.1,172,321.8,172z M320.3,171h1v-13.1h-1V171z M320.8,153.9c-0.9,0-2-0.8-2-2s1-2,2-2s2,0.8,2,2
				S321.8,153.9,320.8,153.9z M320.8,151c-0.5,0-1,0.4-1,1s0.5,1,1,1s1-0.4,1-1S321.3,151,320.8,151z"/>
		</g>
	</g>
	<g>
		<g>
			<path class="st0" d="M335.1,159.2H331v8.3c0,2.1,0.8,2.5,2.1,2.5c0.7,0,1.5-0.2,2.1-0.5l0.1,1.9c-0.7,0.3-1.7,0.5-2.7,0.5
				c-1.5,0-3.5-0.7-3.5-3.7v-8.9h-3v-1.8h3v-3.9h2v3.9h4.1L335.1,159.2L335.1,159.2z"/>
		</g>
		<g>
			<path class="st0" d="M332.6,172.4c-1.2,0-4-0.4-4-4.2v-8.4h-2.5c-0.3,0-0.5-0.2-0.5-0.5v-1.8c0-0.3,0.2-0.5,0.5-0.5h2.5v-3.4
				c0-0.3,0.2-0.5,0.5-0.5h2c0.3,0,0.5,0.2,0.5,0.5v3.4h3.6c0.3,0,0.5,0.2,0.5,0.5v1.7c0,0.3-0.2,0.5-0.5,0.5h-3.6v7.8
				c0,1.9,0.6,2,1.6,2c0.6,0,1.3-0.2,1.8-0.5c0.2-0.1,0.3-0.1,0.5,0s0.2,0.2,0.3,0.4l0.1,1.9c0,0.2-0.1,0.4-0.3,0.5
				C334.6,172.2,333.6,172.4,332.6,172.4z M326.6,158.8h2.5c0.3,0,0.5,0.2,0.5,0.5v8.9c0,2.2,1,3.2,3,3.2c0.8,0,1.5-0.1,2.2-0.4
				v-0.8c-0.5,0.2-1.1,0.3-1.6,0.3c-1.8,0-2.6-0.9-2.6-3v-8.3c0-0.3,0.2-0.5,0.5-0.5h3.6V158h-3.6c-0.3,0-0.5-0.2-0.5-0.5V154h-1
				v3.4c0,0.3-0.2,0.5-0.5,0.5h-2.5V158.8z"/>
		</g>
	</g>
	<g>
		<g>
			<path class="st0" d="M349.2,171.5c-0.1-0.7-0.1-1.5-0.1-2.3H349c-0.9,1.5-2.9,2.6-4.7,2.6c-3.6,0-5.3-2-5.3-5.5v-9h2v7.8
				c0,3.1,0.9,4.9,3.8,4.9c0.4,0,4.3-0.3,4.3-5.4v-7.2h2v11c0,0.7,0.1,2.1,0.1,3.1L349.2,171.5L349.2,171.5z"/>
		</g>
		<g>
			<path class="st0" d="M344.3,172.3c-3.8,0-5.8-2.1-5.8-6v-9c0-0.3,0.2-0.5,0.5-0.5h2c0.3,0,0.5,0.2,0.5,0.5v7.8
				c0,3.2,0.9,4.4,3.3,4.4c0.2,0,3.8-0.1,3.8-4.9v-7.2c0-0.3,0.2-0.5,0.5-0.5h2c0.3,0,0.5,0.2,0.5,0.5v11c0,0.7,0.1,2.1,0.1,3
				c0,0.1,0,0.3-0.1,0.4c-0.1,0.1-0.2,0.2-0.4,0.2h-2.1c-0.3,0-0.5-0.2-0.5-0.5l0.5-0.1h-0.5c0-0.3,0-0.6-0.1-1
				C347.6,171.6,345.9,172.3,344.3,172.3z M339.6,157.9v8.5c0,3.4,1.6,5,4.8,5c1.7,0,3.5-1,4.3-2.4c0.2-0.4,1-0.2,1,0.2
				c0,0.6,0,1.2,0,1.8h1.1c-0.1-0.9-0.1-2-0.1-2.6V158h-1v6.7c0,5.8-4.7,5.9-4.8,5.9c-3.8,0-4.3-2.9-4.3-5.4v-7.3H339.6z"/>
		</g>
	</g>
	<g>
		<g>
			<path class="st0" d="M364.3,159.2h-4.1v8.3c0,2.1,0.8,2.5,2.1,2.5c0.7,0,1.5-0.2,2.1-0.5l0.1,1.9c-0.7,0.3-1.7,0.5-2.7,0.5
				c-1.5,0-3.5-0.7-3.5-3.7v-8.9h-3v-1.8h3v-3.9h2v3.9h4.1L364.3,159.2L364.3,159.2z"/>
		</g>
		<g>
			<path class="st0" d="M361.7,172.4c-1.2,0-4-0.4-4-4.2v-8.4h-2.5c-0.3,0-0.5-0.2-0.5-0.5v-1.8c0-0.3,0.2-0.5,0.5-0.5h2.5v-3.4
				c0-0.3,0.2-0.5,0.5-0.5h2c0.3,0,0.5,0.2,0.5,0.5v3.4h3.6c0.3,0,0.5,0.2,0.5,0.5v1.7c0,0.3-0.2,0.5-0.5,0.5h-3.6v7.8
				c0,1.9,0.6,2,1.6,2c0.6,0,1.3-0.2,1.8-0.5c0.2-0.1,0.3-0.1,0.5,0s0.2,0.2,0.3,0.4l0.1,1.9c0,0.2-0.1,0.4-0.3,0.5
				C363.8,172.2,362.8,172.4,361.7,172.4z M355.7,158.8h2.5c0.3,0,0.5,0.2,0.5,0.5v8.9c0,2.2,1,3.2,3,3.2c0.8,0,1.5-0.1,2.2-0.4
				v-0.8c-0.5,0.2-1.1,0.3-1.6,0.3c-1.8,0-2.6-0.9-2.6-3v-8.3c0-0.3,0.2-0.5,0.5-0.5h3.6V158h-3.6c-0.3,0-0.5-0.2-0.5-0.5V154h-1
				v3.4c0,0.3-0.2,0.5-0.5,0.5h-2.5V158.8z"/>
		</g>
	</g>
	<g>
		<g>
			<path class="st0" d="M369.6,165c0.3,2.8,2.4,5.1,5.1,5.1c2.1,0,3.7-1.2,4.5-2.5l1.5,1.3c-1.7,2.1-3.7,3-6.1,3
				c-4.2,0-7.3-3.1-7.3-7.4c0-4.3,3.1-7.4,7.1-7.4c4.3,0,6.8,3.2,6.8,7.1v0.9L369.6,165L369.6,165z M379.2,163.3
				c0-2.7-1.7-4.5-4.6-4.5c-2.6,0-4.9,2.2-4.9,4.5H379.2z"/>
		</g>
		<g>
			<path class="st0" d="M374.8,172.4c-4.5,0-7.8-3.3-7.8-7.9c0-4.5,3.3-7.9,7.6-7.9c4.3,0,7.3,3.1,7.3,7.6v0.9
				c0,0.3-0.2,0.5-0.5,0.5h-11.1c0.5,2.4,2.3,4.1,4.6,4.1c2,0,3.4-1.2,4.1-2.2c0.1-0.1,0.2-0.2,0.3-0.2c0.1,0,0.3,0,0.4,0.1l1.5,1.3
				c0.2,0.2,0.2,0.5,0.1,0.7C379.6,171.3,377.4,172.4,374.8,172.4z M374.5,157.5c-3.8,0-6.6,3-6.6,6.9c0,4,2.9,6.9,6.8,6.9
				c2.2,0,4-0.8,5.4-2.4l-0.7-0.6c-0.9,1.2-2.5,2.2-4.6,2.2c-2.9,0-5.3-2.4-5.6-5.5c0-0.1,0-0.3,0.1-0.4c0.1-0.1,0.2-0.2,0.4-0.2
				h11.2V164C380.8,160.9,378.9,157.5,374.5,157.5z M379.2,163.8h-9.6c-0.3,0-0.5-0.2-0.5-0.5c0-2.6,2.6-5,5.4-5c3.1,0,5.1,2,5.1,5
				C379.7,163.6,379.4,163.8,379.2,163.8z M370.1,162.8h8.5c-0.2-2.2-1.7-3.5-4.1-3.5C372.4,159.3,370.5,160.9,370.1,162.8z"/>
		</g>
	</g>
	<g>
		<g>
			<path class="st0" d="M389.6,150.2c3.2,0,5.8,2.5,5.8,5.7c0,3.3-2.7,5.8-5.8,5.8s-5.8-2.5-5.8-5.7S386.4,150.2,389.6,150.2
				 M389.6,160.9c2.7,0,4.9-2.1,4.9-5c0-2.8-2.2-4.9-4.9-4.9s-4.9,2.1-4.9,5C384.7,158.8,386.8,160.9,389.6,160.9 M387.4,152.7h2.5
				c1.6,0,2.3,0.6,2.3,1.9c0,1.2-0.8,1.7-1.8,1.8l1.9,2.9h-1l-1.8-2.9h-1.2v2.9h-0.9V152.7z M388.4,155.6h1.1c0.9,0,1.8-0.1,1.8-1.1
				c0-0.9-0.8-1.1-1.5-1.1h-1.5L388.4,155.6L388.4,155.6z"/>
		</g>
		<g>
			<path class="st0" d="M389.6,162.2c-3.5,0-6.3-2.8-6.3-6.2c0-3.5,2.8-6.3,6.3-6.3s6.3,2.7,6.3,6.2
				C395.9,159.5,393.1,162.2,389.6,162.2z M387.4,159.9c1.3,0.7,3,0.7,4.3,0h-0.3c-0.2,0-0.3-0.1-0.4-0.2l-1.7-2.6h-0.4v2.4
				c0,0.3-0.2,0.5-0.5,0.5L387.4,159.9C387.4,159.9,387.4,159.9,387.4,159.9z M389.6,151.5c-2.5,0-4.4,2-4.4,4.5
				c0,1.5,0.7,2.8,1.8,3.6c0-0.1-0.1-0.1-0.1-0.2v-6.7c0-0.3,0.2-0.5,0.5-0.5h2.5c1.9,0,2.8,0.8,2.8,2.4c0,1.1-0.5,1.8-1.5,2.2
				l1.5,2.3c0.7-0.8,1.2-1.9,1.2-3.2C394,153.4,392,151.5,389.6,151.5z M387.9,156v0.3c0-0.1,0.1-0.1,0.2-0.2
				C388,156.1,388,156,387.9,156z M389.9,156.1C389.9,156.2,390,156.2,389.9,156.1C390,156.2,390,156.2,389.9,156.1
				c0.1,0.1,0.1,0,0.2,0C390,156.1,390,156.1,389.9,156.1z M388.8,155.1h0.7c1.2,0,1.3-0.2,1.3-0.6c0-0.3,0-0.6-1-0.6h-1V155.1z"/>
		</g>
	</g>
	<g>
		<g>
			<rect x="236.5" y="56.7" class="st0" width="0.5" height="136.3"/>
		</g>
		<g>
			<path class="st0" d="M237.1,193.4h-0.5c-0.3,0-0.5-0.2-0.5-0.5V56.7c0-0.3,0.2-0.5,0.5-0.5h0.5c0.3,0,0.5,0.2,0.5,0.5V193
				C237.6,193.2,237.3,193.4,237.1,193.4z"/>
		</g>
	</g>
	<g>
		<g>
			<rect x="236.5" y="56.7" class="st0" width="0.5" height="136.3"/>
		</g>
		<g>
			<path class="st0" d="M237.1,193.4h-0.5c-0.3,0-0.5-0.2-0.5-0.5V56.7c0-0.3,0.2-0.5,0.5-0.5h0.5c0.3,0,0.5,0.2,0.5,0.5V193
				C237.6,193.2,237.3,193.4,237.1,193.4z"/>
		</g>
	</g>
</g>
<g>
	<g>
		<rect x="236.9" y="58.7" class="st0" width="0.5" height="136.3"/>
	</g>
	<g>
		<path class="st0" d="M237.5,195.4H237c-0.3,0-0.5-0.2-0.5-0.5V58.7c0-0.3,0.2-0.5,0.5-0.5h0.5c0.3,0,0.5,0.2,0.5,0.5V195
			C238,195.2,237.7,195.4,237.5,195.4z"/>
	</g>
</g>
</svg>
