<?xml version="1.0" encoding="utf-8"?>
<!-- Generator: Adobe Illustrator 24.3.0, SVG Export Plug-In . SVG Version: 6.00 Build 0)  -->
<svg version="1.1" id="Layer_1" xmlns="http://www.w3.org/2000/svg" xmlns:xlink="http://www.w3.org/1999/xlink" x="0px" y="0px"
	 viewBox="0 0 264.3 38" style="enable-background:new 0 0 264.3 38;" xml:space="preserve">
<style type="text/css">
	.st0{fill:#FFFFFF;}
</style>
<g>
	<polygon class="st0" points="133.9,0.4 116.9,0.4 111.1,8 105.4,0.4 35.2,0.4 23.3,38 36.4,38 36.4,37.9 39.4,27.7 31.4,21.4 
		41.3,21.3 44.5,11 44.5,11 44.5,11 47.6,21.3 57.6,21.4 49.6,27.7 52.6,37.9 52.6,38 65.7,38 58.2,14.2 71.3,14.2 71.3,37.9 
		84.1,37.9 84.1,14.2 98.9,14.2 102.7,19.1 88.4,37.9 105.4,37.9 111.1,30.3 116.9,37.9 133.8,37.9 119.6,19.1 	"/>
	<polygon class="st0" points="36.4,38 52.5,38 44.5,31.7 	"/>
	<path class="st0" d="M264.3,0H145.9l-14.2,18.8l14.2,18.8h118.4V0z M168.5,15.8h-6.9V18h6.9v7.2h-6.9v5.7h-7.3V8.6h14.3v7.2H168.5z
		 M186.4,30.9h-14.3V8.6h7.4v15.1h6.9L186.4,30.9L186.4,30.9z M197.1,31c-5.7,0-10.4-5-10.4-11.2s4.6-11.2,10.4-11.2
		s10.4,5,10.4,11.2S202.8,31,197.1,31z M222.8,30.7l-4.5-8.4l-4.5,8.4h-8.1l12.6-23.6l12.6,23.6H222.8z M241.1,15.6v15.1h-7.6V15.6
		h-6.9V8.4h21.3v7.2C247.9,15.6,241.1,15.6,241.1,15.6z"/>
	<path class="st0" d="M193.9,19.8c0,1.9,1.5,3.5,3.2,3.5c1.8,0,3.2-1.6,3.2-3.5s-1.5-3.5-3.2-3.5C195.3,16.3,193.9,17.9,193.9,19.8z
		"/>
</g>
</svg>
