<?xml version="1.0" encoding="utf-8"?>
<!-- Generator: Adobe Illustrator 24.3.0, SVG Export Plug-In . SVG Version: 6.00 Build 0)  -->
<svg version="1.1" id="Layer_1" xmlns="http://www.w3.org/2000/svg" xmlns:xlink="http://www.w3.org/1999/xlink" x="0px" y="0px"
	 viewBox="0 0 13.7 12" style="enable-background:new 0 0 13.7 12;" xml:space="preserve">
<style type="text/css">
	.st0{fill:#FFFFFF;}
</style>
<g>
	<path class="st0" d="M4.5,7.8c0,0.2,0.1,0.4,0.1,0.6c0,0,0,0,0.1,0.1c0,0,0.1,0,0.1,0c2.3,0,4.7,0,7,0c0.3,0,0.5,0.1,0.5,0.4
		c0.1,0.3-0.1,0.6-0.4,0.6c0,0-0.1,0-0.1,0c-2.4,0-4.8,0-7.2,0c-0.5,0-0.7-0.2-0.8-0.7C3.2,6.2,2.6,3.6,2.1,1.1C2.1,1,2,1,2,1
		C1.5,1,1,1,0.5,1C0.2,1,0,0.8,0,0.5C0,0.2,0.2,0,0.5,0c0.6,0,1.1,0,1.7,0C2.6,0,2.9,0.2,3,0.6C3,0.9,3.1,1.2,3.2,1.5
		c0,0.1,0.1,0.1,0.1,0.1c0.5,0,1.1,0,1.6,0c2.7,0,5.4,0,8.1,0c0.4,0,0.6,0.2,0.7,0.5c0,0.1,0,0.2,0,0.3c-0.3,1.3-0.6,2.6-0.8,4
		c-0.1,0.4-0.3,0.6-0.7,0.6C11,7.1,9.7,7.3,8.5,7.4C7.2,7.5,5.9,7.7,4.6,7.8C4.6,7.8,4.5,7.8,4.5,7.8z M3.4,2.6C3.7,4,4,5.4,4.3,6.8
		c0,0,0.1,0,0.1,0c0.4,0,0.8-0.1,1.2-0.1c1-0.1,2-0.2,3-0.3c1.1-0.1,2.2-0.2,3.3-0.3c0.1,0,0.1,0,0.1-0.1c0.2-0.9,0.4-1.8,0.6-2.7
		c0-0.2,0.1-0.5,0.1-0.7C9.6,2.6,6.5,2.6,3.4,2.6z"/>
	<path class="st0" d="M11.6,11c0,0.5-0.4,1-1,1c-0.5,0-1-0.4-1-1c0-0.5,0.4-1,1-1C11.2,10,11.6,10.5,11.6,11z"/>
	<path class="st0" d="M4.4,11c0-0.5,0.4-1,1-1c0.5,0,1,0.4,1,1c0,0.5-0.4,1-1,1C4.9,12,4.4,11.6,4.4,11z"/>
</g>
</svg>
