<?xml version="1.0" encoding="utf-8"?>
<!-- Generator: Adobe Illustrator 24.3.0, SVG Export Plug-In . SVG Version: 6.00 Build 0)  -->
<svg version="1.1" id="Layer_1" xmlns="http://www.w3.org/2000/svg" xmlns:xlink="http://www.w3.org/1999/xlink" x="0px" y="0px"
	 viewBox="0 0 79.2 12.1" style="enable-background:new 0 0 79.2 12.1;" xml:space="preserve">
<style type="text/css">
	.st0{fill:#FFFFFF;}
</style>
<g>
	<path class="st0" d="M6.1,10.2c0.7,0,1.3-0.1,1.8-0.3c0.5-0.2,1-0.6,1.5-1.1l1.3,1.3c-1.2,1.4-2.7,2.1-4.5,2.1
		c-1.8,0-3.2-0.6-4.4-1.7C0.6,9.2,0,7.8,0,6.1c0-1.7,0.6-3.2,1.8-4.3C3,0.6,4.5,0,6.3,0c1.8,0,3.3,0.7,4.5,2L9.5,3.4
		C9,2.8,8.5,2.5,8,2.3C7.5,2,6.9,1.9,6.2,1.9c-1.2,0-2.2,0.4-3,1.1C2.5,3.8,2.1,4.8,2.1,6s0.4,2.2,1.2,3C4,9.8,5,10.2,6.1,10.2z"/>
	<path class="st0" d="M14.7,9.3l-1.2,2.7h-2.1l5.1-11.7h2.1l5.1,11.7h-2.1l-1.2-2.7H14.7z M19.7,7.5l-2.1-4.8l-2.1,4.8H19.7z"/>
	<path class="st0" d="M28.9,2.1v9.9h-2V2.1h-3.5V0.3h9v1.8H28.9z"/>
	<path class="st0" d="M35.3,9.3l-1.2,2.7H32l5.1-11.7h2.1l5.1,11.7h-2.1l-1.2-2.7H35.3z M40.3,7.5l-2.1-4.8l-2.1,4.8H40.3z"/>
	<path class="st0" d="M46,11.9V0.3h2v9.8h5.3v1.9H46z"/>
	<path class="st0" d="M64.9,10.3c-1.2,1.2-2.6,1.7-4.4,1.7c-1.7,0-3.2-0.6-4.4-1.7C55,9.2,54.4,7.7,54.4,6s0.6-3.2,1.8-4.3
		S58.8,0,60.5,0c1.7,0,3.2,0.6,4.4,1.7s1.8,2.6,1.8,4.3S66.1,9.2,64.9,10.3z M63.4,3c-0.8-0.8-1.8-1.2-2.9-1.2
		c-1.2,0-2.1,0.4-2.9,1.2c-0.8,0.8-1.2,1.8-1.2,3c0,1.2,0.4,2.2,1.2,3s1.8,1.2,2.9,1.2c1.2,0,2.1-0.4,2.9-1.2s1.2-1.8,1.2-3
		C64.6,4.9,64.2,3.9,63.4,3z"/>
	<path class="st0" d="M77.2,6.3h2v4c-1.1,1.2-2.7,1.8-4.7,1.8c-1.7,0-3.2-0.6-4.3-1.7c-1.2-1.1-1.7-2.6-1.7-4.3
		c0-1.7,0.6-3.2,1.8-4.3C71.3,0.6,72.8,0,74.5,0c1.7,0,3.1,0.5,4.2,1.5L77.6,3c-0.5-0.4-0.9-0.7-1.4-0.8c-0.5-0.2-1-0.2-1.6-0.2
		c-1.2,0-2.2,0.4-3,1.1s-1.2,1.8-1.2,3c0,1.2,0.4,2.2,1.2,3c0.8,0.8,1.7,1.1,2.8,1.1s2-0.2,2.8-0.7V6.3z"/>
</g>
</svg>
