<?xml version="1.0" encoding="utf-8"?>
<!-- Generator: Adobe Illustrator 24.3.0, SVG Export Plug-In . SVG Version: 6.00 Build 0)  -->
<svg version="1.1" id="Layer_1" xmlns="http://www.w3.org/2000/svg" xmlns:xlink="http://www.w3.org/1999/xlink" x="0px" y="0px"
	 viewBox="0 0 82.2 12" style="enable-background:new 0 0 82.2 12;" xml:space="preserve">
<style type="text/css">
	.st0{fill:#FFFFFF;}
</style>
<g>
	<path class="st0" d="M6.1,10.1c0.7,0,1.3-0.1,1.7-0.3c0.5-0.2,1-0.6,1.5-1.1l1.3,1.3c-1.2,1.4-2.7,2-4.5,2c-1.8,0-3.2-0.6-4.4-1.7
		S0,7.8,0,6.1s0.6-3.2,1.8-4.3C3,0.6,4.4,0,6.2,0s3.3,0.7,4.5,2L9.5,3.4C9,2.8,8.4,2.5,7.9,2.2S6.9,1.9,6.2,1.9C5,1.9,4,2.3,3.2,3.1
		C2.4,3.8,2,4.8,2,6s0.4,2.2,1.2,3C4,9.7,5,10.1,6.1,10.1z"/>
	<path class="st0" d="M22.5,10.3c-1.2,1.1-2.6,1.7-4.4,1.7s-3.2-0.6-4.4-1.7S12,7.7,12,6s0.6-3.1,1.8-4.3S16.4,0,18.1,0
		s3.2,0.6,4.4,1.7s1.8,2.6,1.8,4.3S23.6,9.2,22.5,10.3z M21,3c-0.8-0.8-1.8-1.2-2.9-1.2C17,1.8,16,2.2,15.2,3C14.4,3.8,14,4.8,14,6
		c0,1.2,0.4,2.2,1.2,3c0.8,0.8,1.8,1.2,2.9,1.2c1.2,0,2.1-0.4,2.9-1.2s1.2-1.8,1.2-3C22.2,4.8,21.8,3.8,21,3z"/>
	<path class="st0" d="M35.4,0.3h2v11.6h-2.1l-6.6-8.5v8.5h-2V0.3h2L35.4,9V0.3z"/>
	<path class="st0" d="M45,2.1v9.8h-2V2.1h-3.5V0.3h9v1.8H45z"/>
	<path class="st0" d="M51.4,9.3l-1.2,2.6h-2.1l5.1-11.6h2.1l5.1,11.6h-2.1l-1.2-2.6H51.4z M56.4,7.5l-2.1-4.8l-2.1,4.8H56.4z"/>
	<path class="st0" d="M67.4,10.1c0.7,0,1.3-0.1,1.7-0.3c0.5-0.2,1-0.6,1.5-1.1l1.3,1.3c-1.2,1.4-2.7,2-4.5,2c-1.8,0-3.2-0.6-4.4-1.7
		s-1.7-2.6-1.7-4.3s0.6-3.2,1.8-4.3C64.3,0.6,65.8,0,67.6,0s3.3,0.7,4.5,2l-1.2,1.4c-0.6-0.5-1.1-0.9-1.6-1.1s-1.1-0.3-1.7-0.3
		c-1.2,0-2.2,0.4-3,1.1c-0.8,0.8-1.2,1.7-1.2,2.9s0.4,2.2,1.2,3C65.4,9.7,66.3,10.1,67.4,10.1z"/>
	<path class="st0" d="M78.7,2.1v9.8h-2V2.1h-3.5V0.3h9v1.8H78.7z"/>
</g>
</svg>
