<?xml version="1.0" encoding="utf-8"?>
<!-- Generator: Adobe Illustrator 24.3.0, SVG Export Plug-In . SVG Version: 6.00 Build 0)  -->
<svg version="1.1" id="Layer_1" xmlns="http://www.w3.org/2000/svg" xmlns:xlink="http://www.w3.org/1999/xlink" x="0px" y="0px"
	 viewBox="0 0 89.5 8.6" style="enable-background:new 0 0 89.5 8.6;" xml:space="preserve">
<style type="text/css">
	.st0{fill:#FFFFFF;}
</style>
<g>
	<path class="st0" d="M3.4,6.5c-0.3,0.2-0.7,0.3-1,0.3c-1,0-1.5-0.5-1.5-1.5V2.7H0V2h0.8v-1h0.9v1h1.4v0.7H1.7v2.6
		c0,0.5,0.3,0.8,0.8,0.8c0.3,0,0.5-0.1,0.7-0.2L3.4,6.5z"/>
	<path class="st0" d="M8.6,4.7H4.7c0.1,0.8,0.8,1.4,1.7,1.4c0.6,0,1-0.2,1.4-0.6L8.3,6C7.9,6.5,7.2,6.8,6.4,6.8
		c-1.5,0-2.6-1-2.6-2.4c0-1.4,1-2.4,2.4-2.4s2.4,1,2.4,2.5C8.6,4.5,8.6,4.6,8.6,4.7z M4.7,4h3.1C7.7,3.2,7.1,2.7,6.2,2.7
		C5.4,2.7,4.8,3.2,4.7,4z"/>
	<path class="st0" d="M13.5,3.9v2.9h-0.8V6.1c-0.3,0.4-0.8,0.7-1.6,0.7c-1.1,0-1.8-0.6-1.8-1.4C9.3,4.6,9.8,4,11.2,4h1.4V3.8
		c0-0.7-0.4-1.2-1.3-1.2c-0.6,0-1.1,0.2-1.5,0.5L9.4,2.5c0.5-0.4,1.2-0.6,2-0.6C12.7,1.9,13.5,2.6,13.5,3.9z M12.6,5.3V4.6h-1.3
		c-0.9,0-1.1,0.3-1.1,0.7c0,0.5,0.4,0.8,1.1,0.8C11.9,6.1,12.4,5.8,12.6,5.3z"/>
	<path class="st0" d="M23,4v2.8h-0.9V4.1c0-0.9-0.5-1.4-1.2-1.4c-0.9,0-1.4,0.6-1.4,1.6v2.5h-0.9V4.1c0-0.9-0.5-1.4-1.2-1.4
		c-0.9,0-1.4,0.6-1.4,1.6v2.5h-0.9V2h0.8v0.7c0.3-0.5,0.9-0.8,1.7-0.8c0.7,0,1.3,0.3,1.7,0.9c0.4-0.5,1-0.9,1.8-0.9
		C22.2,1.9,23,2.6,23,4z"/>
	<path class="st0" d="M32.7,4.3c0,1.5-0.6,2.5-1.6,2.5c-0.6,0-1-0.3-1.1-0.9c-0.4,0.6-1,0.9-1.7,0.9c-1.3,0-2.2-1-2.2-2.3
		s0.9-2.3,2.2-2.3C29,2.2,29.6,2.4,30,3V2.2h0.8v3.3c0,0.5,0.2,0.7,0.5,0.7c0.5,0,0.8-0.7,0.8-1.8c0-2-1.5-3.4-3.6-3.4
		c-2.2,0-3.6,1.4-3.6,3.5c0,2.1,1.4,3.5,3.6,3.5c0.6,0,1.2-0.1,1.7-0.4l0.2,0.6c-0.6,0.3-1.3,0.4-1.9,0.4c-2.5,0-4.2-1.7-4.2-4.1
		c0-2.4,1.7-4.1,4.3-4.1C31,0.4,32.7,2,32.7,4.3z M30,4.5c0-1-0.7-1.6-1.5-1.6c-0.9,0-1.5,0.6-1.5,1.6c0,1,0.6,1.6,1.5,1.6
		C29.3,6.1,30,5.5,30,4.5z"/>
	<path class="st0" d="M37.8,3.9v2.9H37V6.1c-0.3,0.4-0.8,0.7-1.6,0.7c-1.1,0-1.8-0.6-1.8-1.4c0-0.8,0.5-1.4,1.9-1.4h1.4V3.8
		c0-0.7-0.4-1.2-1.3-1.2c-0.6,0-1.1,0.2-1.5,0.5l-0.4-0.7c0.5-0.4,1.2-0.6,2-0.6C37,1.9,37.8,2.6,37.8,3.9z M36.9,5.3V4.6h-1.3
		c-0.9,0-1.1,0.3-1.1,0.7c0,0.5,0.4,0.8,1.1,0.8C36.2,6.1,36.7,5.8,36.9,5.3z"/>
	<path class="st0" d="M42.1,6.5c-0.3,0.2-0.7,0.3-1,0.3c-1,0-1.5-0.5-1.5-1.5V2.7h-0.8V2h0.8v-1h0.9v1h1.4v0.7h-1.4v2.6
		c0,0.5,0.3,0.8,0.8,0.8c0.3,0,0.5-0.1,0.7-0.2L42.1,6.5z"/>
	<path class="st0" d="M46.2,6.8l-1.4-1.8l-1.4,1.8h-1l1.9-2.4L42.5,2h1l1.3,1.7L46.1,2h0.9l-1.8,2.3l1.9,2.4H46.2z"/>
	<path class="st0" d="M49.8,0c0.4,0,0.7,0.1,1,0.3l-0.3,0.7c-0.2-0.1-0.4-0.2-0.7-0.2c-0.5,0-0.8,0.3-0.8,0.8V2h1.4v0.7h-1.4v4.1
		h-0.9V2.7h-0.8V2h0.8V1.5C48.3,0.6,48.8,0,49.8,0z M52.2,0.1v6.7h-0.9V0.1H52.2z"/>
	<path class="st0" d="M53.4,4.4c0-1.4,1.1-2.4,2.5-2.4c1.4,0,2.5,1,2.5,2.4s-1,2.4-2.5,2.4C54.5,6.8,53.4,5.8,53.4,4.4z M57.5,4.4
		c0-1-0.7-1.7-1.6-1.7c-0.9,0-1.6,0.7-1.6,1.7c0,1,0.7,1.7,1.6,1.7C56.8,6.1,57.5,5.4,57.5,4.4z"/>
	<path class="st0" d="M63.3,3.9v2.9h-0.8V6.1c-0.3,0.4-0.8,0.7-1.6,0.7c-1.1,0-1.8-0.6-1.8-1.4c0-0.8,0.5-1.4,1.9-1.4h1.4V3.8
		c0-0.7-0.4-1.2-1.3-1.2c-0.6,0-1.1,0.2-1.5,0.5l-0.4-0.7c0.5-0.4,1.2-0.6,2-0.6C62.6,1.9,63.3,2.6,63.3,3.9z M62.5,5.3V4.6h-1.3
		C60.3,4.6,60,5,60,5.4c0,0.5,0.4,0.8,1.1,0.8C61.7,6.1,62.3,5.8,62.5,5.3z"/>
	<path class="st0" d="M67.6,6.5c-0.3,0.2-0.7,0.3-1,0.3c-1,0-1.5-0.5-1.5-1.5V2.7h-0.8V2h0.8v-1h0.9v1h1.4v0.7h-1.4v2.6
		c0,0.5,0.3,0.8,0.8,0.8c0.3,0,0.5-0.1,0.7-0.2L67.6,6.5z"/>
	<path class="st0" d="M68.4,6.2c0-0.4,0.3-0.6,0.6-0.6c0.3,0,0.6,0.3,0.6,0.6c0,0.4-0.3,0.6-0.6,0.6C68.7,6.8,68.4,6.6,68.4,6.2z"/>
	<path class="st0" d="M70.3,4.4c0-1.4,1.1-2.4,2.5-2.4c0.9,0,1.6,0.4,2,1l-0.7,0.4c-0.3-0.5-0.8-0.7-1.3-0.7c-0.9,0-1.6,0.7-1.6,1.7
		c0,1,0.7,1.7,1.6,1.7c0.5,0,1-0.2,1.3-0.7l0.7,0.4c-0.4,0.7-1.1,1-2,1C71.3,6.8,70.3,5.8,70.3,4.4z"/>
	<path class="st0" d="M75.4,4.4c0-1.4,1.1-2.4,2.5-2.4c1.4,0,2.5,1,2.5,2.4s-1,2.4-2.5,2.4C76.4,6.8,75.4,5.8,75.4,4.4z M79.5,4.4
		c0-1-0.7-1.7-1.6-1.7c-0.9,0-1.6,0.7-1.6,1.7c0,1,0.7,1.7,1.6,1.7C78.8,6.1,79.5,5.4,79.5,4.4z"/>
	<path class="st0" d="M89.5,4v2.8h-0.9V4.1c0-0.9-0.5-1.4-1.2-1.4c-0.9,0-1.4,0.6-1.4,1.6v2.5h-0.9V4.1c0-0.9-0.5-1.4-1.2-1.4
		c-0.9,0-1.4,0.6-1.4,1.6v2.5h-0.9V2h0.8v0.7c0.3-0.5,0.9-0.8,1.7-0.8c0.7,0,1.3,0.3,1.7,0.9c0.4-0.5,1-0.9,1.8-0.9
		C88.7,1.9,89.5,2.6,89.5,4z"/>
</g>
</svg>
