<?xml version="1.0" encoding="utf-8"?>
<!-- Generator: Adobe Illustrator 24.3.0, SVG Export Plug-In . SVG Version: 6.00 Build 0)  -->
<svg version="1.1" id="layer" xmlns="http://www.w3.org/2000/svg" xmlns:xlink="http://www.w3.org/1999/xlink" x="0px" y="0px"
	 viewBox="0 0 275.1 249.6" style="enable-background:new 0 0 275.1 249.6;" xml:space="preserve">
<style type="text/css">
	.st0{fill:#FFFFFF;}
</style>
<g>
	<g>
		<g>
			<path class="st0" d="M82.7,121.2c9.9-5.9,17-15.5,23.7-24.5c5.6-7.4,11.2-16.7,21.4-17.8c8.2-0.9,14.3,4.3,14.5,12.6
				c0.2,6.4,0.2,12.9,0,19.4c-0.2,9,3.8,18.6,13.7,11.6c11-7.7,19.5-21.6,28-31.9c4.5-5.4,10.9-13.1,18.8-11.7
				c3.8,0.7,7,3.7,8.7,7.2c4.1,8.4,2.8,21.1,2.4,30.3c-0.1,3.4-0.2,7.2,2.2,9.5c5,4.9,20.4,2.9,28.1,0.8c1.2-0.3,1.8-1.5,1.3-2.7
				c-2.3-5.4-3.4-11.2-6.7-16.3c-0.6-1-1.1-2.3-1-3.4c0.2-7.9-0.7-15.7,0.3-23.7c0.2-1.5-0.9-2.9-2.4-3.2
				c-5.3-0.8-10.1-2.9-14.4-6.5c-0.9-0.7-2.3-0.8-3.3-0.2c-1.6,0.9-3.2,0.4-5.2-0.4c-1.9-0.7-4.6,0.5-6.9,1.1
				c-2.2,0.6-4.4,1.7-6.7,2.6c0,0,0,0,0,0c-1.1-0.9-2.3-1.8-3.1-2.4c-0.4-0.2-0.9-0.3-1.3-0.5c-1.3-0.2-2.3-0.3-3.3-0.4
				c-1,0.4-1.7,0.8-2.7,1.2c-0.4,0.6-0.9,1.4-1.4,2.1c0,0,0,0,0,0c-0.1-0.3-0.3-0.6-0.4-0.8c-0.6-0.5-1-0.9-1.6-1.4
				c-2-0.7-3.9-1.4-6-2.1c-0.9,0.1-1.6,0.3-2.5,0.4l0,0c-1.1,0.8-2.9,0.7-3.8-0.4c-0.8-0.9-1.6-1.8-2.3-2.6
				c-0.8-0.3-1.5-0.6-2.4-0.9c-5.1,0.4-9.8-0.4-14.2-2.1c-0.5-0.4-0.9-0.7-1.3-1.1c-0.3-0.5-0.6-0.9-0.8-1.3
				c-0.6-0.9-1.7-1.4-2.8-1.2c-1.7,0.3-3.2,0.5-4.6,0.7c0,0,0,0,0,0c-1.7-1.6-3.1-3.1-4.5-4.3c-0.3-0.7-0.6-1.4-0.9-2.1l0-11.1
				c0-4.2,0-8.4,0-12.7v-9.7c0-1.1-0.9-2-2-2H90.2c-0.2,0-0.5,0.1-0.7,0.2c-0.2,0.1-0.3,0.4-1,1.1c0,0,0,0,0,0l0,86.5
				c0,1-0.8,1.7-1.7,1.7H30.1c-0.2,0-0.4,0.3-0.5,0.5l0,0c-0.3,0.7-0.2,1.5,0.3,2c4.9,4.9,8.5,11.6,16.4,13.4c0,0,0,0,0,0
				C59.2,125.6,70.7,128.3,82.7,121.2z"/>
		</g>
		<g>
			<path class="st0" d="M182.5,200.7h-34.1c-0.3,0-0.5,0.2-0.6,0.5c-0.4,6.7,5.9,11.5,6.6,17.3c0,0.2,0.1,0.3,0.3,0.4
				c5.6,2.9,10.6,5.5,16,8.3c0.1,0,0.2,0.1,0.3,0.1h5.6c0.1,0,0.2,0,0.3,0.1c2,1,3.7,2,5.5,2.9c0.2,0.1,0.4,0.1,0.5,0
				c1.3-0.8,2.6-1.5,4.2-2.3c0.3-0.2,0.4-0.6,0.2-0.8c-6.3-8.3-6.7-17-4.2-25.7C183.1,201,182.8,200.7,182.5,200.7z"/>
			<path class="st0" d="M197.2,148.3c-0.1,0-0.2,0-0.3-0.1c-7.3-3.9-1.3-27.6-1.5-34.3c-0.2-5.4-1.6-13-8.2-7.6
				c-2.9,2.4-6.3,5.1-8.7,8c-5.1,6.5-10.2,12.9-15.3,19.4c-3.5,4.4-7,8.8-11.4,12.3c-11.9,9.6-24.5,6.1-30.5-7.6
				c-3.5-8,2-20.7,0.1-29.2c-0.4-2-2-4-4.1-4.1c-2-0.1-3.7,1.4-5.1,2.8c-5.5,5.7-9.5,12.4-14.5,18.5c-6.5,7.9-13,15.9-23.2,19.5
				c-2.5,0.9-4.9,1.8-7.3,2.7c-3.2,1.2-4.1,5.4-1.7,7.8c2,2,4.5,3.4,6.5,5.1c4,3.3,9.4,4.8,14.4,7.1c0.3,0.1,0.6,0.1,0.8-0.1
				c4.8-3.5,5.3-9.9,7.9-14.6c0.1-0.2,0.3-0.3,0.5-0.4c2.4-0.6,4.6-1.2,6.7-1.8c0.2-0.1,0.4,0,0.6,0.1c3.6,2.1,7.6,0.7,11.3,1.2
				c0.2,0,0.3,0.1,0.4,0.2c5,4.6,9.6,9.1,12.7,11.9c0.1,0.1,0.1,0.2,0.2,0.3c2.6,5.9,4.1,10.6,6.1,14.4c0.6,1.2,1.8,1.9,3.1,1.9
				l56.8,0c0.5,0,1-0.1,1.5-0.3c0.6-0.2,1.1-0.5,1.6-0.7c1.4-0.6,1.7-2.4,0.7-3.5c-0.8-0.9-1.6-1.7-2.3-2.5c0.1-0.3,0.3-0.6,0.4-0.9
				c2.5,0.8,5,1.5,7,2.1c0.1,0,0.3,0,0.4,0c9.7-2.1,17-7,21.6-15.7c0.1-0.2,0.1-0.4,0-0.6c-0.4-1.1-0.9-2.3-1.3-3.5
				c-0.1-0.4,0-0.8,0.4-1c0.9-0.5,1.8-1,2.8-1.6c0.5-0.3,1.1,0,1.1,0.6c0.1,0.9,0.2,1.6,0.4,2.3c0.1,0.3,0.2,0.5,0.5,0.6
				c5,1.7,8.4-3.1,12.5-3c0.4,0,0.8-0.3,0.8-0.8v-2.3c0-0.4-0.3-0.8-0.7-0.8C226.1,149.5,211.7,148.9,197.2,148.3z"/>
		</g>
	</g>
	<g>
		<path class="st0" d="M43.7,195l0-5.6l-2.8,4.6h-0.7l-2.8-4.5v5.5H36v-8.4h1.3l3.3,5.6l3.3-5.6h1.3l0,8.4H43.7z"/>
		<path class="st0" d="M52.9,193.1h-4.2l-0.8,1.9h-1.6l3.8-8.4h1.5l3.8,8.4h-1.6L52.9,193.1z M52.4,191.9l-1.6-3.7l-1.6,3.7H52.4z"
			/>
		<path class="st0" d="M61.9,195l-1.7-2.5c-0.1,0-0.2,0-0.3,0H58v2.4h-1.6v-8.4h3.5c2.2,0,3.6,1.1,3.6,3c0,1.3-0.6,2.2-1.8,2.7
			l1.9,2.8H61.9z M59.8,187.9H58v3.3h1.8c1.4,0,2.1-0.6,2.1-1.7C61.9,188.6,61.2,187.9,59.8,187.9z"/>
		<path class="st0" d="M65.2,186.6h1.6v8.4h-1.6V186.6z"/>
		<path class="st0" d="M76.5,186.6v8.4h-1.3l-4.6-5.7v5.7H69v-8.4h1.3l4.6,5.7v-5.7H76.5z"/>
		<path class="st0" d="M84.2,193.1H80l-0.8,1.9h-1.6l3.8-8.4h1.5l3.8,8.4H85L84.2,193.1z M83.7,191.9l-1.6-3.7l-1.6,3.7H83.7z"/>
		<path class="st0" d="M96.5,193.1h-4.2l-0.8,1.9h-1.6l3.8-8.4h1.5L99,195h-1.6L96.5,193.1z M96,191.9l-1.6-3.7l-1.6,3.7H96z"/>
		<path class="st0" d="M99.3,194.1l0.5-1.2c0.7,0.5,1.7,0.9,2.8,0.9c1.3,0,1.9-0.5,1.9-1.1c0-1.8-5-0.6-5-3.7c0-1.4,1.1-2.5,3.4-2.5
			c1,0,2.1,0.3,2.8,0.7l-0.5,1.2c-0.8-0.4-1.6-0.7-2.3-0.7c-1.3,0-1.8,0.5-1.8,1.1c0,1.8,5,0.6,5,3.7c0,1.3-1.1,2.5-3.4,2.5
			C101.3,195.1,100,194.7,99.3,194.1z"/>
		<path class="st0" d="M106.9,194.1l0.5-1.2c0.7,0.5,1.7,0.9,2.8,0.9c1.3,0,1.9-0.5,1.9-1.1c0-1.8-5-0.6-5-3.7
			c0-1.4,1.1-2.5,3.4-2.5c1,0,2.1,0.3,2.8,0.7l-0.5,1.2c-0.8-0.4-1.6-0.7-2.3-0.7c-1.3,0-1.8,0.5-1.8,1.1c0,1.8,5,0.6,5,3.7
			c0,1.3-1.1,2.5-3.4,2.5C108.9,195.1,107.6,194.7,106.9,194.1z"/>
		<path class="st0" d="M114.5,190.8c0-2.5,1.9-4.3,4.5-4.3s4.5,1.8,4.5,4.3s-1.9,4.3-4.5,4.3S114.5,193.3,114.5,190.8z M122,190.8
			c0-1.7-1.3-3-3-3c-1.7,0-3,1.2-3,3c0,1.7,1.3,3,3,3C120.7,193.8,122,192.5,122,190.8z"/>
		<path class="st0" d="M124.6,190.8c0-2.5,1.9-4.3,4.5-4.3c1.4,0,2.5,0.5,3.3,1.4l-1,0.9c-0.6-0.7-1.4-1-2.2-1c-1.7,0-3,1.2-3,3
			s1.3,3,3,3c0.9,0,1.6-0.3,2.2-1l1,1c-0.8,0.9-2,1.4-3.3,1.4C126.6,195.1,124.6,193.3,124.6,190.8z"/>
		<path class="st0" d="M134,186.6h1.6v8.4H134V186.6z"/>
		<path class="st0" d="M143.2,193.1H139l-0.8,1.9h-1.6l3.8-8.4h1.5l3.8,8.4h-1.6L143.2,193.1z M142.7,191.9l-1.6-3.7l-1.6,3.7H142.7
			z"/>
		<path class="st0" d="M148.1,187.9h-2.8v-1.3h7.1v1.3h-2.8v7.1h-1.6V187.9z"/>
		<path class="st0" d="M153.6,186.6h1.6v8.4h-1.6V186.6z"/>
		<path class="st0" d="M156.8,190.8c0-2.5,1.9-4.3,4.5-4.3s4.5,1.8,4.5,4.3s-1.9,4.3-4.5,4.3S156.8,193.3,156.8,190.8z M164.3,190.8
			c0-1.7-1.3-3-3-3s-3,1.2-3,3c0,1.7,1.3,3,3,3S164.3,192.5,164.3,190.8z"/>
		<path class="st0" d="M175,186.6v8.4h-1.3l-4.6-5.7v5.7h-1.5v-8.4h1.3l4.6,5.7v-5.7H175z"/>
		<path class="st0" d="M179.9,190.8c0-2.5,1.9-4.3,4.5-4.3s4.5,1.8,4.5,4.3s-1.9,4.3-4.5,4.3S179.9,193.3,179.9,190.8z M187.4,190.8
			c0-1.7-1.3-3-3-3s-3,1.2-3,3c0,1.7,1.3,3,3,3S187.4,192.5,187.4,190.8z"/>
		<path class="st0" d="M192.2,187.9v2.6h4.1v1.3h-4.1v3.2h-1.6v-8.4h6.1v1.3H192.2z"/>
		<path class="st0" d="M203.3,187.9h-2.8v-1.3h7.1v1.3h-2.8v7.1h-1.6V187.9z"/>
		<path class="st0" d="M215.1,193.7v1.3h-6.3v-8.4h6.1v1.3h-4.6v2.2h4.1v1.3h-4.1v2.3H215.1z"/>
		<path class="st0" d="M222.1,195l-2.3-3.2l-2.3,3.2h-1.8l3.1-4.3l-3-4.1h1.8l2.1,3l2.1-3h1.7l-2.9,4.1l3.2,4.3H222.1z"/>
		<path class="st0" d="M230.1,193.1h-4.2l-0.8,1.9h-1.6l3.8-8.4h1.5l3.8,8.4H231L230.1,193.1z M229.6,191.9l-1.6-3.7l-1.6,3.7H229.6
			z"/>
		<path class="st0" d="M232.9,194.1l0.5-1.2c0.7,0.5,1.7,0.9,2.8,0.9c1.3,0,1.9-0.5,1.9-1.1c0-1.8-5-0.6-5-3.7
			c0-1.4,1.1-2.5,3.4-2.5c1,0,2.1,0.3,2.8,0.7l-0.5,1.2c-0.8-0.4-1.6-0.7-2.3-0.7c-1.3,0-1.8,0.5-1.8,1.1c0,1.8,5,0.6,5,3.7
			c0,1.3-1.1,2.5-3.4,2.5C235,195.1,233.6,194.7,232.9,194.1z"/>
	</g>
</g>
</svg>
