<?xml version="1.0" encoding="utf-8"?>
<!-- Generator: Adobe Illustrator 24.3.0, SVG Export Plug-In . SVG Version: 6.00 Build 0)  -->
<svg version="1.1" id="layer" xmlns="http://www.w3.org/2000/svg" xmlns:xlink="http://www.w3.org/1999/xlink" x="0px" y="0px"
	 viewBox="0 0 344.8 249.6" style="enable-background:new 0 0 344.8 249.6;" xml:space="preserve">
<style type="text/css">
	.st0{fill:#FFFFFF;}
</style>
<g>
	<g>
		<g>
			<path class="st0" d="M233.2,112.2c5.1-3.7,10.1-7.3,15.2-11c-8.6-12-24.5-18.3-38.9-15.4c-14.5,2.8-26.8,14.6-30.2,29
				c-5.4,22.7,11.4,44.8,33.3,47.5c3.2,0.4,6.5,0.4,9.8-0.1c10.3-1.4,19.9-7.3,25.9-15.8c-5.1-3.7-10.1-7.3-15.2-11
				c-6.5,9-21.2,10.5-29.5,3.1c-8.3-7.5-8.2-22.2,0.1-29.6C212.1,101.5,226.7,103.2,233.2,112.2z"/>
		</g>
	</g>
	<g>
		<g>
			<path class="st0" d="M82.6,137.5C68.9,119.8,55.8,103,42.8,86.2c-4.3,0-8.3,0-12.3,0c0,24.7,0,49.4,0,74.1c4.1,0,8.2,0,12.8,0
				c0-17.3,0-34.3,0-51.3c0.3-0.1,0.6-0.2,0.9-0.3c13.3,17.2,26.6,34.3,39.9,51.5c3.9,0,7.6,0,11.4,0c0-24.8,0-49.2,0-73.7
				c-4.4,0-8.5,0-13,0C82.6,103.3,82.6,119.8,82.6,137.5z"/>
		</g>
	</g>
	<g>
		<g>
			<path class="st0" d="M303.2,122.5c-2.8-1.4-5.7-2.4-8.7-3.3c-4.8-1.5-9.7-2.6-14.4-4.2c-6.6-2.3-7.9-4.7-7.1-11.6
				c1.8-3.5,4.9-5.4,8.7-5.7c3.1-0.2,6.3-0.2,9.2,0.7c4.8,1.5,9.4,3.9,14.4,6c2-2.8,4.3-6,6.6-9.2c-10.7-8.6-22.4-11-35-8.6
				c-4.8,0.9-8.9,3.5-12.4,7.1c-7.1,7.3-8.7,24.9,5.5,31.4c3,1.4,6,2.5,9.2,3.4c3.9,1.2,8,2,12,3.2s7.8,2.9,9.6,7.1
				c0.3,7.2-2.9,10.8-10.1,11.5c-8.5,0.8-16.1-1.4-22.8-6.5c-1.2-0.9-2.4-1.7-3.7-2.6c-2.8,3.3-5.4,6.2-7.9,9.1
				c1.7,1.3,3.4,2.6,5.1,3.8l0,0c0,0,0.8,0.6,2.2,1.5c1.5,0.9,3,1.7,4.5,2.5c8.1,3.9,22.2,8.3,35.6,0.4c7.4-4,10.6-10.6,10.6-18.7
				C314.3,131.7,310.3,126,303.2,122.5z"/>
		</g>
	</g>
	<g>
		<g>
			<path class="st0" d="M134.7,86.3C123.8,111,113,135.5,102,160.5c4.9,0,9,0,13.4,0c2.5-5.8,5.1-11.6,7.6-17.3c12,0,23.6,0,35.1,0
				c2.6,6.1,5.2,12,7.6,17.8c4.8,0,9,0,13.8,0c-11-25.2-21.8-50-32.5-74.6C142.7,86.3,138.8,86.3,134.7,86.3z M127.9,131.2
				c4.2-9.8,8.3-19.2,12.7-29.5c4.5,10.4,8.5,19.8,12.8,29.5C144.8,131.2,136.7,131.2,127.9,131.2z"/>
		</g>
	</g>
</g>
</svg>
