<?xml version="1.0" encoding="utf-8"?>
<!-- Generator: Adobe Illustrator 24.3.0, SVG Export Plug-In . SVG Version: 6.00 Build 0)  -->
<svg version="1.1" id="Layer_1" xmlns="http://www.w3.org/2000/svg" xmlns:xlink="http://www.w3.org/1999/xlink" x="0px" y="0px"
	 viewBox="0 0 78.4 8.6" style="enable-background:new 0 0 78.4 8.6;" xml:space="preserve">
<style type="text/css">
	.st0{fill:#FFFFFF;}
</style>
<g>
	<path class="st0" d="M6.3,6c0,1.5-1,2.6-3.2,2.6c-1.2,0-2.4-0.4-3.1-1l0.6-0.9c0.6,0.5,1.5,0.9,2.5,0.9c1.3,0,2-0.6,2-1.5
		c0-0.9-0.6-1.5-2.5-1.5H0.6l0.4-4.4h4.7v1H2.1L1.8,3.4h0.9C5.3,3.4,6.3,4.5,6.3,6z"/>
	<path class="st0" d="M9.9,0.1v8.4H8.7V1.1H6.8v-1H9.9z"/>
	<path class="st0" d="M17.6,7.4v1h-6V7.7L15,4.4C15.9,3.5,16,3,16,2.5c0-0.9-0.6-1.4-1.8-1.4c-0.9,0-1.6,0.3-2.1,0.9l-0.8-0.7
		C11.9,0.5,13.1,0,14.4,0c1.8,0,2.9,0.9,2.9,2.3c0,0.8-0.2,1.5-1.4,2.6l-2.6,2.5H17.6z"/>
	<path class="st0" d="M18.6,4.7h3.2v1h-3.2V4.7z"/>
	<path class="st0" d="M29.1,0.1v0.8l-3.4,7.6h-1.3l3.3-7.4h-3.8v1.5h-1.2V0.1H29.1z"/>
	<path class="st0" d="M36.4,5.9c0,1.6-1.3,2.7-3,2.7c-2.3,0-3.5-1.5-3.5-4.2c0-2.9,1.6-4.4,4-4.4c0.8,0,1.5,0.2,2.1,0.5l-0.5,0.9
		c-0.4-0.3-1-0.4-1.6-0.4c-1.7,0-2.8,1.1-2.8,3.2c0,0.1,0,0.2,0,0.3c0.5-0.7,1.4-1.1,2.4-1.1C35.2,3.4,36.4,4.4,36.4,5.9z M35.3,6
		c0-1-0.7-1.6-1.9-1.6c-1.1,0-1.9,0.7-1.9,1.6c0,0.9,0.7,1.6,2,1.6C34.5,7.6,35.3,7,35.3,6z"/>
	<path class="st0" d="M43.8,5.9c0,1.6-1.3,2.7-3,2.7c-2.3,0-3.5-1.5-3.5-4.2c0-2.9,1.6-4.4,4-4.4c0.8,0,1.5,0.2,2.1,0.5l-0.5,0.9
		c-0.4-0.3-1-0.4-1.6-0.4c-1.7,0-2.8,1.1-2.8,3.2c0,0.1,0,0.2,0,0.3c0.5-0.7,1.4-1.1,2.4-1.1C42.6,3.4,43.8,4.4,43.8,5.9z M42.7,6
		c0-1-0.7-1.6-1.9-1.6c-1.1,0-1.9,0.7-1.9,1.6c0,0.9,0.7,1.6,2,1.6C41.9,7.6,42.7,7,42.7,6z"/>
	<path class="st0" d="M44.9,4.7h3.2v1h-3.2V4.7z"/>
	<path class="st0" d="M56.8,6.4h-1.6v2.1H54V6.4h-4.7V5.6l4.3-5.5h1.3l-4.1,5.3H54V3.6h1.1v1.8h1.6V6.4z"/>
	<path class="st0" d="M63.7,4.2c0,2.9-1.6,4.4-4,4.4c-0.8,0-1.5-0.2-2.1-0.5l0.5-0.9c0.4,0.3,1,0.4,1.6,0.4c1.7,0,2.8-1.1,2.8-3.2
		V4.1C62,4.8,61.1,5.2,60,5.2c-1.7,0-2.9-1-2.9-2.5c0-1.6,1.3-2.7,3-2.7C62.4,0,63.7,1.5,63.7,4.2z M62.2,2.6c0-0.9-0.7-1.6-2-1.6
		c-1.1,0-1.8,0.6-1.8,1.6c0,1,0.7,1.6,1.9,1.6C61.4,4.2,62.2,3.5,62.2,2.6z"/>
	<path class="st0" d="M71.4,6.1c0,1.5-1.3,2.5-3.3,2.5c-2,0-3.3-0.9-3.3-2.5c0-1,0.5-1.7,1.5-2c-0.8-0.4-1.2-1-1.2-1.8
		c0-1.4,1.2-2.3,3-2.3c1.8,0,3,0.9,3,2.3c0,0.8-0.4,1.5-1.2,1.8C70.9,4.5,71.4,5.2,71.4,6.1z M70.2,6.1c0-0.9-0.8-1.5-2.1-1.5
		c-1.3,0-2.1,0.6-2.1,1.5c0,0.9,0.8,1.5,2.1,1.5C69.4,7.6,70.2,7,70.2,6.1z M66.2,2.3c0,0.8,0.7,1.3,1.8,1.3c1.2,0,1.9-0.5,1.9-1.3
		C70,1.5,69.2,1,68.1,1C67,1,66.2,1.5,66.2,2.3z"/>
	<path class="st0" d="M78.4,7.4v1h-6V7.7l3.4-3.3c0.9-0.9,1.1-1.4,1.1-1.9c0-0.9-0.6-1.4-1.8-1.4c-0.9,0-1.6,0.3-2.1,0.9l-0.8-0.7
		C72.8,0.5,73.9,0,75.2,0c1.8,0,2.9,0.9,2.9,2.3c0,0.8-0.2,1.5-1.4,2.6l-2.6,2.5H78.4z"/>
</g>
</svg>
