<?xml version="1.0" encoding="utf-8"?>
<!-- Generator: Adobe Illustrator 24.3.0, SVG Export Plug-In . SVG Version: 6.00 Build 0)  -->
<svg version="1.1" id="Layer_1" xmlns="http://www.w3.org/2000/svg" xmlns:xlink="http://www.w3.org/1999/xlink" x="0px" y="0px"
	 viewBox="0 0 93.8 12.1" style="enable-background:new 0 0 93.8 12.1;" xml:space="preserve">
<style type="text/css">
	.st0{fill:#FFFFFF;}
</style>
<g>
	<path class="st0" d="M7.9,1.3C8.7,2,9.1,3,9.1,4.4S8.7,6.9,7.8,7.5C7,8.2,5.7,8.5,4,8.5H2v3.4H0V0.3h4C5.8,0.3,7.1,0.6,7.9,1.3z
		 M6.5,6.1c0.4-0.4,0.6-1,0.6-1.8c0-0.8-0.3-1.4-0.8-1.7C5.8,2.2,5,2.1,4,2.1H2v4.7h2.3C5.3,6.7,6.1,6.5,6.5,6.1z"/>
	<path class="st0" d="M20.7,4.1c0,1.9-0.8,3.1-2.5,3.6l3.1,4.2h-2.5L16,8h-2.6v3.9h-2V0.3h4.3c1.8,0,3.1,0.3,3.8,0.9
		C20.3,1.8,20.7,2.7,20.7,4.1z M18.1,5.7c0.4-0.3,0.6-0.9,0.6-1.7s-0.2-1.3-0.6-1.6c-0.4-0.3-1.1-0.4-2.2-0.4h-2.5v4.2h2.5
		C16.9,6.2,17.7,6.1,18.1,5.7z"/>
	<path class="st0" d="M33.3,10.3c-1.2,1.2-2.6,1.7-4.4,1.7c-1.7,0-3.2-0.6-4.4-1.7c-1.2-1.2-1.8-2.6-1.8-4.3s0.6-3.2,1.8-4.3
		S27.2,0,28.9,0c1.7,0,3.2,0.6,4.4,1.7c1.2,1.2,1.8,2.6,1.8,4.3S34.5,9.2,33.3,10.3z M31.9,3c-0.8-0.8-1.8-1.2-2.9-1.2
		c-1.2,0-2.1,0.4-2.9,1.2c-0.8,0.8-1.2,1.8-1.2,3c0,1.2,0.4,2.2,1.2,3s1.8,1.2,2.9,1.2c1.2,0,2.1-0.4,2.9-1.2c0.8-0.8,1.2-1.8,1.2-3
		C33.1,4.9,32.7,3.9,31.9,3z"/>
	<path class="st0" d="M46.4,1.8c1.1,1,1.7,2.4,1.7,4.2c0,1.8-0.5,3.2-1.6,4.3c-1.1,1.1-2.8,1.6-5,1.6h-3.9V0.3h4
		C43.7,0.3,45.3,0.8,46.4,1.8z M46.1,6.1c0-2.7-1.5-4-4.6-4h-2v8h2.2c1.4,0,2.5-0.3,3.2-1C45.7,8.4,46.1,7.4,46.1,6.1z"/>
	<path class="st0" d="M53.2,9.3c0.5,0.6,1.3,0.9,2.2,0.9c0.9,0,1.6-0.3,2.2-0.9c0.5-0.6,0.8-1.5,0.8-2.5V0.3h2v6.5
		c0,1.7-0.5,3-1.4,3.9s-2.1,1.4-3.6,1.4c-1.4,0-2.6-0.5-3.6-1.4c-0.9-0.9-1.4-2.2-1.4-3.9V0.3h2v6.5C52.4,7.8,52.7,8.7,53.2,9.3z"/>
	<path class="st0" d="M68.7,10.2c0.7,0,1.3-0.1,1.8-0.3c0.5-0.2,1-0.6,1.5-1.1l1.3,1.3c-1.2,1.4-2.7,2.1-4.5,2.1s-3.2-0.6-4.4-1.7
		c-1.2-1.1-1.7-2.6-1.7-4.3c0-1.7,0.6-3.2,1.8-4.3C65.6,0.6,67.1,0,68.9,0c1.8,0,3.3,0.7,4.5,2l-1.3,1.4c-0.6-0.5-1.1-0.9-1.6-1.1
		s-1.1-0.3-1.7-0.3c-1.2,0-2.2,0.4-3,1.1S64.7,4.8,64.7,6s0.4,2.2,1.2,3S67.6,10.2,68.7,10.2z"/>
	<path class="st0" d="M80.1,2.1v9.9h-2V2.1h-3.5V0.3h9v1.8H80.1z"/>
	<path class="st0" d="M89.3,1.8c-0.6,0-1,0.1-1.4,0.4s-0.6,0.6-0.6,1.1s0.2,0.8,0.6,1.1c0.4,0.2,1.1,0.5,2.3,0.8
		c1.2,0.3,2.1,0.7,2.7,1.2c0.6,0.5,0.9,1.3,0.9,2.3s-0.4,1.8-1.2,2.5s-1.8,1-3,1c-1.8,0-3.4-0.6-4.9-1.9l1.2-1.5
		c1.2,1,2.4,1.5,3.7,1.5c0.6,0,1.1-0.1,1.5-0.4c0.4-0.3,0.6-0.6,0.6-1.1s-0.2-0.8-0.5-1.1c-0.4-0.2-1-0.5-1.8-0.7
		c-0.9-0.2-1.5-0.4-2-0.6S86.7,6,86.3,5.8c-0.7-0.5-1-1.3-1-2.4c0-1.1,0.4-1.9,1.2-2.5C87.2,0.3,88.2,0,89.4,0
		c0.7,0,1.5,0.1,2.2,0.4c0.7,0.2,1.4,0.6,1.9,1l-1.1,1.5c-0.3-0.3-0.8-0.6-1.4-0.8S89.9,1.8,89.3,1.8z"/>
</g>
</svg>
