<?xml version="1.0" encoding="utf-8"?>
<!-- Generator: Adobe Illustrator 24.3.0, SVG Export Plug-In . SVG Version: 6.00 Build 0)  -->
<svg version="1.1" id="layer" xmlns="http://www.w3.org/2000/svg" xmlns:xlink="http://www.w3.org/1999/xlink" x="0px" y="0px"
	 viewBox="0 0 344.8 249.6" style="enable-background:new 0 0 344.8 249.6;" xml:space="preserve">
<style type="text/css">
	.st0{fill:#FFFFFF;}
</style>
<g>
	<g>
		<g>
			<path class="st0" d="M155.1,70c9.6,0.4,19.2-0.8,28.6,0.7c7.7,1.3,12,5.9,13.1,13.1c1,7.2-1.8,12.8-8.5,16.5
				c-0.2,0.1-0.4,0.3-0.8,0.6c3.6,5.3,7.2,10.5,11,16c-5.2,0-10.1,0-15.3,0c-3-4.5-6.2-9.2-9.3-13.9c-1.9,0-3.6,0-5.5,0
				c0,4.6,0,9.2,0,13.9c-4.5,0-8.7,0-13.1,0C155.1,101.4,155.1,85.9,155.1,70z M168.2,92.5c3.5,0,6.7,0.1,9.9,0
				c3.1-0.1,5.2-2.2,5.5-5c0.3-2.9-1.4-5.3-4.6-5.6c-3.5-0.4-7.2-0.1-10.7-0.1C168.2,85.3,168.2,88.8,168.2,92.5z"/>
		</g>
	</g>
	<g>
		<g>
			<path class="st0" d="M234.2,178.7c-14.4,0-25.3-10.4-25.4-24.2c0-13.9,11.1-24.6,25.6-24.6c14.3,0,25.4,10.7,25.3,24.4
				C259.7,168.1,248.7,178.7,234.2,178.7z M246.2,154.4c0-7.2-5.2-12.7-11.9-12.7c-6.6,0-11.9,5.7-11.9,12.6
				c0.1,7,5.3,12.5,11.9,12.5C241.1,166.9,246.1,161.6,246.2,154.4z"/>
		</g>
	</g>
	<g>
		<g>
			<path class="st0" d="M31.8,131c12.7,0,25.2,0,37.8,0c0,3.7,0,7.2,0,11c-8.2,0-16.4,0-24.6,0c0,2.3,0,4.4,0,6.8
				c7.4,0,14.7,0,22.2,0c0,3.6,0,6.9,0,10.5c-7.4,0-14.7,0-22.1,0c0,2.4,0,4.7,0,7.1c8.3,0,16.5,0,24.9,0c0,3.8,0,7.5,0,11.2
				c-12.7,0-25.4,0-38.1,0C31.8,162.1,31.8,146.6,31.8,131z"/>
		</g>
	</g>
	<g>
		<g>
			<path class="st0" d="M89.3,70.2c4.6,0,8.9,0,13.2,0c0.5,1,0.3,1.9,0.3,2.8c0,8.1-0.1,16.3,0,24.4c0.1,6.3,4.6,9.8,10.7,8.4
				c3-0.7,4.9-2.6,5.7-5.5c0.4-1.7,0.5-3.4,0.5-5.1c0-8.3,0-16.6,0-24.9c4.5,0,8.8,0,13.4,0c0,7.2,0,14.3,0,21.5
				c0,3,0.2,6.1-0.2,9.1c-1.6,10.8-8.5,16.7-19.5,17.2c-3.1,0.1-6.3,0.1-9.3-0.7c-9-2.1-14.1-7.7-14.7-17.6
				C88.8,90,89.3,80.2,89.3,70.2z"/>
		</g>
	</g>
	<g>
		<g>
			<path class="st0" d="M70.2,75.7c-2.2,3.1-4.4,6.1-6.5,9.2c-3.8-2.5-7.7-4.3-12.2-4.6c-0.5,0-1-0.1-1.5-0.1
				c-1.8,0.3-3.8,0.4-4.1,2.8c-0.2,2.2,1.6,2.9,3.2,3.4c3.6,1.1,7.3,2,10.9,3c0.9,0.2,1.7,0.6,2.5,0.9c5.5,2.2,9,5.9,8.9,12.2
				c-0.1,6.5-3,11.2-9,13.4c-11.7,4.3-22.4,1.6-32.5-5.8c2.6-3.1,5-6,7.5-9c4.3,3.2,8.9,5.4,14.3,5.6c1.4,0,2.8,0.1,4.2-0.4
				c1.2-0.4,2-1.1,2.1-2.4s-0.5-2.2-1.7-2.8c-1.8-1-3.8-1.5-5.8-1.9c-3.2-0.7-6.4-1.5-9.5-2.8c-5.2-2.2-8.6-5.7-8.7-11.7
				c-0.1-6.1,2.5-10.6,7.9-13.4C48.7,67.1,62.9,69.1,70.2,75.7z"/>
		</g>
	</g>
	<g>
		<g>
			<path class="st0" d="M119.1,153.8c5.3,7.9,10.6,15.7,16,23.8c-5.1,0-10,0-15.2,0c-2.8-4.3-5.7-8.9-8.8-13.7
				c-3,4.7-6,9.2-8.9,13.8c-4.9,0-9.7,0-14.9,0c5.4-8,10.7-15.8,16.1-23.8c-5.1-7.6-10.1-15.1-15.4-22.9c5.2,0,10.1,0,15.2,0
				c2.6,4,5.2,8.3,8.1,12.8c2.8-4.4,5.5-8.6,8.2-12.9c4.8,0,9.6,0,14.9,0C129.2,138.7,124.2,146.2,119.1,153.8z"/>
		</g>
	</g>
	<g>
		<g>
			<path class="st0" d="M168.1,164.4c0,4.5,0,8.9,0,13.3c-4.5,0-8.7,0-13.1,0c0-15.5,0-31,0-46.5c0.5-0.5,1.2-0.3,1.8-0.3
				c7.9,0.2,15.8-0.7,23.7,0.5c9.1,1.4,14.3,7.5,14.3,16s-5.4,14.8-14.3,16.5c-3.1,0.6-6.2,0.4-9.4,0.5
				C170.2,164.4,169.3,164.4,168.1,164.4z M168.2,154.1c3.2-0.2,6.3,0.4,9.3-0.5c2.7-0.9,4.1-3,4-5.8s-1.6-4.8-4.4-5.5
				c-2.9-0.7-5.8-0.6-8.9-0.3C168.2,146,168.2,149.9,168.2,154.1z"/>
		</g>
	</g>
	<g>
		<g>
			<path class="st0" d="M231.5,81.5c0,2.5,0,4.6,0,6.7c0,0.3,0.1,0.6,0.2,1.1c7.3,0,14.5,0,21.9,0c0,3.7,0,7.2,0,10.9
				c-7.3,0-14.6,0-22.1,0c0,5.7,0,11.2,0,16.7c-4.5,0-8.8,0-13.2,0c0-15.5,0-31,0-46.7c12.4,0,24.9,0,37.6,0c0,3.6,0,7.3,0,11.2
				C247.9,81.5,239.9,81.5,231.5,81.5z"/>
		</g>
	</g>
	<g>
		<g>
			<path class="st0" d="M314.6,158.6c-13.5-2.9-27.1-3-40.6,0c-0.6-1.9,0-3.5,0.6-5.1c3.1-7.5,9.1-11.2,17-12.1
				c8.2-0.9,15.3,1.4,20.6,8.1C314.4,152.4,315.2,155.6,314.6,158.6z"/>
		</g>
	</g>
	<g>
		<g>
			<path class="st0" d="M314.8,131c0,4.8,0,9.4,0,14.4c-5.9-5.7-12.7-8.4-20.7-8.2c-7.9,0.2-14.6,3.3-20.6,8.8c0-5.2,0-10,0-15
				C287.3,131,301,131,314.8,131z"/>
		</g>
	</g>
	<g>
		<g>
			<path class="st0" d="M314.6,108.4c0.5,1.2,0,1.7-0.7,2.1c-11.3,7.2-27.6,8.6-40.2,3.3c-0.4-1.2-0.3-2.4-0.1-3.8
				C287.2,105.5,300.8,104.8,314.6,108.4z"/>
		</g>
	</g>
	<g>
		<g>
			<path class="st0" d="M273.8,98.9c0-4.9,0-9.4,0-14.1c13.4-4,27-4,40.5-1.3c0.6,0.9,0.6,1.6,0.1,2.4
				C299.9,86.4,286.4,90.9,273.8,98.9z"/>
		</g>
	</g>
	<g>
		<g>
			<path class="st0" d="M273.8,105.9c-0.9-1.4-0.4-2.1,0.7-2.8c8.7-5.5,18.1-9.2,28.5-10.2c3.9-0.4,7.7-0.4,11.7-0.4
				c0,4.5,0,8.7,0,13.3C301,100.7,287.3,101.1,273.8,105.9z"/>
		</g>
	</g>
	<g>
		<g>
			<path class="st0" d="M273.5,79.5c0-3.3,0-6.2,0-9.3c13.8,0,27.4,0,41.2,0c0,2.6,0,5.2,0,8.1C301.1,76.2,287.3,76.4,273.5,79.5z"
				/>
		</g>
	</g>
	<g>
		<g>
			<path class="st0" d="M277.3,165.3c5.9-4.4,31.3-4,33.6,0.3C306.4,170.2,280.3,169.6,277.3,165.3z"/>
		</g>
	</g>
	<g>
		<g>
			<path class="st0" d="M307.1,175.4c-4.2,3.1-19.9,3.2-25.6,0.2C284.9,172.3,302,172.2,307.1,175.4z"/>
		</g>
	</g>
</g>
</svg>
