<?xml version="1.0" encoding="utf-8"?>
<!-- Generator: Adobe Illustrator 24.3.0, SVG Export Plug-In . SVG Version: 6.00 Build 0)  -->
<svg version="1.1" id="Layer_1" xmlns="http://www.w3.org/2000/svg" xmlns:xlink="http://www.w3.org/1999/xlink" x="0px" y="0px"
	 viewBox="0 0 55.2 12.2" style="enable-background:new 0 0 55.2 12.2;" xml:space="preserve">
<style type="text/css">
	.st0{fill:#FFFFFF;}
</style>
<g>
	<path class="st0" d="M5.6,2.1V12h-2V2.1H0V0.3h9.1v1.8H5.6z"/>
	<path class="st0" d="M13.9,9.4c0.5,0.6,1.3,0.9,2.2,0.9c0.9,0,1.6-0.3,2.2-0.9c0.5-0.6,0.8-1.5,0.8-2.6V0.3h2v6.6
		c0,1.7-0.5,3-1.4,3.9s-2.1,1.4-3.6,1.4s-2.7-0.5-3.6-1.4c-0.9-0.9-1.4-2.2-1.4-3.9V0.3h2v6.5C13.1,7.9,13.4,8.7,13.9,9.4z"/>
	<path class="st0" d="M29.3,12h-5.1V0.3h4.6c0.8,0,1.5,0.1,2.1,0.3c0.6,0.2,1,0.4,1.3,0.8c0.5,0.6,0.8,1.3,0.8,2.1
		c0,0.9-0.3,1.6-0.9,2.1c-0.2,0.2-0.4,0.3-0.4,0.3c-0.1,0-0.2,0.1-0.4,0.2c0.7,0.2,1.3,0.5,1.7,1s0.6,1.1,0.6,1.9
		c0,0.8-0.3,1.5-0.8,2.2C32.1,11.7,30.9,12,29.3,12z M26.2,5.2h2.5c1.4,0,2.2-0.5,2.2-1.5c0-0.6-0.2-1-0.5-1.2
		c-0.3-0.2-0.9-0.4-1.6-0.4h-2.5V5.2z M26.2,10.2h3.1c0.7,0,1.3-0.1,1.7-0.3c0.4-0.2,0.6-0.7,0.6-1.3c0-1-0.8-1.6-2.5-1.6h-2.9V10.2
		z"/>
	<path class="st0" d="M44.3,0.3v1.9h-6.3v3.1h5.6V7h-5.6v3.1h6.5V12h-8.5V0.3H44.3z"/>
	<path class="st0" d="M50.6,1.8c-0.6,0-1.1,0.1-1.4,0.4c-0.4,0.2-0.6,0.6-0.6,1.1s0.2,0.8,0.6,1.1s1.2,0.5,2.4,0.8
		c1.2,0.3,2.1,0.7,2.7,1.2c0.6,0.5,0.9,1.3,0.9,2.3s-0.4,1.9-1.2,2.5c-0.8,0.6-1.8,1-3,1c-1.8,0-3.5-0.6-4.9-1.9l1.2-1.5
		c1.2,1,2.4,1.5,3.7,1.5c0.6,0,1.1-0.1,1.5-0.4c0.4-0.3,0.6-0.6,0.6-1.1c0-0.5-0.2-0.8-0.5-1.1s-1-0.5-1.8-0.7
		c-0.9-0.2-1.5-0.4-2-0.6c-0.4-0.2-0.8-0.4-1.2-0.7c-0.7-0.5-1-1.3-1-2.4s0.4-1.9,1.2-2.5S49.5,0,50.7,0c0.8,0,1.5,0.1,2.2,0.4
		c0.7,0.2,1.4,0.6,1.9,1l-1.1,1.5c-0.3-0.3-0.8-0.6-1.4-0.8C51.8,1.9,51.2,1.8,50.6,1.8z"/>
</g>
<g>
	<path class="st0" d="M5.6,2.1V12h-2V2.1H0V0.3h9.1v1.8H5.6z"/>
	<path class="st0" d="M13.9,9.4c0.5,0.6,1.3,0.9,2.2,0.9c0.9,0,1.6-0.3,2.2-0.9c0.5-0.6,0.8-1.5,0.8-2.6V0.3h2v6.6
		c0,1.7-0.5,3-1.4,3.9s-2.1,1.4-3.6,1.4s-2.7-0.5-3.6-1.4c-0.9-0.9-1.4-2.2-1.4-3.9V0.3h2v6.5C13.1,7.9,13.4,8.7,13.9,9.4z"/>
	<path class="st0" d="M29.3,12h-5.1V0.3h4.6c0.8,0,1.5,0.1,2.1,0.3c0.6,0.2,1,0.4,1.3,0.8c0.5,0.6,0.8,1.3,0.8,2.1
		c0,0.9-0.3,1.6-0.9,2.1c-0.2,0.2-0.4,0.3-0.4,0.3c-0.1,0-0.2,0.1-0.4,0.2c0.7,0.2,1.3,0.5,1.7,1s0.6,1.1,0.6,1.9
		c0,0.8-0.3,1.5-0.8,2.2C32.1,11.7,30.9,12,29.3,12z M26.2,5.2h2.5c1.4,0,2.2-0.5,2.2-1.5c0-0.6-0.2-1-0.5-1.2
		c-0.3-0.2-0.9-0.4-1.6-0.4h-2.5V5.2z M26.2,10.2h3.1c0.7,0,1.3-0.1,1.7-0.3c0.4-0.2,0.6-0.7,0.6-1.3c0-1-0.8-1.6-2.5-1.6h-2.9V10.2
		z"/>
	<path class="st0" d="M44.3,0.3v1.9h-6.3v3.1h5.6V7h-5.6v3.1h6.5V12h-8.5V0.3H44.3z"/>
	<path class="st0" d="M50.6,1.8c-0.6,0-1.1,0.1-1.4,0.4c-0.4,0.2-0.6,0.6-0.6,1.1s0.2,0.8,0.6,1.1s1.2,0.5,2.4,0.8
		c1.2,0.3,2.1,0.7,2.7,1.2c0.6,0.5,0.9,1.3,0.9,2.3s-0.4,1.9-1.2,2.5c-0.8,0.6-1.8,1-3,1c-1.8,0-3.5-0.6-4.9-1.9l1.2-1.5
		c1.2,1,2.4,1.5,3.7,1.5c0.6,0,1.1-0.1,1.5-0.4c0.4-0.3,0.6-0.6,0.6-1.1c0-0.5-0.2-0.8-0.5-1.1s-1-0.5-1.8-0.7
		c-0.9-0.2-1.5-0.4-2-0.6c-0.4-0.2-0.8-0.4-1.2-0.7c-0.7-0.5-1-1.3-1-2.4s0.4-1.9,1.2-2.5S49.5,0,50.7,0c0.8,0,1.5,0.1,2.2,0.4
		c0.7,0.2,1.4,0.6,1.9,1l-1.1,1.5c-0.3-0.3-0.8-0.6-1.4-0.8C51.8,1.9,51.2,1.8,50.6,1.8z"/>
</g>
</svg>
