<?xml version="1.0" encoding="utf-8"?>
<!-- Generator: Adobe Illustrator 24.3.0, SVG Export Plug-In . SVG Version: 6.00 Build 0)  -->
<svg version="1.1" id="layer" xmlns="http://www.w3.org/2000/svg" xmlns:xlink="http://www.w3.org/1999/xlink" x="0px" y="0px"
	 viewBox="0 0 292.4 249.6" style="enable-background:new 0 0 292.4 249.6;" xml:space="preserve">
<style type="text/css">
	.st0{fill:#FFFFFF;}
	.st1{fill:none;stroke:#000000;stroke-miterlimit:10;}
</style>
<g>
	<g>
		<g>
			<path class="st0" d="M250.7,138.5c2.3-2.3,4.3-6.2,7.1-7.6c1.7-3,5.2,1.5,1.9,3.4c-1,1.1-2.2,2.2-3.3,3.3c-2,2.2-0.4,2.6,0.9,0.6
				c2.4-3.1,5.5-7.5,9.6-4.9c1.7-1.3,3.6-2.7,5.7-1.4c1.3,0.9-0.5,2.4,0.6,3.2c3.9-2.2,5.3,2.2,1.1,3.2c-1.4,0.3-2.7,0.8-4.1,1.1
				c-1-0.3,0-1.1-0.4-1.6c-0.5-0.1-0.9,0.8-0.6,1.1c0.6,4.6-7.6,3.4-7.4,7.4c-2.2,3.5-7.9,1.8-10.5,5.1c-1,1.4-1.2,3.4-3.4,3.6
				c-2.5,1.2-5.2,1.7-7.6,3.1c-0.6,1.3,1.5,2.5,1.1,4c-1.6,2.3-4.9,2.9-6.7,5.2c-1.1,0.9-1.9,2.2-2.8,3.3c-2.4,1.4-4.9,1.7-7.4,2.1
				c-11,21.5-31.7,37.9-54.1,45.9c-75.2,25-144.7-38.7-131-114.2C52.6,34,137.9,0.5,195.5,42.4c28.1,19.9,44.6,54.5,42,88.8
				c-0.8,1.9-0.4,2.4,0.9,3.8c-0.3,8.3,7.3-16.1,11.8-8.6c0.6,3.4-2.2,5.3-4.3,7.6c-1.4,2.4-4.1,4.6-5.4,7.3
				c2.6,0.2,6.1-10.4,7.9-2.9c-1.7,4.2-7.5,7.2-9.1,11.4c3.2,0.6,4.5-4.8,7.4-5.1c0.6,0.1,1.6-1.4,1.9-2.2
				C248.9,141.1,250.6,140.1,250.7,138.5z M125.4,215.7L125.4,215.7L125.4,215.7c0-0.3-0.2-0.1-0.3-0.2c0-0.1,0-0.1-0.2-0.1
				c-0.5-0.5-0.5-1.2-0.9-1.6c-1-3.7-0.9-7.1,0.1-10.9c1.5-6.1,6.3-11.2,9.4-2.8c0.1-1.4,0.3-2.9,0.2-4.3c-1.8-0.8-3.4-2.5-5.6-2
				c-4.9,1.1-8,7-8.8,11.3c-2.1,8.2,3.3,15.3,11.4,11.7c1.2-0.3,2.3-5.6,1-3.1c-0.4,0.8-1.2,1.1-1.6,1.8
				C129,215.9,126.8,216.3,125.4,215.7z M155.3,208.3c-2.4-4.6-4.1-10-6.2-14.5c-0.5-0.9-2.6,1-2.8,1.6c-1.4,2.2-0.6,5.6-1.6,8.1
				c-0.5,4.9-3.1,10-3.6,14.5c5.5-0.6,2.2-0.4,2.7-4.4c0.5-1,0.2-2.4,0.7-3.4c0.7-1.2,4.9-1.1,6.3-1.2c3.4,3.6,0.2,9.6,5.2,6.9
				c2-0.2,4.4-0.1,2.2-2.4C157.4,211.9,156.1,210.1,155.3,208.3z M162.9,131.6c0-0.3-0.2,0-0.4-0.2c-1.2-2.5-2.7-6.3-1.5-9.7
				c-0.9-4.8-0.6-3.5,0.7-8.4c-0.5-3.2-1.1,1.9-4.3-1.8c-0.8,3.8-1,7.9-0.8,11.8c2.8,2.3,1.8,6.1,2,9.2c-0.1,0.1,0,0.2,0,0.3
				c-1.6,1.7,1.7,4.5,0.1,5.9c-4.3-1.8-0.6-9.5-1.8-12.8c0.1-1.6-1.8-0.4-1.7,0.6c0.8,1.9,0,3.6-0.7,5.3c-0.8,3,0.7,5.8,1.4,8.6
				c1,1.8,1.3,8.4-2,6.2c1.3-4.7-2.2-6-0.9-13.5c-1.1-3.4-0.7-7-1.8-10.4c-0.4-2.4-4.2-8.7,0-8.8c0.7,0.4,0.9,2.7,1.7,1.9
				c0.8-6.9-3.2,0.6-4.1-8.1c-0.3-3.3-2.9-17.7-2.4-6.2c0.5,1.9,0.2,3.8,0.9,5.6c0.6,2.1,0,3.6-1.9,4.6c0.9,3.1,0.2,6.2-1.1,8.9
				c-2.1,1.9-3.7,1.5-4.1-1.4c0.3-1.2-0.6-2.6-0.3-4.1c0.3-2.6,0.7-4.6,1.1-7.1c0.6-3,1.3-6.2,0.7-9.4c-0.3-0.7-1.8-0.1-2.4-0.7
				c-0.9,0.2-1.1-2.6-1.9-0.7c-0.1,2.5,1.5,5-0.7,7.1c-1,13.2-4.6,25.5-6.1,38.7c-0.7,7.1-3.3,13.4-1.1,20.9
				c4.7,17.1,23.5-9.6,27.3-16.3c6.6-9.4,3.6,4,7.7-5c0.9-0.7,2.6-3.4,4.1-1.8c0.4,1.9-2,3.9,0,5.7c0.6,1.3,1.6-0.1,1.8-0.8
				c1-0.3,2.7-1,3.1,0.6c2.9,0.1,6.1-11.1,10.4-7.5c1,1.7-4,6.7-0.2,6.4c0.9-1.3,2.5-1.4,3.8-1c1.6-2.9,2.5-6.1,5.4-7.9
				c2.1-1,1.7,1.3,1.8,2.6c2.7-1,4.1-6,5.6-8.6c-0.9-1.5-3.6,4.9-4.9,4.1c-0.7-1.4,0.7-3.5-0.6-4.7c-1.8-0.2,0.8,5.7-1.4,4.5
				c-0.3-1-0.8-1.9-1.1-2.7c-0.3-2.3-1.1-5.3-1.7-7.8c-1.6-0.7,0.2,5.1,0.5,6c0.6,3.6-1,1.8-1.9,4.5c0,2,1.5,7.1-2.1,5.8
				c-2.3-1.4,0.2-7.1-2.8-7.2c-1.9,2.6-4-3.3-4.2,1.2c0.5,3.4-14.5,16.5-10.2,7.4c1.7-3,3.4-6.8,6-8.8c0.7-0.5-0.3-1.3-0.8-1.2
				c-0.7-1.5-1.5-3.8-3.1-4.3c-0.7,0.7-0.2,2.1-0.4,3.2c-1.3,3.1-3,0.8-2.5-1.5c-0.4-3.3-0.6-6.5-0.3-9.9c1.9-1.2,2.1,2.3,1.9,3.6
				c1.5,3.3,0.5-4.1,0.5-5.1c-0.7-1-0.7,0.3-2.1-0.4l0,0l0,0c-0.9-1.4-0.9-7.8-2.4-3.5c-1.3,3.5,0.3,7.1,0.4,10.6
				c-0.1,1.6,1.7,3.7-0.5,4.8c0-0.2-0.3-0.2-0.4,0c-0.7-0.2-2.2-1.5-1.6,0.4C164.5,130.4,164.2,131.9,162.9,131.6z M269.4,135.1
				c1.8-0.3,1.4-2.8-0.4-1c-1.3,1.1-4.8,4.9-5.5,1.2c-2.4-0.2-5.3,5.1-7.5,6.8c-4.3,3.3-3.8-2-1.6-4.3c0.9-1.8,2.5-2.6,3.8-3.7
				c1.2-0.9,0.3-2.2-0.9-0.7c-0.7,0.7-1.7,1.5-2.5,2.4c-1.6,2-2.5,4.3-3.9,6.5c-1.9,4.5-5,3.4-6.5,5.9c-1.3,0.8-1.6,2.6-2.8,3.6
				c-3.3,1.3-5.6,1-4.1-3.1c0.8-4.3,9.9-7.6,8.7-11c-2.9,2-4.8,5.6-7.8,7.3c-1.4,0.6-0.8-1.9-2-1.7c-1.6,3-5.4,1.4-3.9-1.8
				c-0.4-2.6-2.8,5-4.5,5.4c-2.9,0.3-4,2.3-5.3,4.6c-0.9,0.6-0.7,1.2,0.1,1.7c0.6,2.6-1.9,4.8-3.3,6.7c-4,4-0.1,2-0.1,5.5
				c1,2.2,2.6-0.4,3.1-1.6c0.6-0.4,1.5,0,2-0.6c1.4-1.1,2.9-7.3,5.2-3.7c0.1,2.9,1.4-0.8,2.2-1.3c1.5-1.4,4-0.7,3.5,1.5
				c1,0.9,1.2-1.6,2-2c1.7-1.6,3.9-2.4,6-3.1c4.2-1.1,2.3-1.3,3.9-4.2c1.9-2.4,5.6-1.8,8.2-2.9c2.7-1.5,4.1-4.7,7.5-5.2
				C269.4,139.9,262.4,138.7,269.4,135.1z M154,124.8c0.1-0.1,0-0.2,0-0.3c0.6-0.4,0.4-1.6,0.7-2.3c0-0.3,0.5-0.9,0.1-1.1
				c0.5-1.5,1.8-6.8,0-7c0.2,2.8,0.1,9.1-3,4.2C151.6,119.3,154.1,129.5,154,124.8z M178.6,125.6c-0.1-0.9-0.4-2,0.5-2.5
				c1.6,0.4,1-1.5,0.6-2.3c-1.4-0.3-2-0.7-2.7-1.8c-0.8,2.1,0.7,5,0.5,7.4c0.5,1.8-0.4,6.4,2.9,4.4
				C180.3,128.9,179.5,127.1,178.6,125.6z M198.2,169.2c0.8,0.1,1.4,0.7,2,1.3c0.8-0.6-0.6-1.6-0.7-2.3c0.2-0.7,1.1,0.5,1.5,0.7
				c0.1,1.1,0.8,0.8,1.2,0.1c-1.3-1.3-3.3-2.7-4.2-4.5c-2.3,1,3.6,6-1.4,2.8c-0.8-1.2-1.7,0.1-2.4,0.8c-0.7,0.8-2.8,2.1-0.9,2.9
				c0.1-3.5,3.3,2.8,4.1,2.8c2.6-0.9-5.7-5-2.1-4.9c-0.5-3.6,3.9,4.2,4.3,2.8C200.4,170.5,197.4,170.3,198.2,169.2z M201.5,135.1
				c0.7-3.4,5.4-5.4,5-9.3c-1.4-1.8-3.6,4-4.3,5.2c0,0.1-0.1,0.2-0.1,0.2c-2.4,3.1-6.6,16.1-10.3,9.1c-2,1.9-1.6,5.7-4.3,6.9
				c-3.8-1-1.4-0.8-4.4,1.1c-6.1-1.1,2.5-12.1-4.5-4.4c-1.9,2-4.5,7.8-7.5,5.2c-2.2-0.1-1.7,3.3-3.6,3.9c-3.4,1.6-3.2-2.2-1.6-4.1
				c0.2-0.9-0.8-1.5-1.5-1.6c-0.8,0.8-1.6,1.5-2.8,1.2c-0.9-0.2-1.8-1.7-2.4-0.6c-0.4,1.4-11.1,13.9-6.7,11.7c2.7-1.8,6-8.6,7.9-3.6
				c1.4-0.7,3.4-5,4.1-1.4c0.1,2.2,0.6,4-1.4,5.3c1.3,2.7,4.1,1.9,4.7-1c0.4-1.1,2-2.7,3-1.4c0.2,0.4,0.2,1.5,0.9,1
				c1.6-2.1,2.6-4.9,4.5-6.6c3.2-2.6,4.5,1.6,2,3.6c-3.3,3.4-2.7,2.3-2.5,6.5c-1.6,2.4-6.7,4.8-2.6,7.5c4.8,0,1.3,2.2,3.6,3.4
				c1.5-1,2.6-2.6,4.1-3.8c1-1.6,1.4-3.7,2-5.5c3.1-6.1,2.8,0,4.8-0.9c1.6-1.7,3.1-8.6,6.3-5.8c-0.3,1.9-0.5,3.2,1.4,1.3
				c0.9,0.2,2,0.4,2.9-0.2c1.7-1.5,1.8-4.3,3.8-5.6c1.1-0.7,1.2,0.2,1.3,1.1c1.5,1.3,4.1-3,3.7,1.7c-0.4,1.3-0.9,2.5-1.7,3.6
				c-1.7,0.4-3,3.5-0.5,3.3c1.8-1,1.6-3.6,3.1-4.6c1.6-0.1,3.5-1.8,4.8-0.4c1.2,2.3-3.8,4.7-1.3,5.6c4-0.4,4.5-7.2,7.7-9.4
				c1.6-1.2-4.3-0.5,0-6.5c1.4-1.9,3.5-3.2,4.8-5.2c-0.2-0.6-1.7,0.2-2.5-0.5c-1.3,0.4-1.3,2.1-2.4,2.8c-1.8,0.5-3.1,1.3-4.3,2.7
				c-1.8,2.3-3.6,5.4-7,4.8c-1.4,0-1.6-1.7-1.5-2.9c-4-1.3,0.4-6,1.9-8.1c2.6-2.6-0.5-3.2-2.3-1.4c-2,2.1-1.7,5.9-4.6,7.1
				c-0.7,0.5,0.1,1,0.7,1.1c2.1,3.1-2.8,3.4-4.7,3.9c-4.8,2.8-4.9-2.4-1.8-4.9c1.7-1.2,1.2-2.7,1.6-4.4
				C197.9,139.2,203.5,138.5,201.5,135.1z M54.1,93c-4.3-5.3-2.8-15.3,4.7-16.7c1.7-0.9,8.9,2.6,5.2-0.8c-1.2-1.6-4.1-1.3-5.1-3
				c1.6-4.3,5-10.1,10.2-9.7c6.4,1.9,2.9,8,6.5,8.9c2.9,0.4,7,3.4,9.5,1.4c-2.6-5-7.7-8.7-11.6-12.8c-0.9-1.1-3.8-1.8-2.6-3.5
				c1.2-1,3.7-5.1,4.9-2.6c2.7,5.4,7.1,9.7,11.2,14.1c5,3.2,0-7,4.6-2.2c-2.3-5.7-7-11.3-11.4-15.8c0-3.4,6-6.3,9.2-7.5
				c9.1-2.2,13.7,9.8,12.1,17.1c-4.6,6.6-12.7,10.3-17.8,16.7c-3.1,2.7-7.3-1.8-10.4-0.7c0.8,2.6,4.4,3.4,6.2,5.2
				c-1.1,8.7-6.1-1.1-9.7-0.8c2.7,2.9,4.7,6.3,5.2,10.2c17-13.1,28.1-16.9,49.5-11.3c26.8,9.7,52.5,24.2,73.1,45.1
				c1.5,1,3.4,0.1,4.4,1.8c1.7-1,2.8-3.6,5.5-3c4.7,3.3-3.3,7.7-0.8,9.4c0.5,1,1.4,2.1,2.6,2.1c2.9-4.4,8.2,0.7,3.8,3.7
				c0,1.4,2.6,4,4.2,3.5c0.1-1-0.8-2-1.2-2.9c-0.3-3.5,2.8-6.3,5.7-7.6c4.1-0.5,1.6,4.2,1.5,6.1c0.4,0.5,1-0.2,1-0.7
				c1.4-1.7,2.4-3.6,3.6-5.4c1.7-2.8,5.7-8.3,7-2.2c1.2-6.8,0.5-15-0.9-22c-6-36.9-35.3-68.8-71.7-77.9
				c-52-14.8-110.6,20.9-120.5,74.2c-2.2,8.5-5.1,24,7.9,12.4c-0.3-2.2-5,1.3-6.1-0.4c-1.7-9.1,6.6-4,11.8-5.8
				c5.9-1.7-1.9-4.4-4.5-4.4c-1.8-0.6-4.8,1.2-5.9-0.3c1.3-10.2,2.6-2.6,14.2-4.7c3.8-1.1-8.6-6.7-10.7-6.4c-0.6-0.4-0.5-1-0.3-1.5
				C50.5,86.8,51.2,92.6,54.1,93z M106.1,139.4c1.6,0,10.1-3.3,4.3-2.7c-4.7-1.9,4-5.7,6-6c2.1-0.3,4.2-0.8,6.4-1.1
				c1.1-1.1,2.6-1.5,4.1-2c2.7-0.3,8.8-5.5,2.3-4c-2.5,0.9-4.5,2.9-7.1,3.7c-2.9,1.1-4-1.5-1.4-3c0.7-0.7,2.7-2.4,0.5-2.1
				c-6.8,1.4-6.5,0.7-12.9,4.7c-2.9,1.4-6.1,1.1-9.1,3c-2.4,2-11.6,4.2-6.8-1.3c2.9-1,5.7-2.5,8.4-3.9c2-0.1,1.4-2.7,3.1-3.4
				c2.3-1.4,4.8-2,7.1-3.5c2.7-1.3,5.7-1.8,8.5-2.8c2.6-0.8,5.2-1.6,7.4-3.1c3-1.7,4.2-4.3-0.1-1.4c-2.1,1.7-5.1,1.7-7.6,2.6
				c-1.8,1-3.3,1.4-5.3,1.8c-0.9,0.4-1.7-1-2.3-0.1c-1.8,3.2-6.7,2.4-9.7,4.3c-1.9,0.4-3.7,1.3-5.7,1.3c-1.9-1.2,0.2-3.2,1.8-3.3
				c1.1-0.6,1-2,2.3-2.2c3.1-0.6,5.4-3,8.3-4.2c0.8-0.7,5.3-0.6,3.1-2.2c-2,0.9-3.6-0.3-2.3-2.4c0.9-1.6,2.7-2.2,3.8-3.6
				c3.5-3.2,8-5.3,12.2-7.3c2.9-0.7-1.2-2.1-2.1-0.9c-2.4,1.9-4.6,3.8-7.4,5.1c-1.4,1-2.7,2.4-4.4,3c-1-0.1-2.2-0.5-3.1,0.2
				c-0.8,0.5,0.1,1.2,0.3,1.7c-0.6,2.6-3.6,4.5-5.9,5.9c-2.3,1.2-4.6,2.5-6.4,4.4c-5.8,2.9-2.4-3.6,0.8-4.7c1.1-0.9,7.3-3.2,5.9-4.2
				c-2.4,0.5-5.3,4.7-7.5,2.3c-1.8-3.7,15.2-12.7,17.7-15.2c-0.8-1.7-2.5,1.5-3.8,1.6c-1.6,0.9-3.5,1.8-5.3,2.1
				c-7.6,4.6-6.2-1.7-1.5-2.4c-0.2-5,6.2-6.1,9.5-8.9c0.2-1-2.7,1-3,1.2c-1.4,0.7-2.9,1.1-4.2,1.9c-6.5,3.5-12.7,7.2-20,8.3
				c-1.5,0.6-3.1,0.4-3.7-1.2c-0.1-2.2,3.1-2.9,4.2-4.6c1.4-1.2,2.6,1.8,3.7,0.5c-1.3-1.2-0.7-3.7-2.9-1.9c-3.2,1.7-6.2,4.1-9.5,5.6
				c-1.7-0.1-2.2-2.1-3.7,0.2c-1.6,2.2-5.6,4.2-6,6.7c1.9,0.3,2.8,2.6,0.9,3.5c-3-0.8-5.6-0.5-6.9,2.6c1.7,1.8,6.8,1.5,5.9,4.7
				c-11.2,0.5-12.8,1.3-21.3,8.7c-5.9,3.5-7.8-3.6-5.4,7.7c6.9,19.1,32.6,7.4,46.8,6c7.8-1.8-2.6,5.4,9,6.8c5.1,0.6,10,2.5,14.8,4.3
				c3.1,0.7,7.1,4.6,9.8,1.3c0.9-2.9,4-2.5,6.2-3.4c1.2-0.2,2.7-3.1,0.9-3c-1.9,1.5-3.9-0.2-5.8,0.8c-3.4,1.6-14.2,7.4-7.6-1
				c-3.1,0.5-6.4,2.4-9.5,2.6C101.9,142.4,103.8,140.1,106.1,139.4z M164.6,114.4c1.6-4,3.4-9.6,5.1-1.9c0.5,2.5,2.1-3.8,3.9,4
				c0.6-6.5,4.4-5.4,4.8,0.5c0.9,0.4,1.6-1.2,2.4,0.5c1.5,2.5,2.5,6.5,1.2,9.1c-0.1,0.8-0.3,1.9,0.3,2.5c0.6-0.7-0.2-2.1,0.9-2.7
				c2.3,0.5,2.7,3.9,4,5.4c-0.6-2.9,1.1-2.8,1.6-4.6c-0.6-1.6-0.6-3.2-0.1-4.8c0.2-0.9,1.4-1.1,1.3-2c-1.4-1.3-3-2.4-4.3-3.8
				c-1.2-1.1-26-21-23-15.6c-0.6,5.3,2.1,10.6,0,15.5c-0.4,0.8,0.1,1.4,0.3,2.2c0.4,1.8-0.1,3.7-0.5,5.4c-0.1,2.2,0.7-0.1,1.7-0.1
				C166.5,127,163.6,116,164.6,114.4z M207.7,163.4c-0.1-1.3,3.3-4.1,1.1-4c-1.8,0.9-1.4,4-3.7,4.6c-4.5,0.8-3.8-2.9-4.2-5.7
				c-1.3,0-1.8,1.9-2.9,2.5c-3.5-0.3-3.1,0.4-5.7,2.3c-3.4-0.3-0.3-3.4-4.4,1.6c-0.7,0.8-2,1.5-3.1,1.6c-0.4-0.3-0.7-0.4-1,0.1
				c-0.6,3.5-8.3,12.9-10.4,6.2c-1-1.4-3-2.3-4.2-3.8c-0.7-3.4,7.2-7.9,3.1-8.4c-1.2,1.1-2,2.1-3.4,0.9c-1.1,1.6-2.8,2.2-4.2,3.3
				c3.2,2.3-1.5,5.6-3.4,7.7c0.2,3,3.8,0.3,5.6,1c0.7,1.2,1.9,0.8,3,1.2c1.7,0.8,3.4,1.5,5.2,1.8c4.2-0.2,6.8-4.3,9.3-7.2
				c2-1.7,5.4-0.8,3.5,2.1c-0.1,1,0.6,0.3,0.8-0.1c1-2.7,3.8-3.8,5.8-5.6c1.3-0.5,1.6-3.1,3.2-2.3c2.9-0.3,3.1,3.4,5.8,3.6
				c4.4-0.6,3,1.8,2.3,4.6c1.6-1.5,3-3.9,5.5-4.4c5.2-1.9-0.5,5.1,2.1,4.8c0.5-0.7,1.1-1.1,1.8-1.6c4-1.6,3,0.4,1.3-3.5
				c-1.4,0.1-2.9,0.2-3.7-1.6C210.9,164.3,207.2,167.4,207.7,163.4z M145.2,103.7c-2.9-18.4,6.4-7.4,5.7,3.2c2-0.5,0.4-4.3,3.5,0
				c2.7-6.4,3.9-0.6,4.6,2.7c1-2-1.2-6.3-0.5-9.3c0.3-0.4,0.1-0.8,0.3-1.2c0.2-0.4,0.9-0.5,0.8-1c-2.7-1.6-5.7-2.8-8.4-4.5
				c-8.2-4-16.4-8.1-25-11.4c-5.9-2.1,4.8,4.8,5.7,6.5c1.1,0.6,2.2,5.2,2.9,4.2c-1.5-5.8,4.6-4.2,4.6,0.3c1,1.5,3.3,1.3,3.8,3
				c1,2.2,0.2,4.7,0.2,7c0.7,2.5,0.2,5.1-0.5,7.5c-0.3,1.4-0.7,2.7-1,4c-1.3,5,2.5,6.3,1.9,0.5C142.4,107.7,147.1,111.6,145.2,103.7
				z M190.3,202.5c7.9-9.7-12.1-29.5-17.3-14.1C169.9,198,181.6,212.2,190.3,202.5z M107.2,191.6c-2.8,2.2-5.5,4.8-6.1,8.5
				c-1,2.8-1.8,6.5,0.2,9c9.2,10.9,19.8-2.9,17.9-13.2C118.4,190.1,111.6,188.2,107.2,191.6z M206.8,187.7c-3.4-4-7.4-7.3-10.7-11.4
				c-2-1-4.5-8.1-5.8-3.5c3.2,2.1,16.6,13.5,4.7,8.6c-3.4-0.5-9-5.6-11.3-2.3c-1.1,0.9-1.3,1.3,0.2,1.7c1.5,2.2,3.2,4.3,5.1,6.2
				c2.3,2.7,4.6,5.6,5.9,8.9c0.4,0.6,0.3,2.8,1.3,1.7c5.3-4-1.2-1-6.7-11.9c-3.8-4.6,8.2,1.9,9.8,2.1
				C201.8,188.5,205.7,191.2,206.8,187.7z M80.9,195c-5.2,0.8-5.3-5-3.7-8.3c-0.9,0.1-1.2,1.5-2.1,1.9c-0.3,0.7-1.4,1-1.3,1.7
				c1,2.5,2.1,5.6,4.8,6.7c6.8,3,12.4-4.3,9.9-10.7c-1.1-2.6-1.6-6,1.4-7.5c4-2.5,3.4,3.3,3.1,5.6c0.5,0.2,0.7-1,1-1.3
				c0.4-0.7,1.3-1.2,1.5-2.1c-1.7-4.2-5.4-6.3-9.3-3.3C76.6,184.4,88,190.4,80.9,195z M88.2,204.3c4.2,2.9,9.3,1.4,11.6-3
				c3.2-5.4-6.1-11.5,0-15.9c3.2-1.3,3.8,3,3.6,5.2c0.4,0.2,2.2-3.9,1.6-3.9c-2.4-3.9-7.2-4.6-10.1-0.7c-6.4,5.9,1,9.3-0.2,15.3
				c-3.1,5.8-8.4-0.1-7.1-4.6c-0.5-1.1-2.4,2.3-2,3.4C86.1,201.6,86.8,203.2,88.2,204.3z M74,172.2c-3,1.3-6.4,2.2-9.5,3.1
				c-1.7,0.7-5.7,0.3-3.3,2.7c2.3,3.1,1.7-1.5,6.9-2.2c1.5-0.9,1.9,0.8,2.8,1.6c0.4,1.1,2.4,1.9,1.9,3.3c-1.4,1.9-2.3,4-4.4,5.2
				c2.2,3.6,4.3,7.3,6.1,1.1c2.5-5.9,6.4-11.1,10.3-16C83.2,165.8,77.4,171.7,74,172.2z M55.6,81c-5.7,6.2,9.6,13.3,15,11.5
				C75.5,86.9,60.7,79.8,55.6,81z M164.9,190.3c-3.6,0.7-7,2.6-10.7,2.7c-0.1,2-0.6,6.9,1.1,2.1c2.8-4.7,4.5,10.5,5.3,12.3
				c0.2,1.4,0.6,2.9,0.7,4.3c-0.2,2.4,0.1,4.1,2.7,2.3c4.4-1,3.6-0.5,1.9-4.3c-2-4.2-2.6-8.8-3.9-13.2c-1.9-2.7,0.6-6.4,2.8-2.9
				C165.3,193.2,164.7,191.3,164.9,190.3z M85.2,47.7c2.1,3.9,5.2,7.2,7.4,11.1c1.5,2.6,4.1,6.1,5.6,1.4
				C98.8,54.8,90.6,40.5,85.2,47.7z M139.2,195c-6.1-1.2-3.6,3.2-4.2,7.2c-0.1,5.2-0.6,10.4-1.8,15.4c1.7,0,6.7,1.2,5.5-1.8
				C138.2,209,138.7,201.6,139.2,195z M178.4,208.3c-3.9-4.3-5.4-10.4-7.6-15.7c-1.4-3.6,0-5.7-4.6-3.2c0.9,5.9,5.7,12.3,6.3,18.8
				c0.4,0.7,0,2.8,1.1,2.8C174.9,209.8,177.3,209.7,178.4,208.3z M159.2,167.6c4.1-2,4.2-4,0.3-5.3c-0.1,1.1-0.6,2.4-1.9,2.5
				c-0.9,0.3-1.7,0.8-2.6,0.1c-2.6-2.4,0.7-7.2-3.5-0.3c-2.5,1.9-2.3-3-4.5,0c-0.8,0.7-2.1,1.6-2.4,2.5c0.6-0.2,1.2-0.7,1.7-1
				c1.7-1.2,2.7-1,3.3,0.9c2.1-0.3,1.4,1.8,1,2.9c0.7,0.9,1.6-1.1,2.6-0.6C156.5,171.7,155.4,169.9,159.2,167.6z M130.2,100.2
				c1.5-0.1,2.5-0.2,3.5,0.9c0.7-1.4-0.3-3.7-1.3-4.8c-2.7,0.4-3.6,2.8-5.6,4.3c-2.3,1.7-5.6,1.8-8,3.4c-0.7,0.3-2.6,1.3-1.8,2
				c1.4-0.6,2.7-1.1,4.1-1.4C124.4,103.6,127.6,102.5,130.2,100.2z M208.3,145.3c2.2,0.5-0.7,4.1,1.2,4.1c1.8-1,2.7-2.7,3.6-4.4
				c0.8-0.9,0.6-1.5-0.2-2.3c-0.6-0.6-2.2-2.1-2.8-2C209.7,141.8,205.1,145.9,208.3,145.3z M227.3,143.8c1.7-2.6,9.5-10.5,7.2-13
				c-2.5,2.7-4.3,5.9-6.3,9c-0.8,0.9-1.1,1.7-1.8,2.6C224.9,143.3,226.5,143.3,227.3,143.8z M70.9,71.5c-0.9-2.6-6-7.1-7.4-2.8
				C64.8,70,71.6,77,70.9,71.5z M232.2,160.9c-1.6,2.5-2.9,2.9-5.6,2.3c-0.7,1.2-1,2.4-2.7,2.3c-0.6,1.1,2.3,1.1,3,1.3
				c4.5-6.4,3.8,0.8,7.6-2.9c0.6-1.4,5.9-2.3,2.7-2.6C234.8,162.3,234,163,232.2,160.9z M64.9,100.3c7-4.9-3.1-2.7-6.1-4.3
				C57.7,96.5,63.7,100.3,64.9,100.3z M178,133.3c-2.7,1.5-5.5,4.8-5.7,7.7C174,140.5,179.8,134.4,178,133.3z M104,84.4
				c8.2-5.6-10.5,4.4-11.9,5.6C90.5,92.3,103,85.3,104,84.4z M243,134.6c2-2.1,4.3-4.5,5.1-7.3C247.1,125,240.4,137.8,243,134.6z
				 M173.9,125.3c4,1.8,0.2-5.6,0.2-7.3C173,118.5,173.7,123.5,173.9,125.3z M199.2,144.3c1.4,1,4.4-4,3.2-4.8
				C199.3,141.2,199.9,141.4,199.2,144.3z M197.1,126.9c-1.8-1.9-6.2-6.2-3.5-0.5C196.2,124.9,196,130.9,197.1,126.9z M220.3,134.7
				c-2.1,1.8-2.8,2.4-0.7,4.7c1.7-0.4,0.2-3.3,1.1-4.4C220.8,134.6,220.6,134.7,220.3,134.7z M216.7,160.2c1.6-1.3,3.6-3.1,4-5.2
				C218.9,154.2,216.8,158.6,216.7,160.2z M204.6,137.8c1.8-1.8,3.5-1.5,0.5-3.4c-1.7-1.2-1.5,0.9-1,1.9
				C204.1,136.9,203.7,138,204.6,137.8z M126.2,153.4c1.3,0.3,1-1.3,1-2.2C125.3,150.6,121.8,152.1,126.2,153.4z M198,147.6
				c0-0.4,0-0.9-0.4-1.1c-3.5,3.1-2.7,4.4,1.3,1.9C198.6,148.1,198.2,148.1,198,147.6z M197.6,130.6c2.6-1.3,2.9-6.8,0.2-2.3
				C197.8,129,197.1,130.1,197.6,130.6z M121.5,137.2c1.2,0,2.3-0.7,3.3-1.4c0-0.6-1.2-1.8-1.7-1
				C122.8,135.8,120.6,136.3,121.5,137.2z M160.1,103.3c0.2,1,0,2.5,0.8,3C162.1,104.9,160.1,98.6,160.1,103.3z M274.7,136.8
				c3.2-2.5-3.7-1.2-2.2,0.6C273.3,137.4,273.9,137.1,274.7,136.8z M157.8,159.6c-0.8-0.5-1.6,1.2-1.9,1.9
				C156,164.9,158.8,162.5,157.8,159.6z M58.8,106.7c3.4-1.4-2.3-2.4-1.5-0.7C57.7,106.4,58.3,106.7,58.8,106.7z M159.8,159.6
				c-0.2,2.5,1.8-0.9,2.1-1.8C160.8,157.2,160.1,158.8,159.8,159.6z M176.4,153.7c-0.3,0.7-1.4,1.3-1,2
				C176.6,155.8,178.8,152.4,176.4,153.7z M231.7,129.6c-0.6,0.5-2.9,3.7-1.3,2.8C231.1,131.9,232.1,130.5,231.7,129.6z
				 M220.9,149.3c-0.6-1.2-1.9-0.6-1.9,0.6C219.3,151.2,221,150.3,220.9,149.3z M156.3,158.7c0.3-0.4,1-1,0.7-1.6
				C156.5,156.6,155.1,158.9,156.3,158.7z M211.4,136.7c0.4-0.3,1-0.9,0.3-1.2C211,135.5,210.1,136.9,211.4,136.7z M154.2,160.6
				C154.2,160.5,154.1,160.6,154.2,160.6C154.2,160.7,154.2,160.6,154.2,160.6z"/>
		</g>
	</g>
	<g>
		<g>
			<path class="st0" d="M251.8,131.3c-2.8,0,3.3-7.9,4.3-9.2c1-2.3,6.1-4,4.7,0C258.9,126.1,255.7,129.3,251.8,131.3z M254.9,127.3
				c1.2-0.9,6.3-5.1,3.7-5.5C257.2,122.6,253.2,126.3,254.9,127.3z"/>
		</g>
	</g>
	<g>
		<g>
			<path class="st0" d="M275,129.4c-3.9,0.2,1.3-7.4,3.7-6.1C280,125.7,276.5,127.9,275,129.4z"/>
		</g>
	</g>
	<g>
		<g>
			<path class="st0" d="M268.3,124.5c3.9,0.3-0.4,6.8-2.6,5C265.7,127.7,266.9,125.6,268.3,124.5z"/>
		</g>
	</g>
	<g>
		<g>
			<path class="st0" d="M175.8,37.7c2.7,1.3,10,2.6,9.5,6.2c-2,3-2.5-2.8-4.7-2.9c-2.2,1.1-6.7,9.4-1.3,8.2c1.2,0.5-1,4.1-2,2.7
				c-3.1-4.7-4.6,3.9-6.1,6c0,2.9,3.6,0.2,4.8,1.2c1.7,2.8,8.1-10,9.6-12.1c1-1,0.9-4.4,2.8-2.5c5.7,1.9,12.9,8.9,5.3,13.5
				c-4.3,1.7-5,0.5-5.9,5.9c-4.5,13.4,6.8-0.3,10.8-3.9c1.8-0.8,2.3-4.9,4.4-3.8c3,3.2,9.6,7.5,6.3,12.7c-9.1,9.2-11.3-2.6-15.2,1.7
				c-6.1,7.6-5.5,2.6-10.7-1.4c-1.8-3.2,1-6.7,0.7-10.1c-3.6-0.6-4.1,9.5-8.4,4.7c-0.8-0.3-1.1-1-1.3-1.8c-2.5,0.7-4.2-1.7-6.5-2.3
				c-4.5-1.3-0.1-3.6,0.4-6.3C171.1,48.3,172.8,42.2,175.8,37.7z M192.6,49.8c-1.6-3.9-5.8,4.1-6.1,5.9
				C189.6,57.7,193.6,53,192.6,49.8z M205.6,61c-2.9,1.4-12,10.4-2.7,6.2C204.7,66.1,208,62.7,205.6,61z"/>
		</g>
	</g>
	<g>
		<g>
			<path class="st0" d="M229.8,103.2c-1.8,1.4-6.8,0.6-7.9,2.7c2.7,1.4,5.5,3.6,8.7,2.3c1.8,3.5,1.3,6.9-2.9,3c-6-8-19,9.7-19.2,2.5
				c-0.9-3.9,4.2-3.5,5.9-6.1c0.6-1.2-2.3-0.4-3-0.4c-6.6,2.6-3.9-1.2-6.2-7.3c0.3-2.1,9.9-9.8,3.9-7.6c-3.5,1.5-7.5,5.2-7.6-1.3
				c4.1-1.6,8.8-3.8,13-6.1c8.3-3.9,6.2-6.8,10.8,3c3.1,6.2-5.2,11.6-9.9,7.2c-3.1,2-5.7,5.3-8.2,8.1c3.9,1.8,11.4-2.4,16.1-2.9
				C227.1,98.8,230.1,97.8,229.8,103.2z M216.1,92c2.6,0.8,9-2.1,6.1-5C220.2,87.2,211.4,89.9,216.1,92z"/>
		</g>
	</g>
	<g>
		<g>
			<path class="st0" d="M131,43.9c1.9-3.3,1.9-7.8,1.1-11.4c-0.2-1-2-2.2-0.9-3c1.7-0.1,6.1-1.3,5.8,1.5c-0.1,4,1,8.5,2.8,11.9
				c2.7-3.8,2.9-9.4,3.3-13.4c6.1-0.7,2.1,3.5,1.1,6.5c-2,2.3-3.5,20.2-7.3,15.6c-3-14.7-3.2-11.5-5.9,0.7
				c-3.2,3.8-7.8-18-10.8-20.6c0.3-2,5.1-2,6.4-0.9C126.7,35.3,128.7,40,131,43.9z"/>
		</g>
	</g>
	<g>
		<g>
			<path class="st0" d="M150.7,47.3c-0.3-2.7-3.3-2.4-5.3-2c-2.2,1.8-1,4.8-2.2,6.8c-4.9,1.2-1.6-3.4-0.7-5.7
				c2.4-5.4,4.5-11.4,7.6-16.2c6.2-1.9,3.8,8.8,4.8,12.4c-1.1,3.7,3.3,13.8-2.8,11.4C148.8,53.6,151.4,49.6,150.7,47.3z M149.3,36.6
				c-1.6-0.9-2,3.4-2.8,4.5c-0.4,1.6,1.4,2.1,2.6,2C150.9,41.7,149.4,38.5,149.3,36.6z"/>
		</g>
	</g>
	<g>
		<g>
			<path class="st0" d="M201.2,76.6c-3.8-1.7-6.6,6.4-8.9,0.7c0.4-2.1,4.2-0.6,5.8-1.5c4.4-1,8.3-3.2,12.4-5c4.8-3,8.2,1.4,3.8,5.1
				c-2.5,1.8-13.7,17.7-15.2,12.2c-1.6-2.1-0.5-3.2,1.4-4.3C203.5,81.7,204.4,79,201.2,76.6z M209,73.2c-2.7,0-8.2,2.5-3.7,4.7
				C206.9,77.3,209.6,74.8,209,73.2z"/>
		</g>
	</g>
	<g>
		<g>
			<path class="st0" d="M173.5,36.6c-0.6,2.6-2,4.8-3.3,1.1c-4.1-7.4-7.5,18.3-9.9,18.3c-1.2-0.4-5.7-0.6-4-2.5
				c3.2-5.3,4.4-11.7,6.5-17.5c0.4-3.2-3.1-1-4.6-0.7C156.7,28.1,170.5,35,173.5,36.6z"/>
		</g>
	</g>
	<g>
		<g>
			<path class="st0" d="M112.8,127c6.9-3.1,6.3,2.4,0.3,3.6C106.7,133.7,107.8,128.5,112.8,127z"/>
		</g>
	</g>
	<g>
		<g>
			<path class="st0" d="M96.2,95.5c0.7-1.6,6.9-4.7,4.6-1.3c-1.2,1.1-2.7,1.5-3.9,2.7c-0.8,1.4-1.9,2.9-3.6,3.2
				c-2.3,1.2-4.8-0.3-2.1-2.3C92.6,96.7,94.5,96.4,96.2,95.5z"/>
		</g>
	</g>
	<g>
		<g>
			<path class="st0" d="M148,120c-0.8,2.5,3.1,14.5-1.7,11.8c-2-2.4-0.8-5.8-0.1-8.5C146.2,119.9,147.7,110.6,148,120z"/>
		</g>
	</g>
	<g>
		<g>
			<path class="st0" d="M163.4,142c-4.4,0.5-1.8-6.1-1.8-8.6C165.7,132.2,165.4,139.9,163.4,142z M163.1,137.1
				c0-0.6,0.7-2.1-0.2-2.1C162.4,135.4,162.4,138.6,163.1,137.1z"/>
		</g>
	</g>
	<g>
		<g>
			<path class="st0" d="M177.8,184.8c4.7-0.2,15,15.2,8.8,18C181.3,205.7,172.4,186.7,177.8,184.8z"/>
		</g>
	</g>
	<g>
		<g>
			<path class="st0" d="M107,211.1c-6.7-3.5,1.1-16.9,5.9-19.5C119.8,192.3,113,212.2,107,211.1z"/>
		</g>
	</g>
	<g>
		<g>
			<path class="st0" d="M77.5,172.1c1.9-0.3-3.3,6.5-3.8,5.7C68.6,173.9,74.5,173.8,77.5,172.1z"/>
		</g>
	</g>
	<g>
		<g>
			<path class="st0" d="M148.6,207.4c-3.5,0.8-2.8-0.1-2.3-3c0.5-8.4,2.9-0.9,3.4,2.5C149.3,207.2,148.8,207.1,148.6,207.4z"/>
		</g>
	</g>
	<g>
		<g>
			<path class="st0" d="M198,169.3c-0.2-0.2,0-0.4,0.2-0.2C198.2,169.2,198.1,169.3,198,169.3z"/>
		</g>
	</g>
</g>
</svg>
